<mxfile host="app.diagrams.net" modified="2020-03-15T17:23:19.919Z" agent="Mozilla/5.0 (Macintosh; Intel Mac OS X 10_15_3) AppleWebKit/537.36 (KHTML, like Gecko) Chrome/80.0.3987.132 Safari/537.36" etag="YpoqqMfU-sKOXZswbKmf" version="12.8.5" type="github" pages="9">
  <diagram id="KIi2lPRmDLOemCgX0B-V" name="domain_model">
    <mxGraphModel dx="946" dy="1783" grid="1" gridSize="10" guides="1" tooltips="1" connect="1" arrows="1" fold="1" page="1" pageScale="1" pageWidth="827" pageHeight="1169" math="0" shadow="0">
      <root>
        <mxCell id="0" />
        <mxCell id="1" parent="0" />
        <mxCell id="3oPoWGQy6z454e4XhpnZ-6" style="edgeStyle=elbowEdgeStyle;rounded=0;orthogonalLoop=1;jettySize=auto;html=1;elbow=vertical;endArrow=block;endFill=0;" parent="1" source="3oPoWGQy6z454e4XhpnZ-1" target="3oPoWGQy6z454e4XhpnZ-5" edge="1">
          <mxGeometry relative="1" as="geometry" />
        </mxCell>
        <mxCell id="3oPoWGQy6z454e4XhpnZ-1" value="Driver&#39;s License" style="html=1;" parent="1" vertex="1">
          <mxGeometry x="54" y="-1150" width="110" height="50" as="geometry" />
        </mxCell>
        <mxCell id="3oPoWGQy6z454e4XhpnZ-8" style="edgeStyle=elbowEdgeStyle;rounded=0;orthogonalLoop=1;jettySize=auto;elbow=vertical;html=1;entryX=0.5;entryY=0;entryDx=0;entryDy=0;endArrow=block;endFill=0;" parent="1" source="3oPoWGQy6z454e4XhpnZ-2" target="3oPoWGQy6z454e4XhpnZ-5" edge="1">
          <mxGeometry relative="1" as="geometry" />
        </mxCell>
        <mxCell id="3oPoWGQy6z454e4XhpnZ-2" value="Smart ID Card" style="html=1;" parent="1" vertex="1">
          <mxGeometry x="264" y="-1150" width="110" height="50" as="geometry" />
        </mxCell>
        <mxCell id="3oPoWGQy6z454e4XhpnZ-9" style="edgeStyle=elbowEdgeStyle;rounded=0;orthogonalLoop=1;jettySize=auto;elbow=vertical;html=1;endArrow=block;endFill=0;" parent="1" source="3oPoWGQy6z454e4XhpnZ-3" target="3oPoWGQy6z454e4XhpnZ-5" edge="1">
          <mxGeometry relative="1" as="geometry" />
        </mxCell>
        <mxCell id="3oPoWGQy6z454e4XhpnZ-3" value="ID Book" style="html=1;" parent="1" vertex="1">
          <mxGeometry x="464" y="-1150" width="110" height="50" as="geometry" />
        </mxCell>
        <mxCell id="3oPoWGQy6z454e4XhpnZ-10" style="edgeStyle=elbowEdgeStyle;rounded=0;orthogonalLoop=1;jettySize=auto;elbow=vertical;html=1;endArrow=block;endFill=0;" parent="1" source="3oPoWGQy6z454e4XhpnZ-4" target="3oPoWGQy6z454e4XhpnZ-5" edge="1">
          <mxGeometry relative="1" as="geometry" />
        </mxCell>
        <mxCell id="3oPoWGQy6z454e4XhpnZ-4" value="Passport" style="html=1;" parent="1" vertex="1">
          <mxGeometry x="664" y="-1150" width="110" height="50" as="geometry" />
        </mxCell>
        <mxCell id="3oPoWGQy6z454e4XhpnZ-5" value="ID Document" style="html=1;" parent="1" vertex="1">
          <mxGeometry x="364" y="-1018" width="110" height="50" as="geometry" />
        </mxCell>
        <mxCell id="3oPoWGQy6z454e4XhpnZ-11" value="User" style="html=1;" parent="1" vertex="1">
          <mxGeometry x="364" y="-897" width="110" height="50" as="geometry" />
        </mxCell>
        <mxCell id="3oPoWGQy6z454e4XhpnZ-16" style="edgeStyle=elbowEdgeStyle;rounded=0;orthogonalLoop=1;jettySize=auto;elbow=vertical;html=1;endArrow=block;endFill=0;" parent="1" source="3oPoWGQy6z454e4XhpnZ-12" target="3oPoWGQy6z454e4XhpnZ-11" edge="1">
          <mxGeometry relative="1" as="geometry" />
        </mxCell>
        <mxCell id="3oPoWGQy6z454e4XhpnZ-12" value="Manager" style="html=1;" parent="1" vertex="1">
          <mxGeometry x="54" y="-780.06" width="110" height="50" as="geometry" />
        </mxCell>
        <mxCell id="3oPoWGQy6z454e4XhpnZ-17" style="edgeStyle=elbowEdgeStyle;rounded=0;orthogonalLoop=1;jettySize=auto;elbow=vertical;html=1;endArrow=block;endFill=0;" parent="1" source="3oPoWGQy6z454e4XhpnZ-13" target="3oPoWGQy6z454e4XhpnZ-11" edge="1">
          <mxGeometry relative="1" as="geometry" />
        </mxCell>
        <mxCell id="3oPoWGQy6z454e4XhpnZ-13" value="Inviter" style="html=1;" parent="1" vertex="1">
          <mxGeometry x="264" y="-780.06" width="110" height="50" as="geometry" />
        </mxCell>
        <mxCell id="3oPoWGQy6z454e4XhpnZ-18" style="edgeStyle=elbowEdgeStyle;rounded=0;orthogonalLoop=1;jettySize=auto;elbow=vertical;html=1;endArrow=block;endFill=0;" parent="1" source="3oPoWGQy6z454e4XhpnZ-14" target="3oPoWGQy6z454e4XhpnZ-11" edge="1">
          <mxGeometry relative="1" as="geometry" />
        </mxCell>
        <mxCell id="3oPoWGQy6z454e4XhpnZ-14" value="Invitee" style="html=1;" parent="1" vertex="1">
          <mxGeometry x="464" y="-780.06" width="110" height="50" as="geometry" />
        </mxCell>
        <mxCell id="3oPoWGQy6z454e4XhpnZ-19" style="edgeStyle=elbowEdgeStyle;rounded=0;orthogonalLoop=1;jettySize=auto;elbow=vertical;html=1;endArrow=block;endFill=0;" parent="1" source="3oPoWGQy6z454e4XhpnZ-15" target="3oPoWGQy6z454e4XhpnZ-11" edge="1">
          <mxGeometry relative="1" as="geometry" />
        </mxCell>
        <mxCell id="3oPoWGQy6z454e4XhpnZ-32" style="edgeStyle=elbowEdgeStyle;rounded=0;orthogonalLoop=1;jettySize=auto;elbow=vertical;html=1;endArrow=open;endFill=0;dashed=1;" parent="1" source="3oPoWGQy6z454e4XhpnZ-15" target="3oPoWGQy6z454e4XhpnZ-31" edge="1" treatAsSingle="0">
          <mxGeometry relative="1" as="geometry">
            <Array as="points">
              <mxPoint x="744" y="-912" />
              <mxPoint x="754" y="-832" />
              <mxPoint x="764" y="-862" />
              <mxPoint x="744" y="-912" />
            </Array>
          </mxGeometry>
        </mxCell>
        <mxCell id="3oPoWGQy6z454e4XhpnZ-33" value="&amp;lt;&amp;lt; use &amp;gt;&amp;gt;" style="text;html=1;align=center;verticalAlign=middle;resizable=0;points=[];labelBackgroundColor=#ffffff;" parent="3oPoWGQy6z454e4XhpnZ-32" vertex="1" connectable="0">
          <mxGeometry x="0.4041" y="34" relative="1" as="geometry">
            <mxPoint x="32" y="33" as="offset" />
          </mxGeometry>
        </mxCell>
        <mxCell id="3oPoWGQy6z454e4XhpnZ-15" value="Guard" style="html=1;" parent="1" vertex="1">
          <mxGeometry x="664" y="-780.06" width="110" height="50" as="geometry" />
        </mxCell>
        <mxCell id="3oPoWGQy6z454e4XhpnZ-20" value="Invite Code" style="html=1;" parent="1" vertex="1">
          <mxGeometry x="364" y="-672" width="110" height="50" as="geometry" />
        </mxCell>
        <mxCell id="3oPoWGQy6z454e4XhpnZ-21" value="Access-Controlled Space" style="html=1;" parent="1" vertex="1">
          <mxGeometry x="334" y="-572" width="170" height="50" as="geometry" />
        </mxCell>
        <mxCell id="3oPoWGQy6z454e4XhpnZ-27" style="edgeStyle=elbowEdgeStyle;rounded=0;orthogonalLoop=1;jettySize=auto;elbow=vertical;html=1;endArrow=block;endFill=0;" parent="1" source="3oPoWGQy6z454e4XhpnZ-23" target="3oPoWGQy6z454e4XhpnZ-21" edge="1">
          <mxGeometry relative="1" as="geometry" />
        </mxCell>
        <mxCell id="3oPoWGQy6z454e4XhpnZ-23" value="Apartment Building" style="html=1;" parent="1" vertex="1">
          <mxGeometry x="364" y="-420" width="110" height="50" as="geometry" />
        </mxCell>
        <mxCell id="3oPoWGQy6z454e4XhpnZ-26" style="edgeStyle=elbowEdgeStyle;rounded=0;orthogonalLoop=1;jettySize=auto;elbow=vertical;html=1;endArrow=block;endFill=0;" parent="1" source="3oPoWGQy6z454e4XhpnZ-24" target="3oPoWGQy6z454e4XhpnZ-21" edge="1">
          <mxGeometry relative="1" as="geometry" />
        </mxCell>
        <mxCell id="3oPoWGQy6z454e4XhpnZ-24" value="Event Venue" style="html=1;" parent="1" vertex="1">
          <mxGeometry x="154" y="-420" width="110" height="50" as="geometry" />
        </mxCell>
        <mxCell id="3oPoWGQy6z454e4XhpnZ-28" style="edgeStyle=elbowEdgeStyle;rounded=0;orthogonalLoop=1;jettySize=auto;elbow=vertical;html=1;endArrow=block;endFill=0;" parent="1" source="3oPoWGQy6z454e4XhpnZ-25" target="3oPoWGQy6z454e4XhpnZ-21" edge="1">
          <mxGeometry relative="1" as="geometry" />
        </mxCell>
        <mxCell id="3oPoWGQy6z454e4XhpnZ-25" value="Security Estate" style="html=1;" parent="1" vertex="1">
          <mxGeometry x="574" y="-420" width="110" height="50" as="geometry" />
        </mxCell>
        <mxCell id="3oPoWGQy6z454e4XhpnZ-30" value="«interface»&lt;br&gt;&lt;b&gt;Grant/Deny Access&lt;/b&gt;" style="html=1;" parent="1" vertex="1">
          <mxGeometry x="644" y="-532" width="130" height="50" as="geometry" />
        </mxCell>
        <mxCell id="3oPoWGQy6z454e4XhpnZ-31" value="«interface»&lt;br&gt;&lt;b&gt;Barcode&lt;/b&gt;" style="html=1;" parent="1" vertex="1">
          <mxGeometry x="664" y="-1018" width="110" height="50" as="geometry" />
        </mxCell>
        <mxCell id="3oPoWGQy6z454e4XhpnZ-34" style="edgeStyle=elbowEdgeStyle;rounded=0;orthogonalLoop=1;jettySize=auto;elbow=vertical;html=1;endArrow=open;endFill=0;dashed=1;" parent="1" source="3oPoWGQy6z454e4XhpnZ-15" target="3oPoWGQy6z454e4XhpnZ-30" edge="1" treatAsSingle="0">
          <mxGeometry relative="1" as="geometry">
            <mxPoint x="854" y="-474.05999999999995" as="sourcePoint" />
            <mxPoint x="854" y="-662" as="targetPoint" />
            <Array as="points">
              <mxPoint x="744" y="-672" />
              <mxPoint x="764" y="-682" />
              <mxPoint x="744" y="-652" />
              <mxPoint x="854" y="-606" />
            </Array>
          </mxGeometry>
        </mxCell>
        <mxCell id="3oPoWGQy6z454e4XhpnZ-36" value="&amp;lt;&amp;lt; use &amp;gt;&amp;gt;" style="text;html=1;align=center;verticalAlign=middle;resizable=0;points=[];labelBackgroundColor=#ffffff;" parent="3oPoWGQy6z454e4XhpnZ-34" vertex="1" connectable="0">
          <mxGeometry x="-0.0127" y="-1" relative="1" as="geometry">
            <mxPoint y="1" as="offset" />
          </mxGeometry>
        </mxCell>
        <mxCell id="3oPoWGQy6z454e4XhpnZ-37" style="edgeStyle=elbowEdgeStyle;rounded=0;orthogonalLoop=1;jettySize=auto;html=1;endArrow=none;endFill=0;elbow=vertical;" parent="1" source="3oPoWGQy6z454e4XhpnZ-13" target="3oPoWGQy6z454e4XhpnZ-20" edge="1" treatAsSingle="0">
          <mxGeometry relative="1" as="geometry">
            <mxPoint x="34" y="-682" as="sourcePoint" />
            <mxPoint x="134" y="-650.94" as="targetPoint" />
          </mxGeometry>
        </mxCell>
        <mxCell id="3oPoWGQy6z454e4XhpnZ-38" value="generate ▶︎" style="text;html=1;align=center;verticalAlign=middle;resizable=0;points=[];labelBackgroundColor=#ffffff;" parent="3oPoWGQy6z454e4XhpnZ-37" vertex="1" connectable="0">
          <mxGeometry x="-0.3153" y="22" relative="1" as="geometry">
            <mxPoint x="26.43" y="22" as="offset" />
          </mxGeometry>
        </mxCell>
        <mxCell id="3oPoWGQy6z454e4XhpnZ-39" value="1" style="text;html=1;align=center;verticalAlign=middle;resizable=0;points=[];labelBackgroundColor=#ffffff;" parent="3oPoWGQy6z454e4XhpnZ-37" vertex="1" connectable="0">
          <mxGeometry x="-0.8569" y="-1" relative="1" as="geometry">
            <mxPoint as="offset" />
          </mxGeometry>
        </mxCell>
        <mxCell id="3oPoWGQy6z454e4XhpnZ-40" value="0..*" style="text;html=1;align=center;verticalAlign=middle;resizable=0;points=[];labelBackgroundColor=#ffffff;" parent="3oPoWGQy6z454e4XhpnZ-37" vertex="1" connectable="0">
          <mxGeometry x="0.853" y="-1" relative="1" as="geometry">
            <mxPoint as="offset" />
          </mxGeometry>
        </mxCell>
        <mxCell id="3oPoWGQy6z454e4XhpnZ-41" style="edgeStyle=elbowEdgeStyle;rounded=0;orthogonalLoop=1;jettySize=auto;html=1;endArrow=none;endFill=0;elbow=vertical;" parent="1" source="3oPoWGQy6z454e4XhpnZ-14" target="3oPoWGQy6z454e4XhpnZ-20" edge="1" treatAsSingle="0">
          <mxGeometry relative="1" as="geometry">
            <mxPoint x="329" y="-720.06" as="sourcePoint" />
            <mxPoint x="429" y="-652" as="targetPoint" />
          </mxGeometry>
        </mxCell>
        <mxCell id="3oPoWGQy6z454e4XhpnZ-43" value="1" style="text;html=1;align=center;verticalAlign=middle;resizable=0;points=[];labelBackgroundColor=#ffffff;" parent="3oPoWGQy6z454e4XhpnZ-41" vertex="1" connectable="0">
          <mxGeometry x="-0.8569" y="-1" relative="1" as="geometry">
            <mxPoint as="offset" />
          </mxGeometry>
        </mxCell>
        <mxCell id="3oPoWGQy6z454e4XhpnZ-44" value="0..*" style="text;html=1;align=center;verticalAlign=middle;resizable=0;points=[];labelBackgroundColor=#ffffff;" parent="3oPoWGQy6z454e4XhpnZ-41" vertex="1" connectable="0">
          <mxGeometry x="0.853" y="-1" relative="1" as="geometry">
            <mxPoint as="offset" />
          </mxGeometry>
        </mxCell>
        <mxCell id="3oPoWGQy6z454e4XhpnZ-45" value="◀︎ use" style="text;html=1;align=center;verticalAlign=middle;resizable=0;points=[];labelBackgroundColor=#ffffff;" parent="3oPoWGQy6z454e4XhpnZ-41" vertex="1" connectable="0">
          <mxGeometry x="0.0979" relative="1" as="geometry">
            <mxPoint as="offset" />
          </mxGeometry>
        </mxCell>
        <mxCell id="3oPoWGQy6z454e4XhpnZ-46" style="edgeStyle=orthogonalEdgeStyle;rounded=0;orthogonalLoop=1;jettySize=auto;html=1;endArrow=none;endFill=0;" parent="1" source="3oPoWGQy6z454e4XhpnZ-21" target="3oPoWGQy6z454e4XhpnZ-12" edge="1" treatAsSingle="0">
          <mxGeometry relative="1" as="geometry">
            <mxPoint x="324" y="-510.94" as="sourcePoint" />
            <mxPoint x="84" y="-662" as="targetPoint" />
          </mxGeometry>
        </mxCell>
        <mxCell id="3oPoWGQy6z454e4XhpnZ-47" value="&lt;font style=&quot;font-size: 12px&quot;&gt;manages&amp;nbsp;&lt;span style=&quot;color: rgb(34 , 34 , 34) ; font-family: &amp;#34;arial&amp;#34; , sans-serif ; text-align: left ; white-space: normal&quot;&gt;▶&lt;/span&gt;&lt;/font&gt;" style="text;html=1;align=center;verticalAlign=middle;resizable=0;points=[];labelBackgroundColor=#ffffff;" parent="3oPoWGQy6z454e4XhpnZ-46" vertex="1" connectable="0">
          <mxGeometry x="-0.0754" y="-2" relative="1" as="geometry">
            <mxPoint x="37.14" as="offset" />
          </mxGeometry>
        </mxCell>
        <mxCell id="3oPoWGQy6z454e4XhpnZ-48" value="1" style="text;html=1;align=center;verticalAlign=middle;resizable=0;points=[];labelBackgroundColor=#ffffff;" parent="3oPoWGQy6z454e4XhpnZ-46" vertex="1" connectable="0">
          <mxGeometry x="0.9327" y="1" relative="1" as="geometry">
            <mxPoint y="19.94" as="offset" />
          </mxGeometry>
        </mxCell>
        <mxCell id="3oPoWGQy6z454e4XhpnZ-49" value="0..*" style="text;html=1;align=center;verticalAlign=middle;resizable=0;points=[];labelBackgroundColor=#ffffff;" parent="3oPoWGQy6z454e4XhpnZ-46" vertex="1" connectable="0">
          <mxGeometry x="-0.8998" y="2" relative="1" as="geometry">
            <mxPoint x="1" as="offset" />
          </mxGeometry>
        </mxCell>
        <mxCell id="3oPoWGQy6z454e4XhpnZ-50" style="edgeStyle=orthogonalEdgeStyle;rounded=0;orthogonalLoop=1;jettySize=auto;html=1;endArrow=none;endFill=0;" parent="1" source="3oPoWGQy6z454e4XhpnZ-21" target="3oPoWGQy6z454e4XhpnZ-15" edge="1" treatAsSingle="0">
          <mxGeometry relative="1" as="geometry">
            <mxPoint x="454" y="-560.94" as="sourcePoint" />
            <mxPoint x="674" y="-712" as="targetPoint" />
          </mxGeometry>
        </mxCell>
        <mxCell id="3oPoWGQy6z454e4XhpnZ-51" value="◀︎ guards" style="text;html=1;align=center;verticalAlign=middle;resizable=0;points=[];labelBackgroundColor=#ffffff;" parent="3oPoWGQy6z454e4XhpnZ-50" vertex="1" connectable="0">
          <mxGeometry x="-0.3043" y="-1" relative="1" as="geometry">
            <mxPoint as="offset" />
          </mxGeometry>
        </mxCell>
        <mxCell id="3oPoWGQy6z454e4XhpnZ-52" value="1..*" style="text;html=1;align=center;verticalAlign=middle;resizable=0;points=[];labelBackgroundColor=#ffffff;" parent="3oPoWGQy6z454e4XhpnZ-50" vertex="1" connectable="0">
          <mxGeometry x="0.9353" y="1" relative="1" as="geometry">
            <mxPoint as="offset" />
          </mxGeometry>
        </mxCell>
        <mxCell id="3oPoWGQy6z454e4XhpnZ-53" value="0..*" style="text;html=1;align=center;verticalAlign=middle;resizable=0;points=[];labelBackgroundColor=#ffffff;" parent="3oPoWGQy6z454e4XhpnZ-50" vertex="1" connectable="0">
          <mxGeometry x="-0.9368" y="1" relative="1" as="geometry">
            <mxPoint x="7.0600000000000005" as="offset" />
          </mxGeometry>
        </mxCell>
        <mxCell id="3oPoWGQy6z454e4XhpnZ-54" style="edgeStyle=elbowEdgeStyle;rounded=0;orthogonalLoop=1;jettySize=auto;html=1;endArrow=none;endFill=0;" parent="1" source="3oPoWGQy6z454e4XhpnZ-21" target="3oPoWGQy6z454e4XhpnZ-13" edge="1" treatAsSingle="0">
          <mxGeometry relative="1" as="geometry">
            <Array as="points">
              <mxPoint x="284" y="-572" />
              <mxPoint x="284" y="-672" />
            </Array>
            <mxPoint x="344" y="-582" as="sourcePoint" />
            <mxPoint x="234" y="-708.06" as="targetPoint" />
          </mxGeometry>
        </mxCell>
        <mxCell id="3oPoWGQy6z454e4XhpnZ-55" value="0..*" style="text;html=1;align=center;verticalAlign=middle;resizable=0;points=[];labelBackgroundColor=#ffffff;" parent="3oPoWGQy6z454e4XhpnZ-54" vertex="1" connectable="0">
          <mxGeometry x="0.8075" relative="1" as="geometry">
            <mxPoint as="offset" />
          </mxGeometry>
        </mxCell>
        <mxCell id="3oPoWGQy6z454e4XhpnZ-56" value="0..*" style="text;html=1;align=center;verticalAlign=middle;resizable=0;points=[];labelBackgroundColor=#ffffff;" parent="3oPoWGQy6z454e4XhpnZ-54" vertex="1" connectable="0">
          <mxGeometry x="-0.9203" relative="1" as="geometry">
            <mxPoint x="-11.67" as="offset" />
          </mxGeometry>
        </mxCell>
        <mxCell id="3oPoWGQy6z454e4XhpnZ-57" style="edgeStyle=elbowEdgeStyle;rounded=0;orthogonalLoop=1;jettySize=auto;html=1;endArrow=none;endFill=0;" parent="1" source="3oPoWGQy6z454e4XhpnZ-21" target="3oPoWGQy6z454e4XhpnZ-14" edge="1" treatAsSingle="0">
          <mxGeometry relative="1" as="geometry">
            <Array as="points">
              <mxPoint x="554" y="-572" />
              <mxPoint x="554" y="-672" />
              <mxPoint x="544" y="-572" />
              <mxPoint x="564" y="-672" />
            </Array>
            <mxPoint x="344" y="-559.5" as="sourcePoint" />
            <mxPoint x="294" y="-720.0600000000002" as="targetPoint" />
          </mxGeometry>
        </mxCell>
        <mxCell id="3oPoWGQy6z454e4XhpnZ-58" value="0..*" style="text;html=1;align=center;verticalAlign=middle;resizable=0;points=[];labelBackgroundColor=#ffffff;" parent="3oPoWGQy6z454e4XhpnZ-57" vertex="1" connectable="0">
          <mxGeometry x="0.8075" relative="1" as="geometry">
            <mxPoint as="offset" />
          </mxGeometry>
        </mxCell>
        <mxCell id="3oPoWGQy6z454e4XhpnZ-59" value="0..*" style="text;html=1;align=center;verticalAlign=middle;resizable=0;points=[];labelBackgroundColor=#ffffff;" parent="3oPoWGQy6z454e4XhpnZ-57" vertex="1" connectable="0">
          <mxGeometry x="-0.9203" relative="1" as="geometry">
            <mxPoint x="11.67" as="offset" />
          </mxGeometry>
        </mxCell>
        <mxCell id="3oPoWGQy6z454e4XhpnZ-60" style="edgeStyle=orthogonalEdgeStyle;rounded=0;orthogonalLoop=1;jettySize=auto;html=1;endArrow=none;endFill=0;" parent="1" source="3oPoWGQy6z454e4XhpnZ-21" target="3oPoWGQy6z454e4XhpnZ-20" edge="1" treatAsSingle="0">
          <mxGeometry relative="1" as="geometry">
            <mxPoint x="-506" y="-602" as="sourcePoint" />
            <mxPoint x="-506" y="-682" as="targetPoint" />
          </mxGeometry>
        </mxCell>
        <mxCell id="3oPoWGQy6z454e4XhpnZ-61" value="1" style="text;html=1;align=center;verticalAlign=middle;resizable=0;points=[];labelBackgroundColor=#ffffff;" parent="3oPoWGQy6z454e4XhpnZ-60" vertex="1" connectable="0">
          <mxGeometry x="-0.6052" y="-3" relative="1" as="geometry">
            <mxPoint x="-3" as="offset" />
          </mxGeometry>
        </mxCell>
        <mxCell id="3oPoWGQy6z454e4XhpnZ-62" value="0..*" style="text;html=1;align=center;verticalAlign=middle;resizable=0;points=[];labelBackgroundColor=#ffffff;" parent="3oPoWGQy6z454e4XhpnZ-60" vertex="1" connectable="0">
          <mxGeometry x="0.5912" y="-1" relative="1" as="geometry">
            <mxPoint as="offset" />
          </mxGeometry>
        </mxCell>
        <mxCell id="3oPoWGQy6z454e4XhpnZ-63" style="edgeStyle=orthogonalEdgeStyle;rounded=0;orthogonalLoop=1;jettySize=auto;html=1;dashed=1;endArrow=block;endFill=0;" parent="1" source="3oPoWGQy6z454e4XhpnZ-5" target="3oPoWGQy6z454e4XhpnZ-31" edge="1">
          <mxGeometry relative="1" as="geometry">
            <Array as="points" />
            <mxPoint x="454" y="-993" as="sourcePoint" />
            <mxPoint x="-336" y="-975" as="targetPoint" />
          </mxGeometry>
        </mxCell>
        <mxCell id="3oPoWGQy6z454e4XhpnZ-64" value="1" style="edgeStyle=orthogonalEdgeStyle;rounded=0;orthogonalLoop=1;jettySize=auto;html=1;endArrow=none;endFill=0;" parent="1" source="3oPoWGQy6z454e4XhpnZ-11" target="3oPoWGQy6z454e4XhpnZ-5" edge="1" treatAsSingle="0">
          <mxGeometry x="-0.6154" relative="1" as="geometry">
            <mxPoint y="-1" as="offset" />
            <mxPoint x="-506" y="-882" as="sourcePoint" />
            <mxPoint x="-506" y="-958" as="targetPoint" />
          </mxGeometry>
        </mxCell>
        <mxCell id="3oPoWGQy6z454e4XhpnZ-65" value="1..4" style="text;html=1;align=center;verticalAlign=middle;resizable=0;points=[];labelBackgroundColor=#ffffff;" parent="3oPoWGQy6z454e4XhpnZ-64" vertex="1" connectable="0">
          <mxGeometry x="0.8032" y="1" relative="1" as="geometry">
            <mxPoint x="1" y="9.06" as="offset" />
          </mxGeometry>
        </mxCell>
        <mxCell id="3oPoWGQy6z454e4XhpnZ-66" style="edgeStyle=orthogonalEdgeStyle;rounded=0;orthogonalLoop=1;jettySize=auto;html=1;dashed=1;endArrow=block;endFill=0;exitX=1;exitY=0.75;exitDx=0;exitDy=0;" parent="1" source="3oPoWGQy6z454e4XhpnZ-21" target="3oPoWGQy6z454e4XhpnZ-30" edge="1">
          <mxGeometry relative="1" as="geometry">
            <Array as="points" />
            <mxPoint x="484" y="-983" as="sourcePoint" />
            <mxPoint x="674" y="-983" as="targetPoint" />
          </mxGeometry>
        </mxCell>
      </root>
    </mxGraphModel>
  </diagram>
  <diagram id="34RCKyku898OAkQptd6Z" name="invite_only_use_case">
    <mxGraphModel dx="1773" dy="614" grid="1" gridSize="10" guides="1" tooltips="1" connect="1" arrows="1" fold="1" page="1" pageScale="1" pageWidth="827" pageHeight="1169" math="0" shadow="0">
      <root>
        <mxCell id="-zf_CSyAqeYTEmltiVzg-0" />
        <mxCell id="-zf_CSyAqeYTEmltiVzg-1" parent="-zf_CSyAqeYTEmltiVzg-0" />
        <mxCell id="-zf_CSyAqeYTEmltiVzg-2" value="&quot;Invite Only&quot; App" style="shape=umlFrame;whiteSpace=wrap;html=1;width=120;height=30;" parent="-zf_CSyAqeYTEmltiVzg-1" vertex="1">
          <mxGeometry x="-583" y="190" width="340" height="670" as="geometry" />
        </mxCell>
        <mxCell id="-zf_CSyAqeYTEmltiVzg-3" value="U2.&lt;br&gt;Manage Access-controlled Space" style="ellipse;whiteSpace=wrap;html=1;" parent="-zf_CSyAqeYTEmltiVzg-1" vertex="1">
          <mxGeometry x="-483" y="330" width="140" height="70" as="geometry" />
        </mxCell>
        <mxCell id="-zf_CSyAqeYTEmltiVzg-4" style="edgeStyle=orthogonalEdgeStyle;rounded=0;orthogonalLoop=1;jettySize=auto;html=1;endArrow=block;endFill=1;" parent="-zf_CSyAqeYTEmltiVzg-1" source="-zf_CSyAqeYTEmltiVzg-7" target="-zf_CSyAqeYTEmltiVzg-27" edge="1">
          <mxGeometry relative="1" as="geometry" />
        </mxCell>
        <mxCell id="-zf_CSyAqeYTEmltiVzg-5" style="edgeStyle=elbowEdgeStyle;rounded=0;orthogonalLoop=1;jettySize=auto;html=1;" parent="-zf_CSyAqeYTEmltiVzg-1" source="-zf_CSyAqeYTEmltiVzg-7" target="-zf_CSyAqeYTEmltiVzg-31" edge="1">
          <mxGeometry relative="1" as="geometry">
            <Array as="points">
              <mxPoint x="-673" y="431" />
              <mxPoint x="-663" y="365" />
            </Array>
          </mxGeometry>
        </mxCell>
        <mxCell id="-zf_CSyAqeYTEmltiVzg-6" style="rounded=0;orthogonalLoop=1;jettySize=auto;html=1;" parent="-zf_CSyAqeYTEmltiVzg-1" source="-zf_CSyAqeYTEmltiVzg-7" target="-zf_CSyAqeYTEmltiVzg-3" edge="1">
          <mxGeometry relative="1" as="geometry" />
        </mxCell>
        <mxCell id="-zf_CSyAqeYTEmltiVzg-7" value="Manager" style="shape=umlActor;verticalLabelPosition=bottom;labelBackgroundColor=#ffffff;verticalAlign=top;html=1;" parent="-zf_CSyAqeYTEmltiVzg-1" vertex="1">
          <mxGeometry x="-653" y="445" width="30" height="60" as="geometry" />
        </mxCell>
        <mxCell id="-zf_CSyAqeYTEmltiVzg-8" style="edgeStyle=orthogonalEdgeStyle;rounded=0;orthogonalLoop=1;jettySize=auto;html=1;endArrow=block;endFill=1;" parent="-zf_CSyAqeYTEmltiVzg-1" source="-zf_CSyAqeYTEmltiVzg-10" target="-zf_CSyAqeYTEmltiVzg-28" edge="1">
          <mxGeometry relative="1" as="geometry" />
        </mxCell>
        <mxCell id="-zf_CSyAqeYTEmltiVzg-9" style="edgeStyle=elbowEdgeStyle;rounded=0;orthogonalLoop=1;jettySize=auto;html=1;" parent="-zf_CSyAqeYTEmltiVzg-1" source="-zf_CSyAqeYTEmltiVzg-10" target="-zf_CSyAqeYTEmltiVzg-31" edge="1">
          <mxGeometry relative="1" as="geometry">
            <Array as="points">
              <mxPoint x="-673" y="431" />
              <mxPoint x="-663" y="431" />
            </Array>
          </mxGeometry>
        </mxCell>
        <mxCell id="-zf_CSyAqeYTEmltiVzg-10" value="Guard" style="shape=umlActor;verticalLabelPosition=bottom;labelBackgroundColor=#ffffff;verticalAlign=top;html=1;" parent="-zf_CSyAqeYTEmltiVzg-1" vertex="1">
          <mxGeometry x="-653" y="555" width="30" height="60" as="geometry" />
        </mxCell>
        <mxCell id="-zf_CSyAqeYTEmltiVzg-11" style="edgeStyle=orthogonalEdgeStyle;rounded=0;orthogonalLoop=1;jettySize=auto;html=1;endArrow=block;endFill=1;" parent="-zf_CSyAqeYTEmltiVzg-1" source="-zf_CSyAqeYTEmltiVzg-13" target="-zf_CSyAqeYTEmltiVzg-30" edge="1">
          <mxGeometry relative="1" as="geometry" />
        </mxCell>
        <mxCell id="-zf_CSyAqeYTEmltiVzg-12" style="edgeStyle=elbowEdgeStyle;rounded=0;orthogonalLoop=1;jettySize=auto;html=1;" parent="-zf_CSyAqeYTEmltiVzg-1" source="-zf_CSyAqeYTEmltiVzg-13" target="-zf_CSyAqeYTEmltiVzg-31" edge="1">
          <mxGeometry relative="1" as="geometry">
            <Array as="points">
              <mxPoint x="-673" y="441" />
            </Array>
          </mxGeometry>
        </mxCell>
        <mxCell id="-zf_CSyAqeYTEmltiVzg-13" value="Inviter" style="shape=umlActor;verticalLabelPosition=bottom;labelBackgroundColor=#ffffff;verticalAlign=top;html=1;" parent="-zf_CSyAqeYTEmltiVzg-1" vertex="1">
          <mxGeometry x="-653" y="775" width="30" height="60" as="geometry" />
        </mxCell>
        <mxCell id="-zf_CSyAqeYTEmltiVzg-14" style="edgeStyle=orthogonalEdgeStyle;rounded=0;orthogonalLoop=1;jettySize=auto;html=1;endArrow=block;endFill=1;" parent="-zf_CSyAqeYTEmltiVzg-1" source="-zf_CSyAqeYTEmltiVzg-16" target="-zf_CSyAqeYTEmltiVzg-29" edge="1">
          <mxGeometry relative="1" as="geometry" />
        </mxCell>
        <mxCell id="-zf_CSyAqeYTEmltiVzg-15" style="edgeStyle=elbowEdgeStyle;rounded=0;orthogonalLoop=1;jettySize=auto;html=1;endArrow=block;endFill=1;" parent="-zf_CSyAqeYTEmltiVzg-1" source="-zf_CSyAqeYTEmltiVzg-16" target="-zf_CSyAqeYTEmltiVzg-31" edge="1">
          <mxGeometry relative="1" as="geometry">
            <Array as="points">
              <mxPoint x="-673" y="421" />
            </Array>
          </mxGeometry>
        </mxCell>
        <mxCell id="-zf_CSyAqeYTEmltiVzg-16" value="Invitee" style="shape=umlActor;verticalLabelPosition=bottom;labelBackgroundColor=#ffffff;verticalAlign=top;html=1;" parent="-zf_CSyAqeYTEmltiVzg-1" vertex="1">
          <mxGeometry x="-653" y="665" width="30" height="60" as="geometry" />
        </mxCell>
        <mxCell id="-zf_CSyAqeYTEmltiVzg-17" style="edgeStyle=orthogonalEdgeStyle;rounded=0;orthogonalLoop=1;jettySize=auto;html=1;endArrow=block;endFill=1;" parent="-zf_CSyAqeYTEmltiVzg-1" source="-zf_CSyAqeYTEmltiVzg-18" target="-zf_CSyAqeYTEmltiVzg-31" edge="1">
          <mxGeometry relative="1" as="geometry" />
        </mxCell>
        <mxCell id="-zf_CSyAqeYTEmltiVzg-18" value="User Library" style="shape=umlActor;verticalLabelPosition=bottom;labelBackgroundColor=#ffffff;verticalAlign=top;html=1;" parent="-zf_CSyAqeYTEmltiVzg-1" vertex="1">
          <mxGeometry x="-183" y="225" width="30" height="60" as="geometry" />
        </mxCell>
        <mxCell id="-zf_CSyAqeYTEmltiVzg-19" style="edgeStyle=orthogonalEdgeStyle;rounded=0;orthogonalLoop=1;jettySize=auto;html=1;endArrow=block;endFill=1;" parent="-zf_CSyAqeYTEmltiVzg-1" source="-zf_CSyAqeYTEmltiVzg-21" target="-zf_CSyAqeYTEmltiVzg-28" edge="1">
          <mxGeometry relative="1" as="geometry" />
        </mxCell>
        <mxCell id="-zf_CSyAqeYTEmltiVzg-20" style="edgeStyle=none;rounded=0;orthogonalLoop=1;jettySize=auto;html=1;" parent="-zf_CSyAqeYTEmltiVzg-1" source="-zf_CSyAqeYTEmltiVzg-21" target="-zf_CSyAqeYTEmltiVzg-27" edge="1">
          <mxGeometry relative="1" as="geometry" />
        </mxCell>
        <mxCell id="-zf_CSyAqeYTEmltiVzg-21" value="Access Library" style="shape=umlActor;verticalLabelPosition=bottom;labelBackgroundColor=#ffffff;verticalAlign=top;html=1;" parent="-zf_CSyAqeYTEmltiVzg-1" vertex="1">
          <mxGeometry x="-183" y="555" width="30" height="60" as="geometry" />
        </mxCell>
        <mxCell id="-zf_CSyAqeYTEmltiVzg-22" style="edgeStyle=none;rounded=0;orthogonalLoop=1;jettySize=auto;html=1;" parent="-zf_CSyAqeYTEmltiVzg-1" source="-zf_CSyAqeYTEmltiVzg-23" target="-zf_CSyAqeYTEmltiVzg-3" edge="1">
          <mxGeometry relative="1" as="geometry" />
        </mxCell>
        <mxCell id="-zf_CSyAqeYTEmltiVzg-23" value="Space Library" style="shape=umlActor;verticalLabelPosition=bottom;labelBackgroundColor=#ffffff;verticalAlign=top;html=1;" parent="-zf_CSyAqeYTEmltiVzg-1" vertex="1">
          <mxGeometry x="-183" y="335" width="30" height="60" as="geometry" />
        </mxCell>
        <mxCell id="-zf_CSyAqeYTEmltiVzg-24" style="edgeStyle=orthogonalEdgeStyle;rounded=0;orthogonalLoop=1;jettySize=auto;html=1;endArrow=block;endFill=1;" parent="-zf_CSyAqeYTEmltiVzg-1" source="-zf_CSyAqeYTEmltiVzg-26" target="-zf_CSyAqeYTEmltiVzg-29" edge="1">
          <mxGeometry relative="1" as="geometry" />
        </mxCell>
        <mxCell id="-zf_CSyAqeYTEmltiVzg-25" style="rounded=0;orthogonalLoop=1;jettySize=auto;html=1;endArrow=block;endFill=1;" parent="-zf_CSyAqeYTEmltiVzg-1" source="-zf_CSyAqeYTEmltiVzg-26" target="-zf_CSyAqeYTEmltiVzg-30" edge="1">
          <mxGeometry relative="1" as="geometry" />
        </mxCell>
        <mxCell id="-zf_CSyAqeYTEmltiVzg-26" value="Invite Library" style="shape=umlActor;verticalLabelPosition=bottom;labelBackgroundColor=#ffffff;verticalAlign=top;html=1;" parent="-zf_CSyAqeYTEmltiVzg-1" vertex="1">
          <mxGeometry x="-183" y="665" width="30" height="60" as="geometry" />
        </mxCell>
        <mxCell id="-zf_CSyAqeYTEmltiVzg-27" value="U3.&lt;br&gt;View Access History for Space" style="ellipse;whiteSpace=wrap;html=1;" parent="-zf_CSyAqeYTEmltiVzg-1" vertex="1">
          <mxGeometry x="-483" y="440" width="140" height="70" as="geometry" />
        </mxCell>
        <mxCell id="-zf_CSyAqeYTEmltiVzg-28" value="U4.&lt;br&gt;Allow/Deny Access" style="ellipse;whiteSpace=wrap;html=1;" parent="-zf_CSyAqeYTEmltiVzg-1" vertex="1">
          <mxGeometry x="-483" y="550" width="140" height="70" as="geometry" />
        </mxCell>
        <mxCell id="-zf_CSyAqeYTEmltiVzg-29" value="U5.&lt;br&gt;Create Invite Code" style="ellipse;whiteSpace=wrap;html=1;" parent="-zf_CSyAqeYTEmltiVzg-1" vertex="1">
          <mxGeometry x="-483" y="660" width="140" height="70" as="geometry" />
        </mxCell>
        <mxCell id="-zf_CSyAqeYTEmltiVzg-30" value="U6.&lt;br&gt;Submit Invite Code" style="ellipse;whiteSpace=wrap;html=1;" parent="-zf_CSyAqeYTEmltiVzg-1" vertex="1">
          <mxGeometry x="-483" y="770" width="140" height="70" as="geometry" />
        </mxCell>
        <mxCell id="-zf_CSyAqeYTEmltiVzg-31" value="U1.&lt;br&gt;Manage User Profile" style="ellipse;whiteSpace=wrap;html=1;" parent="-zf_CSyAqeYTEmltiVzg-1" vertex="1">
          <mxGeometry x="-483" y="220" width="140" height="70" as="geometry" />
        </mxCell>
      </root>
    </mxGraphModel>
  </diagram>
  <diagram id="_jLLJJXLnGuINYeTaKHw" name="user_library_use_case">
    <mxGraphModel dx="3427" dy="1783" grid="1" gridSize="10" guides="1" tooltips="1" connect="1" arrows="1" fold="1" page="1" pageScale="1" pageWidth="827" pageHeight="1169" math="0" shadow="0">
      <root>
        <mxCell id="KEFcjVwRy5Nl16_dbJpy-0" />
        <mxCell id="KEFcjVwRy5Nl16_dbJpy-1" parent="KEFcjVwRy5Nl16_dbJpy-0" />
        <mxCell id="KEFcjVwRy5Nl16_dbJpy-2" value="User Library" style="shape=umlFrame;whiteSpace=wrap;html=1;width=120;height=30;" parent="KEFcjVwRy5Nl16_dbJpy-1" vertex="1">
          <mxGeometry x="-1990" y="-720" width="740" height="351" as="geometry" />
        </mxCell>
        <mxCell id="KEFcjVwRy5Nl16_dbJpy-3" style="rounded=0;orthogonalLoop=1;jettySize=auto;html=1;dashed=1;endArrow=open;endFill=0;" parent="KEFcjVwRy5Nl16_dbJpy-1" source="KEFcjVwRy5Nl16_dbJpy-5" target="KEFcjVwRy5Nl16_dbJpy-12" edge="1" treatAsSingle="0">
          <mxGeometry relative="1" as="geometry" />
        </mxCell>
        <mxCell id="KEFcjVwRy5Nl16_dbJpy-4" value="&amp;lt;&amp;lt; include &amp;gt;&amp;gt;" style="text;html=1;align=center;verticalAlign=middle;resizable=0;points=[];labelBackgroundColor=#ffffff;" parent="KEFcjVwRy5Nl16_dbJpy-3" vertex="1" connectable="0">
          <mxGeometry x="-0.0171" relative="1" as="geometry">
            <mxPoint as="offset" />
          </mxGeometry>
        </mxCell>
        <mxCell id="KEFcjVwRy5Nl16_dbJpy-5" value="U1.&lt;br&gt;Manage User Profile" style="ellipse;whiteSpace=wrap;html=1;" parent="KEFcjVwRy5Nl16_dbJpy-1" vertex="1">
          <mxGeometry x="-1950" y="-570" width="140" height="70" as="geometry" />
        </mxCell>
        <mxCell id="KEFcjVwRy5Nl16_dbJpy-6" style="edgeStyle=none;rounded=0;orthogonalLoop=1;jettySize=auto;html=1;dashed=1;endArrow=open;endFill=0;" parent="KEFcjVwRy5Nl16_dbJpy-1" source="KEFcjVwRy5Nl16_dbJpy-9" target="KEFcjVwRy5Nl16_dbJpy-5" edge="1" treatAsSingle="0">
          <mxGeometry relative="1" as="geometry" />
        </mxCell>
        <mxCell id="KEFcjVwRy5Nl16_dbJpy-7" value="&amp;lt;&amp;lt; extend &amp;gt;&amp;gt;" style="text;html=1;align=center;verticalAlign=middle;resizable=0;points=[];labelBackgroundColor=#ffffff;" parent="KEFcjVwRy5Nl16_dbJpy-6" vertex="1" connectable="0">
          <mxGeometry x="-0.0166" relative="1" as="geometry">
            <mxPoint as="offset" />
          </mxGeometry>
        </mxCell>
        <mxCell id="KEFcjVwRy5Nl16_dbJpy-8" value="&amp;lt;&amp;lt; include &amp;gt;&amp;gt;" style="edgeStyle=none;rounded=0;orthogonalLoop=1;jettySize=auto;html=1;dashed=1;endArrow=open;endFill=0;" parent="KEFcjVwRy5Nl16_dbJpy-1" source="KEFcjVwRy5Nl16_dbJpy-9" target="KEFcjVwRy5Nl16_dbJpy-13" edge="1">
          <mxGeometry relative="1" as="geometry" />
        </mxCell>
        <mxCell id="KEFcjVwRy5Nl16_dbJpy-9" value="U1.2.&lt;br&gt;Link Identification Document" style="ellipse;whiteSpace=wrap;html=1;" parent="KEFcjVwRy5Nl16_dbJpy-1" vertex="1">
          <mxGeometry x="-1690" y="-570.5" width="140" height="70" as="geometry" />
        </mxCell>
        <mxCell id="KEFcjVwRy5Nl16_dbJpy-10" value="&amp;lt;&amp;lt; extend &amp;gt;&amp;gt;" style="edgeStyle=none;rounded=0;orthogonalLoop=1;jettySize=auto;html=1;dashed=1;endArrow=open;endFill=0;" parent="KEFcjVwRy5Nl16_dbJpy-1" source="KEFcjVwRy5Nl16_dbJpy-11" target="KEFcjVwRy5Nl16_dbJpy-5" edge="1">
          <mxGeometry relative="1" as="geometry" />
        </mxCell>
        <mxCell id="KEFcjVwRy5Nl16_dbJpy-11" value="U1.3.&lt;br&gt;Delete all user Information" style="ellipse;whiteSpace=wrap;html=1;" parent="KEFcjVwRy5Nl16_dbJpy-1" vertex="1">
          <mxGeometry x="-1690" y="-460" width="140" height="70" as="geometry" />
        </mxCell>
        <mxCell id="KEFcjVwRy5Nl16_dbJpy-12" value="U1.1.&lt;br&gt;Authenticate User" style="ellipse;whiteSpace=wrap;html=1;" parent="KEFcjVwRy5Nl16_dbJpy-1" vertex="1">
          <mxGeometry x="-1690" y="-680" width="140" height="70" as="geometry" />
        </mxCell>
        <mxCell id="KEFcjVwRy5Nl16_dbJpy-13" value="U1.2.1&lt;br&gt;Scan Identification Document" style="ellipse;whiteSpace=wrap;html=1;" parent="KEFcjVwRy5Nl16_dbJpy-1" vertex="1">
          <mxGeometry x="-1430" y="-570" width="140" height="70" as="geometry" />
        </mxCell>
        <mxCell id="KEFcjVwRy5Nl16_dbJpy-14" style="edgeStyle=none;rounded=0;orthogonalLoop=1;jettySize=auto;html=1;endArrow=block;endFill=1;" parent="KEFcjVwRy5Nl16_dbJpy-1" source="KEFcjVwRy5Nl16_dbJpy-15" target="KEFcjVwRy5Nl16_dbJpy-5" edge="1">
          <mxGeometry relative="1" as="geometry" />
        </mxCell>
        <mxCell id="KEFcjVwRy5Nl16_dbJpy-15" value="Manager" style="shape=umlActor;verticalLabelPosition=bottom;labelBackgroundColor=#ffffff;verticalAlign=top;html=1;" parent="KEFcjVwRy5Nl16_dbJpy-1" vertex="1">
          <mxGeometry x="-2060" y="-730" width="30" height="60" as="geometry" />
        </mxCell>
        <mxCell id="KEFcjVwRy5Nl16_dbJpy-16" style="rounded=0;orthogonalLoop=1;jettySize=auto;html=1;endArrow=block;endFill=1;" parent="KEFcjVwRy5Nl16_dbJpy-1" source="KEFcjVwRy5Nl16_dbJpy-17" target="KEFcjVwRy5Nl16_dbJpy-5" edge="1">
          <mxGeometry relative="1" as="geometry" />
        </mxCell>
        <mxCell id="KEFcjVwRy5Nl16_dbJpy-17" value="Guard" style="shape=umlActor;verticalLabelPosition=bottom;labelBackgroundColor=#ffffff;verticalAlign=top;html=1;" parent="KEFcjVwRy5Nl16_dbJpy-1" vertex="1">
          <mxGeometry x="-2060" y="-620" width="30" height="60" as="geometry" />
        </mxCell>
        <mxCell id="KEFcjVwRy5Nl16_dbJpy-18" style="edgeStyle=none;rounded=0;orthogonalLoop=1;jettySize=auto;html=1;endArrow=block;endFill=1;" parent="KEFcjVwRy5Nl16_dbJpy-1" source="KEFcjVwRy5Nl16_dbJpy-19" target="KEFcjVwRy5Nl16_dbJpy-5" edge="1">
          <mxGeometry relative="1" as="geometry" />
        </mxCell>
        <mxCell id="KEFcjVwRy5Nl16_dbJpy-19" value="Inviter" style="shape=umlActor;verticalLabelPosition=bottom;labelBackgroundColor=#ffffff;verticalAlign=top;html=1;" parent="KEFcjVwRy5Nl16_dbJpy-1" vertex="1">
          <mxGeometry x="-2060" y="-400" width="30" height="60" as="geometry" />
        </mxCell>
        <mxCell id="KEFcjVwRy5Nl16_dbJpy-20" style="edgeStyle=none;rounded=0;orthogonalLoop=1;jettySize=auto;html=1;endArrow=block;endFill=1;" parent="KEFcjVwRy5Nl16_dbJpy-1" source="KEFcjVwRy5Nl16_dbJpy-21" target="KEFcjVwRy5Nl16_dbJpy-5" edge="1">
          <mxGeometry relative="1" as="geometry" />
        </mxCell>
        <mxCell id="KEFcjVwRy5Nl16_dbJpy-21" value="Invitee" style="shape=umlActor;verticalLabelPosition=bottom;labelBackgroundColor=#ffffff;verticalAlign=top;html=1;" parent="KEFcjVwRy5Nl16_dbJpy-1" vertex="1">
          <mxGeometry x="-2060" y="-510" width="30" height="60" as="geometry" />
        </mxCell>
      </root>
    </mxGraphModel>
  </diagram>
  <diagram id="MjQqldhmBQ1FE-wvruJs" name="space_library_use_case">
    <mxGraphModel dx="5081" dy="1783" grid="1" gridSize="10" guides="1" tooltips="1" connect="1" arrows="1" fold="1" page="1" pageScale="1" pageWidth="827" pageHeight="1169" math="0" shadow="0">
      <root>
        <mxCell id="Ln3O_dBmDGcdITZJAl1Y-0" />
        <mxCell id="Ln3O_dBmDGcdITZJAl1Y-1" parent="Ln3O_dBmDGcdITZJAl1Y-0" />
        <mxCell id="Ln3O_dBmDGcdITZJAl1Y-2" value="Space Library" style="shape=umlFrame;whiteSpace=wrap;html=1;width=120;height=30;" parent="Ln3O_dBmDGcdITZJAl1Y-1" vertex="1">
          <mxGeometry x="-3660" y="-760" width="740" height="351" as="geometry" />
        </mxCell>
        <mxCell id="Ln3O_dBmDGcdITZJAl1Y-3" value="U2.&lt;br&gt;Manage Access-controlled Space" style="ellipse;whiteSpace=wrap;html=1;" parent="Ln3O_dBmDGcdITZJAl1Y-1" vertex="1">
          <mxGeometry x="-3620" y="-610" width="140" height="70" as="geometry" />
        </mxCell>
        <mxCell id="Ln3O_dBmDGcdITZJAl1Y-4" style="edgeStyle=orthogonalEdgeStyle;rounded=0;orthogonalLoop=1;jettySize=auto;html=1;endArrow=block;endFill=1;" parent="Ln3O_dBmDGcdITZJAl1Y-1" source="Ln3O_dBmDGcdITZJAl1Y-5" target="Ln3O_dBmDGcdITZJAl1Y-3" edge="1">
          <mxGeometry relative="1" as="geometry">
            <mxPoint x="-3560" y="-575" as="targetPoint" />
          </mxGeometry>
        </mxCell>
        <mxCell id="Ln3O_dBmDGcdITZJAl1Y-5" value="Manager" style="shape=umlActor;verticalLabelPosition=bottom;labelBackgroundColor=#ffffff;verticalAlign=top;html=1;" parent="Ln3O_dBmDGcdITZJAl1Y-1" vertex="1">
          <mxGeometry x="-3730" y="-605" width="30" height="60" as="geometry" />
        </mxCell>
        <mxCell id="Ln3O_dBmDGcdITZJAl1Y-6" style="edgeStyle=none;rounded=0;orthogonalLoop=1;jettySize=auto;html=1;dashed=1;endArrow=open;endFill=0;" parent="Ln3O_dBmDGcdITZJAl1Y-1" source="Ln3O_dBmDGcdITZJAl1Y-8" target="Ln3O_dBmDGcdITZJAl1Y-3" edge="1" treatAsSingle="0">
          <mxGeometry relative="1" as="geometry" />
        </mxCell>
        <mxCell id="Ln3O_dBmDGcdITZJAl1Y-7" value="&amp;lt;&amp;lt; extend &amp;gt;&amp;gt;" style="text;html=1;align=center;verticalAlign=middle;resizable=0;points=[];labelBackgroundColor=#ffffff;" parent="Ln3O_dBmDGcdITZJAl1Y-6" vertex="1" connectable="0">
          <mxGeometry x="-0.0166" relative="1" as="geometry">
            <mxPoint as="offset" />
          </mxGeometry>
        </mxCell>
        <mxCell id="Ln3O_dBmDGcdITZJAl1Y-8" value="U2.2.&lt;br&gt;Set Access Constraints" style="ellipse;whiteSpace=wrap;html=1;" parent="Ln3O_dBmDGcdITZJAl1Y-1" vertex="1">
          <mxGeometry x="-3360" y="-610.5" width="140" height="70" as="geometry" />
        </mxCell>
        <mxCell id="Ln3O_dBmDGcdITZJAl1Y-9" value="&amp;lt;&amp;lt; extend &amp;gt;&amp;gt;" style="edgeStyle=none;rounded=0;orthogonalLoop=1;jettySize=auto;html=1;dashed=1;endArrow=open;endFill=0;" parent="Ln3O_dBmDGcdITZJAl1Y-1" source="Ln3O_dBmDGcdITZJAl1Y-10" target="Ln3O_dBmDGcdITZJAl1Y-3" edge="1">
          <mxGeometry relative="1" as="geometry" />
        </mxCell>
        <mxCell id="Ln3O_dBmDGcdITZJAl1Y-10" value="U2.3.&lt;br&gt;Delete Access-Controlled Space" style="ellipse;whiteSpace=wrap;html=1;" parent="Ln3O_dBmDGcdITZJAl1Y-1" vertex="1">
          <mxGeometry x="-3620" y="-500" width="140" height="70" as="geometry" />
        </mxCell>
        <mxCell id="Ln3O_dBmDGcdITZJAl1Y-11" value="U2.2.2&lt;br&gt;Set as &quot;Invite Only&quot;" style="ellipse;whiteSpace=wrap;html=1;" parent="Ln3O_dBmDGcdITZJAl1Y-1" vertex="1">
          <mxGeometry x="-3100" y="-610" width="140" height="70" as="geometry" />
        </mxCell>
        <mxCell id="Ln3O_dBmDGcdITZJAl1Y-12" value="&amp;lt;&amp;lt; extend &amp;gt;&amp;gt;" style="edgeStyle=none;rounded=0;orthogonalLoop=1;jettySize=auto;html=1;dashed=1;endArrow=open;endFill=0;" parent="Ln3O_dBmDGcdITZJAl1Y-1" source="Ln3O_dBmDGcdITZJAl1Y-13" target="Ln3O_dBmDGcdITZJAl1Y-8" edge="1">
          <mxGeometry relative="1" as="geometry" />
        </mxCell>
        <mxCell id="Ln3O_dBmDGcdITZJAl1Y-13" value="U2.2.1&lt;br&gt;Set Age Restriction" style="ellipse;whiteSpace=wrap;html=1;" parent="Ln3O_dBmDGcdITZJAl1Y-1" vertex="1">
          <mxGeometry x="-3100" y="-720" width="140" height="70" as="geometry" />
        </mxCell>
        <mxCell id="Ln3O_dBmDGcdITZJAl1Y-14" value="U2.2.3&lt;br&gt;Set Max People&lt;br&gt;Allowed" style="ellipse;whiteSpace=wrap;html=1;" parent="Ln3O_dBmDGcdITZJAl1Y-1" vertex="1">
          <mxGeometry x="-3100" y="-500" width="140" height="70" as="geometry" />
        </mxCell>
        <mxCell id="Ln3O_dBmDGcdITZJAl1Y-15" value="&amp;lt;&amp;lt; extend &amp;gt;&amp;gt;" style="edgeStyle=none;rounded=0;orthogonalLoop=1;jettySize=auto;html=1;dashed=1;endArrow=open;endFill=0;" parent="Ln3O_dBmDGcdITZJAl1Y-1" source="Ln3O_dBmDGcdITZJAl1Y-11" target="Ln3O_dBmDGcdITZJAl1Y-8" edge="1">
          <mxGeometry relative="1" as="geometry">
            <mxPoint x="-3073.5437838681914" y="-652.4552488976037" as="sourcePoint" />
            <mxPoint x="-3226.3938906455805" y="-588.0076933507339" as="targetPoint" />
          </mxGeometry>
        </mxCell>
        <mxCell id="Ln3O_dBmDGcdITZJAl1Y-16" value="&amp;lt;&amp;lt; extend &amp;gt;&amp;gt;" style="edgeStyle=none;rounded=0;orthogonalLoop=1;jettySize=auto;html=1;dashed=1;endArrow=open;endFill=0;" parent="Ln3O_dBmDGcdITZJAl1Y-1" source="Ln3O_dBmDGcdITZJAl1Y-14" target="Ln3O_dBmDGcdITZJAl1Y-8" edge="1">
          <mxGeometry relative="1" as="geometry">
            <mxPoint x="-3063.5437838681914" y="-642.4552488976037" as="sourcePoint" />
            <mxPoint x="-3216.3938906455805" y="-578.0076933507339" as="targetPoint" />
          </mxGeometry>
        </mxCell>
      </root>
    </mxGraphModel>
  </diagram>
  <diagram id="edTajlUYALdFt1Dgoj6p" name="access_library_use_case">
    <mxGraphModel dx="5081" dy="1783" grid="1" gridSize="10" guides="1" tooltips="1" connect="1" arrows="1" fold="1" page="1" pageScale="1" pageWidth="827" pageHeight="1169" math="0" shadow="0">
      <root>
        <mxCell id="yO_8DxniO0Esx24up0yg-0" />
        <mxCell id="yO_8DxniO0Esx24up0yg-1" parent="yO_8DxniO0Esx24up0yg-0" />
        <mxCell id="yO_8DxniO0Esx24up0yg-2" value="Access Library" style="shape=umlFrame;whiteSpace=wrap;html=1;width=120;height=30;" parent="yO_8DxniO0Esx24up0yg-1" vertex="1">
          <mxGeometry x="-3660" y="-760" width="740" height="351" as="geometry" />
        </mxCell>
        <mxCell id="yO_8DxniO0Esx24up0yg-3" value="&amp;lt;&amp;lt; include &amp;gt;&amp;gt;" style="edgeStyle=none;rounded=0;orthogonalLoop=1;jettySize=auto;html=1;dashed=1;endArrow=open;endFill=0;" parent="yO_8DxniO0Esx24up0yg-1" source="yO_8DxniO0Esx24up0yg-4" target="yO_8DxniO0Esx24up0yg-9" edge="1">
          <mxGeometry relative="1" as="geometry" />
        </mxCell>
        <mxCell id="yO_8DxniO0Esx24up0yg-4" value="U4.&lt;br&gt;Allow/Deny Access" style="ellipse;whiteSpace=wrap;html=1;" parent="yO_8DxniO0Esx24up0yg-1" vertex="1">
          <mxGeometry x="-3620" y="-610" width="140" height="70" as="geometry" />
        </mxCell>
        <mxCell id="yO_8DxniO0Esx24up0yg-5" style="edgeStyle=orthogonalEdgeStyle;rounded=0;orthogonalLoop=1;jettySize=auto;html=1;endArrow=block;endFill=1;" parent="yO_8DxniO0Esx24up0yg-1" source="yO_8DxniO0Esx24up0yg-6" target="yO_8DxniO0Esx24up0yg-4" edge="1">
          <mxGeometry relative="1" as="geometry">
            <mxPoint x="-3560" y="-575" as="targetPoint" />
          </mxGeometry>
        </mxCell>
        <mxCell id="yO_8DxniO0Esx24up0yg-6" value="Guard" style="shape=umlActor;verticalLabelPosition=bottom;labelBackgroundColor=#ffffff;verticalAlign=top;html=1;" parent="yO_8DxniO0Esx24up0yg-1" vertex="1">
          <mxGeometry x="-3730" y="-605" width="30" height="60" as="geometry" />
        </mxCell>
        <mxCell id="yO_8DxniO0Esx24up0yg-7" value="U4.2.&lt;br&gt;Verify ID Details Against Space Constraints" style="ellipse;whiteSpace=wrap;html=1;" parent="yO_8DxniO0Esx24up0yg-1" vertex="1">
          <mxGeometry x="-3360" y="-610.5" width="140" height="70" as="geometry" />
        </mxCell>
        <mxCell id="yO_8DxniO0Esx24up0yg-8" value="U4.3.&lt;br&gt;Respond with&lt;br&gt;&quot;Allow&quot; or &quot;Deny&quot;" style="ellipse;whiteSpace=wrap;html=1;" parent="yO_8DxniO0Esx24up0yg-1" vertex="1">
          <mxGeometry x="-3620" y="-500" width="140" height="70" as="geometry" />
        </mxCell>
        <mxCell id="yO_8DxniO0Esx24up0yg-9" value="U4.1.&lt;br&gt;Scan Identification Document" style="ellipse;whiteSpace=wrap;html=1;" parent="yO_8DxniO0Esx24up0yg-1" vertex="1">
          <mxGeometry x="-3360" y="-500" width="140" height="70" as="geometry" />
        </mxCell>
        <mxCell id="yO_8DxniO0Esx24up0yg-10" value="U4.2.2&lt;br&gt;Verify Required Invite" style="ellipse;whiteSpace=wrap;html=1;" parent="yO_8DxniO0Esx24up0yg-1" vertex="1">
          <mxGeometry x="-3100" y="-610" width="140" height="70" as="geometry" />
        </mxCell>
        <mxCell id="yO_8DxniO0Esx24up0yg-11" value="U4.2.1&lt;br&gt;Verify Age" style="ellipse;whiteSpace=wrap;html=1;" parent="yO_8DxniO0Esx24up0yg-1" vertex="1">
          <mxGeometry x="-3100" y="-720" width="140" height="70" as="geometry" />
        </mxCell>
        <mxCell id="yO_8DxniO0Esx24up0yg-12" value="U4.2.3&lt;br&gt;Verify Max People Allowed" style="ellipse;whiteSpace=wrap;html=1;" parent="yO_8DxniO0Esx24up0yg-1" vertex="1">
          <mxGeometry x="-3100" y="-500" width="140" height="70" as="geometry" />
        </mxCell>
        <mxCell id="yO_8DxniO0Esx24up0yg-13" value="&amp;lt;&amp;lt; include &amp;gt;&amp;gt;" style="edgeStyle=none;rounded=0;orthogonalLoop=1;jettySize=auto;html=1;dashed=1;endArrow=open;endFill=0;" parent="yO_8DxniO0Esx24up0yg-1" source="yO_8DxniO0Esx24up0yg-4" target="yO_8DxniO0Esx24up0yg-8" edge="1">
          <mxGeometry relative="1" as="geometry">
            <mxPoint x="-3486.551376854861" y="-587.6011320728016" as="sourcePoint" />
            <mxPoint x="-3333.556350289902" y="-652.4627123214439" as="targetPoint" />
          </mxGeometry>
        </mxCell>
        <mxCell id="yO_8DxniO0Esx24up0yg-14" value="&amp;lt;&amp;lt; include &amp;gt;&amp;gt;" style="edgeStyle=none;rounded=0;orthogonalLoop=1;jettySize=auto;html=1;dashed=1;endArrow=open;endFill=0;" parent="yO_8DxniO0Esx24up0yg-1" source="yO_8DxniO0Esx24up0yg-4" target="yO_8DxniO0Esx24up0yg-7" edge="1">
          <mxGeometry relative="1" as="geometry">
            <mxPoint x="-3476.551376854861" y="-577.6011320728016" as="sourcePoint" />
            <mxPoint x="-3323.556350289902" y="-642.4627123214439" as="targetPoint" />
          </mxGeometry>
        </mxCell>
        <mxCell id="yO_8DxniO0Esx24up0yg-15" value="&amp;lt;&amp;lt; include &amp;gt;&amp;gt;" style="edgeStyle=none;rounded=0;orthogonalLoop=1;jettySize=auto;html=1;dashed=1;endArrow=open;endFill=0;" parent="yO_8DxniO0Esx24up0yg-1" source="yO_8DxniO0Esx24up0yg-7" target="yO_8DxniO0Esx24up0yg-12" edge="1">
          <mxGeometry relative="1" as="geometry">
            <mxPoint x="-3466.551376854861" y="-567.6011320728016" as="sourcePoint" />
            <mxPoint x="-3313.556350289902" y="-632.4627123214439" as="targetPoint" />
          </mxGeometry>
        </mxCell>
        <mxCell id="yO_8DxniO0Esx24up0yg-16" value="&amp;lt;&amp;lt; include &amp;gt;&amp;gt;" style="edgeStyle=none;rounded=0;orthogonalLoop=1;jettySize=auto;html=1;dashed=1;endArrow=open;endFill=0;" parent="yO_8DxniO0Esx24up0yg-1" source="yO_8DxniO0Esx24up0yg-7" target="yO_8DxniO0Esx24up0yg-10" edge="1">
          <mxGeometry relative="1" as="geometry">
            <mxPoint x="-3456.551376854861" y="-557.6011320728016" as="sourcePoint" />
            <mxPoint x="-3303.556350289902" y="-622.4627123214439" as="targetPoint" />
          </mxGeometry>
        </mxCell>
        <mxCell id="yO_8DxniO0Esx24up0yg-17" value="&amp;lt;&amp;lt; include &amp;gt;&amp;gt;" style="edgeStyle=none;rounded=0;orthogonalLoop=1;jettySize=auto;html=1;dashed=1;endArrow=open;endFill=0;" parent="yO_8DxniO0Esx24up0yg-1" source="yO_8DxniO0Esx24up0yg-7" target="yO_8DxniO0Esx24up0yg-11" edge="1">
          <mxGeometry relative="1" as="geometry">
            <mxPoint x="-3446.551376854861" y="-547.6011320728016" as="sourcePoint" />
            <mxPoint x="-3293.556350289902" y="-612.4627123214439" as="targetPoint" />
          </mxGeometry>
        </mxCell>
        <mxCell id="yO_8DxniO0Esx24up0yg-18" value="U3.&lt;br&gt;View Access History for Space" style="ellipse;whiteSpace=wrap;html=1;" parent="yO_8DxniO0Esx24up0yg-1" vertex="1">
          <mxGeometry x="-3620" y="-720" width="140" height="70" as="geometry" />
        </mxCell>
        <mxCell id="yO_8DxniO0Esx24up0yg-19" value="&amp;lt;&amp;lt; extend &amp;gt;&amp;gt;" style="edgeStyle=none;rounded=0;orthogonalLoop=1;jettySize=auto;html=1;endArrow=open;endFill=0;dashed=1;" parent="yO_8DxniO0Esx24up0yg-1" source="yO_8DxniO0Esx24up0yg-20" target="yO_8DxniO0Esx24up0yg-18" edge="1">
          <mxGeometry relative="1" as="geometry" />
        </mxCell>
        <mxCell id="yO_8DxniO0Esx24up0yg-20" value="U3.1.&lt;br&gt;Filter Access History" style="ellipse;whiteSpace=wrap;html=1;" parent="yO_8DxniO0Esx24up0yg-1" vertex="1">
          <mxGeometry x="-3360" y="-720" width="140" height="70" as="geometry" />
        </mxCell>
        <mxCell id="yO_8DxniO0Esx24up0yg-21" style="edgeStyle=none;rounded=0;orthogonalLoop=1;jettySize=auto;html=1;endArrow=block;endFill=1;" parent="yO_8DxniO0Esx24up0yg-1" source="yO_8DxniO0Esx24up0yg-22" target="yO_8DxniO0Esx24up0yg-18" edge="1">
          <mxGeometry relative="1" as="geometry" />
        </mxCell>
        <mxCell id="yO_8DxniO0Esx24up0yg-22" value="Manager" style="shape=umlActor;verticalLabelPosition=bottom;labelBackgroundColor=#ffffff;verticalAlign=top;html=1;" parent="yO_8DxniO0Esx24up0yg-1" vertex="1">
          <mxGeometry x="-3730" y="-715" width="30" height="60" as="geometry" />
        </mxCell>
      </root>
    </mxGraphModel>
  </diagram>
  <diagram id="8Coyx1N1GX5jiBKZJpvJ" name="invite_library_use_case">
    <mxGraphModel dx="5081" dy="1783" grid="1" gridSize="10" guides="1" tooltips="1" connect="1" arrows="1" fold="1" page="1" pageScale="1" pageWidth="827" pageHeight="1169" math="0" shadow="0">
      <root>
        <mxCell id="873rM7nEriwEGV1stjkw-0" />
        <mxCell id="873rM7nEriwEGV1stjkw-1" parent="873rM7nEriwEGV1stjkw-0" />
        <mxCell id="ESbAJlmKWzsE2w1bWTK8-0" value="Invite Library" style="shape=umlFrame;whiteSpace=wrap;html=1;width=120;height=30;" parent="873rM7nEriwEGV1stjkw-1" vertex="1">
          <mxGeometry x="-3660" y="-760" width="740" height="351" as="geometry" />
        </mxCell>
        <mxCell id="ESbAJlmKWzsE2w1bWTK8-1" value="&amp;lt;&amp;lt; include &amp;gt;&amp;gt;" style="edgeStyle=none;rounded=0;orthogonalLoop=1;jettySize=auto;html=1;dashed=1;endArrow=open;endFill=0;" parent="873rM7nEriwEGV1stjkw-1" source="ESbAJlmKWzsE2w1bWTK8-2" target="ESbAJlmKWzsE2w1bWTK8-5" edge="1">
          <mxGeometry relative="1" as="geometry" />
        </mxCell>
        <mxCell id="ESbAJlmKWzsE2w1bWTK8-2" value="&lt;span style=&quot;white-space: normal&quot;&gt;U5.&lt;/span&gt;&lt;br style=&quot;white-space: normal&quot;&gt;&lt;span style=&quot;white-space: normal&quot;&gt;Create Invite Code&lt;/span&gt;" style="ellipse;whiteSpace=wrap;html=1;" parent="873rM7nEriwEGV1stjkw-1" vertex="1">
          <mxGeometry x="-3610" y="-720" width="140" height="70" as="geometry" />
        </mxCell>
        <mxCell id="ESbAJlmKWzsE2w1bWTK8-3" style="edgeStyle=none;rounded=0;orthogonalLoop=1;jettySize=auto;html=1;endArrow=block;endFill=1;" parent="873rM7nEriwEGV1stjkw-1" source="ESbAJlmKWzsE2w1bWTK8-4" target="ESbAJlmKWzsE2w1bWTK8-6" edge="1">
          <mxGeometry relative="1" as="geometry" />
        </mxCell>
        <mxCell id="ESbAJlmKWzsE2w1bWTK8-4" value="Invitee" style="shape=umlActor;verticalLabelPosition=bottom;labelBackgroundColor=#ffffff;verticalAlign=top;html=1;" parent="873rM7nEriwEGV1stjkw-1" vertex="1">
          <mxGeometry x="-3730" y="-605" width="30" height="60" as="geometry" />
        </mxCell>
        <mxCell id="ESbAJlmKWzsE2w1bWTK8-5" value="U5.1.&lt;br&gt;Set Expiry Date of Invite Code" style="ellipse;whiteSpace=wrap;html=1;" parent="873rM7nEriwEGV1stjkw-1" vertex="1">
          <mxGeometry x="-3360" y="-720" width="140" height="70" as="geometry" />
        </mxCell>
        <mxCell id="ESbAJlmKWzsE2w1bWTK8-6" value="U6.&lt;br&gt;Submit Invite Code" style="ellipse;whiteSpace=wrap;html=1;" parent="873rM7nEriwEGV1stjkw-1" vertex="1">
          <mxGeometry x="-3610" y="-610" width="140" height="70" as="geometry" />
        </mxCell>
        <mxCell id="ESbAJlmKWzsE2w1bWTK8-7" value="U6.3.&lt;br&gt;Increase times invite code has been used" style="ellipse;whiteSpace=wrap;html=1;" parent="873rM7nEriwEGV1stjkw-1" vertex="1">
          <mxGeometry x="-3610" y="-500" width="140" height="70" as="geometry" />
        </mxCell>
        <mxCell id="ESbAJlmKWzsE2w1bWTK8-8" value="U6.1.&lt;br&gt;Verify Invite Code&lt;br&gt;is Valid" style="ellipse;whiteSpace=wrap;html=1;" parent="873rM7nEriwEGV1stjkw-1" vertex="1">
          <mxGeometry x="-3360" y="-605" width="140" height="70" as="geometry" />
        </mxCell>
        <mxCell id="ESbAJlmKWzsE2w1bWTK8-9" value="U5.2.&lt;br&gt;Set Number of Times Valid" style="ellipse;whiteSpace=wrap;html=1;" parent="873rM7nEriwEGV1stjkw-1" vertex="1">
          <mxGeometry x="-3110" y="-720" width="140" height="70" as="geometry" />
        </mxCell>
        <mxCell id="ESbAJlmKWzsE2w1bWTK8-10" value="&amp;lt;&amp;lt; include &amp;gt;&amp;gt;" style="edgeStyle=none;rounded=0;orthogonalLoop=1;jettySize=auto;html=1;dashed=1;endArrow=open;endFill=0;" parent="873rM7nEriwEGV1stjkw-1" source="ESbAJlmKWzsE2w1bWTK8-2" target="ESbAJlmKWzsE2w1bWTK8-9" edge="1">
          <mxGeometry relative="1" as="geometry">
            <mxPoint x="-3460.0000000000005" y="-675" as="sourcePoint" />
            <mxPoint x="-3350.000000000001" y="-675" as="targetPoint" />
            <Array as="points">
              <mxPoint x="-3290" y="-630" />
            </Array>
          </mxGeometry>
        </mxCell>
        <mxCell id="ESbAJlmKWzsE2w1bWTK8-11" value="U6.1.1.&lt;br&gt;Verify Expiration Date" style="ellipse;whiteSpace=wrap;html=1;" parent="873rM7nEriwEGV1stjkw-1" vertex="1">
          <mxGeometry x="-3110" y="-610" width="140" height="70" as="geometry" />
        </mxCell>
        <mxCell id="ESbAJlmKWzsE2w1bWTK8-12" value="U6.1.2.&lt;br&gt;Verify Expiration Date" style="ellipse;whiteSpace=wrap;html=1;" parent="873rM7nEriwEGV1stjkw-1" vertex="1">
          <mxGeometry x="-3110" y="-500" width="140" height="70" as="geometry" />
        </mxCell>
        <mxCell id="ESbAJlmKWzsE2w1bWTK8-13" value="&amp;lt;&amp;lt; include &amp;gt;&amp;gt;" style="edgeStyle=none;rounded=0;orthogonalLoop=1;jettySize=auto;html=1;dashed=1;endArrow=open;endFill=0;" parent="873rM7nEriwEGV1stjkw-1" source="ESbAJlmKWzsE2w1bWTK8-6" target="ESbAJlmKWzsE2w1bWTK8-8" edge="1">
          <mxGeometry relative="1" as="geometry">
            <mxPoint x="-3477.177613448549" y="-652.0337449776298" as="sourcePoint" />
            <mxPoint x="-3332.848383748581" y="-587.9512980850982" as="targetPoint" />
          </mxGeometry>
        </mxCell>
        <mxCell id="ESbAJlmKWzsE2w1bWTK8-14" value="&amp;lt;&amp;lt; include &amp;gt;&amp;gt;" style="edgeStyle=none;rounded=0;orthogonalLoop=1;jettySize=auto;html=1;dashed=1;endArrow=open;endFill=0;" parent="873rM7nEriwEGV1stjkw-1" source="ESbAJlmKWzsE2w1bWTK8-8" target="ESbAJlmKWzsE2w1bWTK8-11" edge="1">
          <mxGeometry relative="1" as="geometry">
            <mxPoint x="-3467.177613448549" y="-642.0337449776298" as="sourcePoint" />
            <mxPoint x="-3322.848383748581" y="-577.9512980850982" as="targetPoint" />
          </mxGeometry>
        </mxCell>
        <mxCell id="ESbAJlmKWzsE2w1bWTK8-15" value="&amp;lt;&amp;lt; include &amp;gt;&amp;gt;" style="edgeStyle=none;rounded=0;orthogonalLoop=1;jettySize=auto;html=1;dashed=1;endArrow=open;endFill=0;" parent="873rM7nEriwEGV1stjkw-1" source="ESbAJlmKWzsE2w1bWTK8-8" target="ESbAJlmKWzsE2w1bWTK8-12" edge="1">
          <mxGeometry relative="1" as="geometry">
            <mxPoint x="-3457.177613448549" y="-632.0337449776298" as="sourcePoint" />
            <mxPoint x="-3312.848383748581" y="-567.9512980850982" as="targetPoint" />
          </mxGeometry>
        </mxCell>
        <mxCell id="ESbAJlmKWzsE2w1bWTK8-16" value="&amp;lt;&amp;lt; extend &amp;gt;&amp;gt;" style="edgeStyle=none;rounded=0;orthogonalLoop=1;jettySize=auto;html=1;dashed=1;endArrow=open;endFill=0;" parent="873rM7nEriwEGV1stjkw-1" source="ESbAJlmKWzsE2w1bWTK8-7" target="ESbAJlmKWzsE2w1bWTK8-6" edge="1">
          <mxGeometry relative="1" as="geometry">
            <mxPoint x="-3447.177613448549" y="-622.0337449776298" as="sourcePoint" />
            <mxPoint x="-3302.848383748581" y="-557.9512980850982" as="targetPoint" />
          </mxGeometry>
        </mxCell>
        <mxCell id="ESbAJlmKWzsE2w1bWTK8-17" value="&amp;lt;&amp;lt; extend &amp;gt;&amp;gt;" style="edgeStyle=none;rounded=0;orthogonalLoop=1;jettySize=auto;html=1;dashed=1;endArrow=open;endFill=0;" parent="873rM7nEriwEGV1stjkw-1" source="ESbAJlmKWzsE2w1bWTK8-18" target="ESbAJlmKWzsE2w1bWTK8-6" edge="1">
          <mxGeometry relative="1" as="geometry" />
        </mxCell>
        <mxCell id="ESbAJlmKWzsE2w1bWTK8-18" value="U6.2.&lt;br&gt;Add User to Invitees for Space" style="ellipse;whiteSpace=wrap;html=1;" parent="873rM7nEriwEGV1stjkw-1" vertex="1">
          <mxGeometry x="-3360" y="-500" width="140" height="70" as="geometry" />
        </mxCell>
        <mxCell id="ESbAJlmKWzsE2w1bWTK8-19" style="edgeStyle=none;rounded=0;orthogonalLoop=1;jettySize=auto;html=1;endArrow=block;endFill=1;" parent="873rM7nEriwEGV1stjkw-1" source="ESbAJlmKWzsE2w1bWTK8-20" target="ESbAJlmKWzsE2w1bWTK8-2" edge="1">
          <mxGeometry relative="1" as="geometry" />
        </mxCell>
        <mxCell id="ESbAJlmKWzsE2w1bWTK8-20" value="Inviter" style="shape=umlActor;verticalLabelPosition=bottom;labelBackgroundColor=#ffffff;verticalAlign=top;html=1;" parent="873rM7nEriwEGV1stjkw-1" vertex="1">
          <mxGeometry x="-3730" y="-715" width="30" height="60" as="geometry" />
        </mxCell>
      </root>
    </mxGraphModel>
  </diagram>
  <diagram id="VaWUwDI69ZQNCDruh2XT" name="component_diagram">
    <mxGraphModel dx="1113" dy="722" grid="1" gridSize="10" guides="1" tooltips="1" connect="1" arrows="1" fold="1" page="1" pageScale="1" pageWidth="827" pageHeight="1169" math="0" shadow="0">
      <root>
        <mxCell id="ZVou1dZ1Lyz8TQ9AEVJz-0" />
        <mxCell id="ZVou1dZ1Lyz8TQ9AEVJz-1" parent="ZVou1dZ1Lyz8TQ9AEVJz-0" />
        <mxCell id="ZVou1dZ1Lyz8TQ9AEVJz-2" value="&lt;p style=&quot;margin: 0px ; margin-top: 6px ; text-align: center&quot;&gt;«Application»&lt;/p&gt;&lt;p style=&quot;margin: 0px ; margin-top: 6px ; text-align: center&quot;&gt;&lt;b&gt;Invite Only Application&lt;/b&gt;&lt;/p&gt;&lt;hr&gt;&lt;p style=&quot;margin: 0px ; margin-left: 8px&quot;&gt;&lt;br&gt;&lt;/p&gt;" style="align=left;overflow=fill;html=1;dropTarget=0;" vertex="1" parent="ZVou1dZ1Lyz8TQ9AEVJz-1" treatAsSingle="0">
          <mxGeometry x="130" y="80" width="310" height="620" as="geometry" />
        </mxCell>
        <mxCell id="ZVou1dZ1Lyz8TQ9AEVJz-3" value="" style="shape=component;jettyWidth=8;jettyHeight=4;" vertex="1" parent="ZVou1dZ1Lyz8TQ9AEVJz-2">
          <mxGeometry x="1" width="20" height="20" relative="1" as="geometry">
            <mxPoint x="-24" y="4" as="offset" />
          </mxGeometry>
        </mxCell>
        <mxCell id="ZVou1dZ1Lyz8TQ9AEVJz-8" value="«Library»&lt;br&gt;&lt;b&gt;User Library&lt;/b&gt;" style="html=1;dropTarget=0;" vertex="1" parent="ZVou1dZ1Lyz8TQ9AEVJz-1" treatAsSingle="0">
          <mxGeometry x="194.99999999999997" y="307.5" width="180" height="90" as="geometry" />
        </mxCell>
        <mxCell id="ZVou1dZ1Lyz8TQ9AEVJz-9" value="" style="shape=component;jettyWidth=8;jettyHeight=4;" vertex="1" parent="ZVou1dZ1Lyz8TQ9AEVJz-8">
          <mxGeometry x="1" width="20" height="20" relative="1" as="geometry">
            <mxPoint x="-27" y="7" as="offset" />
          </mxGeometry>
        </mxCell>
        <mxCell id="ZVou1dZ1Lyz8TQ9AEVJz-10" value="«Library»&lt;br&gt;&lt;b&gt;Space Library&lt;/b&gt;" style="html=1;dropTarget=0;" vertex="1" parent="ZVou1dZ1Lyz8TQ9AEVJz-1" treatAsSingle="0">
          <mxGeometry x="195" y="440" width="180" height="90" as="geometry" />
        </mxCell>
        <mxCell id="ZVou1dZ1Lyz8TQ9AEVJz-11" value="" style="shape=component;jettyWidth=8;jettyHeight=4;" vertex="1" parent="ZVou1dZ1Lyz8TQ9AEVJz-10">
          <mxGeometry x="1" width="20" height="20" relative="1" as="geometry">
            <mxPoint x="-27" y="7" as="offset" />
          </mxGeometry>
        </mxCell>
        <mxCell id="ZVou1dZ1Lyz8TQ9AEVJz-12" value="«Library»&lt;br&gt;&lt;b&gt;Access Library&lt;/b&gt;" style="html=1;dropTarget=0;" vertex="1" parent="ZVou1dZ1Lyz8TQ9AEVJz-1" treatAsSingle="0">
          <mxGeometry x="195" y="170" width="180" height="90" as="geometry" />
        </mxCell>
        <mxCell id="ZVou1dZ1Lyz8TQ9AEVJz-13" value="" style="shape=component;jettyWidth=8;jettyHeight=4;" vertex="1" parent="ZVou1dZ1Lyz8TQ9AEVJz-12">
          <mxGeometry x="1" width="20" height="20" relative="1" as="geometry">
            <mxPoint x="-27" y="7" as="offset" />
          </mxGeometry>
        </mxCell>
        <mxCell id="ZVou1dZ1Lyz8TQ9AEVJz-14" value="«Library»&lt;br&gt;&lt;b&gt;Invite Library&lt;/b&gt;" style="html=1;dropTarget=0;" vertex="1" parent="ZVou1dZ1Lyz8TQ9AEVJz-1" treatAsSingle="0">
          <mxGeometry x="195" y="570" width="180" height="90" as="geometry" />
        </mxCell>
        <mxCell id="ZVou1dZ1Lyz8TQ9AEVJz-15" value="" style="shape=component;jettyWidth=8;jettyHeight=4;" vertex="1" parent="ZVou1dZ1Lyz8TQ9AEVJz-14">
          <mxGeometry x="1" width="20" height="20" relative="1" as="geometry">
            <mxPoint x="-27" y="7" as="offset" />
          </mxGeometry>
        </mxCell>
        <mxCell id="ZVou1dZ1Lyz8TQ9AEVJz-17" value="«Package»&lt;br&gt;&lt;b&gt;&lt;a href=&quot;https://pub.dev/packages/rsa_identification&quot;&gt;rsa_identification&lt;/a&gt;&lt;/b&gt;" style="html=1;dropTarget=0;" vertex="1" parent="ZVou1dZ1Lyz8TQ9AEVJz-1" treatAsSingle="0">
          <mxGeometry x="852" y="110" width="180" height="90" as="geometry" />
        </mxCell>
        <mxCell id="ZVou1dZ1Lyz8TQ9AEVJz-18" value="" style="shape=component;jettyWidth=8;jettyHeight=4;" vertex="1" parent="ZVou1dZ1Lyz8TQ9AEVJz-17">
          <mxGeometry x="1" width="20" height="20" relative="1" as="geometry">
            <mxPoint x="-27" y="7" as="offset" />
          </mxGeometry>
        </mxCell>
        <mxCell id="ZVou1dZ1Lyz8TQ9AEVJz-19" value="«Package»&lt;br&gt;&lt;b&gt;&lt;a href=&quot;https://pub.dev/packages/firebase_auth&quot;&gt;firebase_auth&lt;/a&gt;&lt;/b&gt;" style="html=1;dropTarget=0;" vertex="1" parent="ZVou1dZ1Lyz8TQ9AEVJz-1" treatAsSingle="0">
          <mxGeometry x="593.9999999999999" y="307.5" width="180" height="90" as="geometry" />
        </mxCell>
        <mxCell id="ZVou1dZ1Lyz8TQ9AEVJz-20" value="" style="shape=component;jettyWidth=8;jettyHeight=4;" vertex="1" parent="ZVou1dZ1Lyz8TQ9AEVJz-19">
          <mxGeometry x="1" width="20" height="20" relative="1" as="geometry">
            <mxPoint x="-27" y="7" as="offset" />
          </mxGeometry>
        </mxCell>
        <UserObject label="«Package»&lt;br&gt;&lt;b&gt;&lt;a href=&quot;https://pub.dartlang.org/packages/cloud_firestore&quot;&gt;cloud_firestore&lt;/a&gt;&lt;/b&gt;" id="IiozGlmvBU9Abtx-Aspz-0">
          <mxCell style="html=1;dropTarget=0;" vertex="1" treatAsSingle="0" parent="ZVou1dZ1Lyz8TQ9AEVJz-1">
            <mxGeometry x="594" y="440" width="180" height="90" as="geometry" />
          </mxCell>
        </UserObject>
        <mxCell id="IiozGlmvBU9Abtx-Aspz-1" value="" style="shape=component;jettyWidth=8;jettyHeight=4;" vertex="1" parent="IiozGlmvBU9Abtx-Aspz-0">
          <mxGeometry x="1" width="20" height="20" relative="1" as="geometry">
            <mxPoint x="-27" y="7" as="offset" />
          </mxGeometry>
        </mxCell>
        <UserObject label="«Package»&lt;br&gt;&lt;b&gt;&lt;a href=&quot;https://pub.dartlang.org/packages/firebase_ml_vision&quot;&gt;firebase_ml_vision&lt;/a&gt;&lt;/b&gt;" id="IiozGlmvBU9Abtx-Aspz-3">
          <mxCell style="html=1;dropTarget=0;" vertex="1" treatAsSingle="0" parent="ZVou1dZ1Lyz8TQ9AEVJz-1">
            <mxGeometry x="852" y="210" width="180" height="90" as="geometry" />
          </mxCell>
        </UserObject>
        <mxCell id="IiozGlmvBU9Abtx-Aspz-4" value="" style="shape=component;jettyWidth=8;jettyHeight=4;" vertex="1" parent="IiozGlmvBU9Abtx-Aspz-3">
          <mxGeometry x="1" width="20" height="20" relative="1" as="geometry">
            <mxPoint x="-27" y="7" as="offset" />
          </mxGeometry>
        </mxCell>
        <mxCell id="IiozGlmvBU9Abtx-Aspz-101" value="" style="edgeStyle=none;rounded=0;orthogonalLoop=1;jettySize=auto;html=1;startArrow=none;startFill=0;endArrow=none;endFill=0;entryX=1;entryY=0.5;entryDx=0;entryDy=0;" edge="1" parent="ZVou1dZ1Lyz8TQ9AEVJz-1" source="IiozGlmvBU9Abtx-Aspz-99" target="IiozGlmvBU9Abtx-Aspz-102">
          <mxGeometry relative="1" as="geometry">
            <mxPoint x="510.9999999999999" y="342" as="targetPoint" />
          </mxGeometry>
        </mxCell>
        <mxCell id="IiozGlmvBU9Abtx-Aspz-105" value="createUser" style="text;html=1;align=center;verticalAlign=middle;resizable=0;points=[];labelBackgroundColor=#ffffff;" vertex="1" connectable="0" parent="IiozGlmvBU9Abtx-Aspz-101">
          <mxGeometry x="0.3763" relative="1" as="geometry">
            <mxPoint x="-11.88" y="-12.5" as="offset" />
          </mxGeometry>
        </mxCell>
        <mxCell id="IiozGlmvBU9Abtx-Aspz-99" value="" style="whiteSpace=wrap;html=1;aspect=fixed;" vertex="1" parent="ZVou1dZ1Lyz8TQ9AEVJz-1">
          <mxGeometry x="590.9999999999999" y="339.5" width="5" height="5" as="geometry" />
        </mxCell>
        <mxCell id="IiozGlmvBU9Abtx-Aspz-102" value="" style="ellipse;whiteSpace=wrap;html=1;aspect=fixed;rounded=0;" vertex="1" parent="ZVou1dZ1Lyz8TQ9AEVJz-1">
          <mxGeometry x="536.9999999999999" y="339.5" width="5" height="5" as="geometry" />
        </mxCell>
        <mxCell id="IiozGlmvBU9Abtx-Aspz-114" value="" style="edgeStyle=none;rounded=0;orthogonalLoop=1;jettySize=auto;html=1;startArrow=none;startFill=0;endArrow=none;endFill=0;entryX=1;entryY=0.5;entryDx=0;entryDy=0;entryPerimeter=0;" edge="1" parent="ZVou1dZ1Lyz8TQ9AEVJz-1" source="IiozGlmvBU9Abtx-Aspz-116" target="IiozGlmvBU9Abtx-Aspz-119">
          <mxGeometry relative="1" as="geometry">
            <mxPoint x="470.00000000000006" y="255" as="targetPoint" />
          </mxGeometry>
        </mxCell>
        <mxCell id="IiozGlmvBU9Abtx-Aspz-116" value="" style="whiteSpace=wrap;html=1;aspect=fixed;" vertex="1" parent="ZVou1dZ1Lyz8TQ9AEVJz-1">
          <mxGeometry x="373.00000000000006" y="315" width="5" height="5" as="geometry" />
        </mxCell>
        <mxCell id="IiozGlmvBU9Abtx-Aspz-118" value="" style="whiteSpace=wrap;html=1;aspect=fixed;" vertex="1" parent="ZVou1dZ1Lyz8TQ9AEVJz-1">
          <mxGeometry x="438.00000000000006" y="315" width="5" height="5" as="geometry" />
        </mxCell>
        <mxCell id="IiozGlmvBU9Abtx-Aspz-120" style="edgeStyle=none;rounded=0;orthogonalLoop=1;jettySize=auto;html=1;exitX=0;exitY=0.5;exitDx=0;exitDy=0;exitPerimeter=0;entryX=0;entryY=0.5;entryDx=0;entryDy=0;startArrow=none;startFill=0;endArrow=none;endFill=0;" edge="1" parent="ZVou1dZ1Lyz8TQ9AEVJz-1" source="IiozGlmvBU9Abtx-Aspz-119" target="IiozGlmvBU9Abtx-Aspz-118">
          <mxGeometry relative="1" as="geometry" />
        </mxCell>
        <mxCell id="IiozGlmvBU9Abtx-Aspz-119" value="" style="shape=requiredInterface;html=1;verticalLabelPosition=bottom;rounded=0;rotation=-180;" vertex="1" parent="ZVou1dZ1Lyz8TQ9AEVJz-1">
          <mxGeometry x="390.00000000000006" y="307.5" width="10" height="20" as="geometry" />
        </mxCell>
        <mxCell id="IiozGlmvBU9Abtx-Aspz-121" value="" style="edgeStyle=none;rounded=0;orthogonalLoop=1;jettySize=auto;html=1;startArrow=none;startFill=0;endArrow=none;endFill=0;entryX=1;entryY=0.5;entryDx=0;entryDy=0;entryPerimeter=0;exitX=1;exitY=0.5;exitDx=0;exitDy=0;" edge="1" parent="ZVou1dZ1Lyz8TQ9AEVJz-1" target="IiozGlmvBU9Abtx-Aspz-122" source="IiozGlmvBU9Abtx-Aspz-118">
          <mxGeometry relative="1" as="geometry">
            <mxPoint x="480.00000000000006" y="265" as="targetPoint" />
            <mxPoint x="388" y="327.5" as="sourcePoint" />
          </mxGeometry>
        </mxCell>
        <mxCell id="IiozGlmvBU9Abtx-Aspz-123" style="edgeStyle=orthogonalEdgeStyle;rounded=0;orthogonalLoop=1;jettySize=auto;html=1;exitX=0;exitY=0.5;exitDx=0;exitDy=0;exitPerimeter=0;entryX=0.5;entryY=1;entryDx=0;entryDy=0;startArrow=none;startFill=0;endArrow=open;endFill=0;dashed=1;" edge="1" parent="ZVou1dZ1Lyz8TQ9AEVJz-1" source="IiozGlmvBU9Abtx-Aspz-122" target="IiozGlmvBU9Abtx-Aspz-161">
          <mxGeometry relative="1" as="geometry" />
        </mxCell>
        <mxCell id="IiozGlmvBU9Abtx-Aspz-122" value="" style="shape=requiredInterface;html=1;verticalLabelPosition=bottom;rounded=0;rotation=-180;" vertex="1" parent="ZVou1dZ1Lyz8TQ9AEVJz-1">
          <mxGeometry x="460.00000000000006" y="307.5" width="10" height="20" as="geometry" />
        </mxCell>
        <mxCell id="IiozGlmvBU9Abtx-Aspz-124" value="" style="edgeStyle=none;rounded=0;orthogonalLoop=1;jettySize=auto;html=1;startArrow=none;startFill=0;endArrow=none;endFill=0;entryX=1;entryY=0.5;entryDx=0;entryDy=0;" edge="1" parent="ZVou1dZ1Lyz8TQ9AEVJz-1" source="IiozGlmvBU9Abtx-Aspz-126" target="IiozGlmvBU9Abtx-Aspz-127">
          <mxGeometry relative="1" as="geometry">
            <mxPoint x="520.9999999999999" y="347.5" as="targetPoint" />
          </mxGeometry>
        </mxCell>
        <mxCell id="IiozGlmvBU9Abtx-Aspz-125" value="signIn" style="text;html=1;align=center;verticalAlign=middle;resizable=0;points=[];labelBackgroundColor=#ffffff;" vertex="1" connectable="0" parent="IiozGlmvBU9Abtx-Aspz-124">
          <mxGeometry x="0.3763" relative="1" as="geometry">
            <mxPoint x="-11.88" y="-12.5" as="offset" />
          </mxGeometry>
        </mxCell>
        <mxCell id="IiozGlmvBU9Abtx-Aspz-126" value="" style="whiteSpace=wrap;html=1;aspect=fixed;" vertex="1" parent="ZVou1dZ1Lyz8TQ9AEVJz-1">
          <mxGeometry x="590.9999999999999" y="365" width="5" height="5" as="geometry" />
        </mxCell>
        <mxCell id="IiozGlmvBU9Abtx-Aspz-127" value="" style="ellipse;whiteSpace=wrap;html=1;aspect=fixed;rounded=0;" vertex="1" parent="ZVou1dZ1Lyz8TQ9AEVJz-1">
          <mxGeometry x="536.9999999999999" y="365" width="5" height="5" as="geometry" />
        </mxCell>
        <mxCell id="IiozGlmvBU9Abtx-Aspz-128" value="" style="edgeStyle=none;rounded=0;orthogonalLoop=1;jettySize=auto;html=1;startArrow=none;startFill=0;endArrow=none;endFill=0;entryX=1;entryY=0.5;entryDx=0;entryDy=0;entryPerimeter=0;" edge="1" parent="ZVou1dZ1Lyz8TQ9AEVJz-1" source="IiozGlmvBU9Abtx-Aspz-129" target="IiozGlmvBU9Abtx-Aspz-132">
          <mxGeometry relative="1" as="geometry">
            <mxPoint x="480.00000000000006" y="260" as="targetPoint" />
          </mxGeometry>
        </mxCell>
        <mxCell id="IiozGlmvBU9Abtx-Aspz-129" value="" style="whiteSpace=wrap;html=1;aspect=fixed;" vertex="1" parent="ZVou1dZ1Lyz8TQ9AEVJz-1">
          <mxGeometry x="373.00000000000006" y="340" width="5" height="5" as="geometry" />
        </mxCell>
        <mxCell id="IiozGlmvBU9Abtx-Aspz-130" value="" style="whiteSpace=wrap;html=1;aspect=fixed;" vertex="1" parent="ZVou1dZ1Lyz8TQ9AEVJz-1">
          <mxGeometry x="438.00000000000006" y="340" width="5" height="5" as="geometry" />
        </mxCell>
        <mxCell id="IiozGlmvBU9Abtx-Aspz-131" style="edgeStyle=none;rounded=0;orthogonalLoop=1;jettySize=auto;html=1;exitX=0;exitY=0.5;exitDx=0;exitDy=0;exitPerimeter=0;entryX=0;entryY=0.5;entryDx=0;entryDy=0;startArrow=none;startFill=0;endArrow=none;endFill=0;" edge="1" parent="ZVou1dZ1Lyz8TQ9AEVJz-1" source="IiozGlmvBU9Abtx-Aspz-132" target="IiozGlmvBU9Abtx-Aspz-130">
          <mxGeometry relative="1" as="geometry" />
        </mxCell>
        <mxCell id="IiozGlmvBU9Abtx-Aspz-132" value="" style="shape=requiredInterface;html=1;verticalLabelPosition=bottom;rounded=0;rotation=-180;" vertex="1" parent="ZVou1dZ1Lyz8TQ9AEVJz-1">
          <mxGeometry x="390.00000000000006" y="332.5" width="10" height="20" as="geometry" />
        </mxCell>
        <mxCell id="IiozGlmvBU9Abtx-Aspz-133" value="" style="edgeStyle=none;rounded=0;orthogonalLoop=1;jettySize=auto;html=1;startArrow=none;startFill=0;endArrow=none;endFill=0;entryX=1;entryY=0.5;entryDx=0;entryDy=0;entryPerimeter=0;exitX=1;exitY=0.5;exitDx=0;exitDy=0;" edge="1" parent="ZVou1dZ1Lyz8TQ9AEVJz-1" source="IiozGlmvBU9Abtx-Aspz-130" target="IiozGlmvBU9Abtx-Aspz-135">
          <mxGeometry relative="1" as="geometry">
            <mxPoint x="490.00000000000006" y="270" as="targetPoint" />
            <mxPoint x="398" y="332.5" as="sourcePoint" />
          </mxGeometry>
        </mxCell>
        <mxCell id="IiozGlmvBU9Abtx-Aspz-134" style="edgeStyle=none;rounded=0;orthogonalLoop=1;jettySize=auto;html=1;exitX=0;exitY=0.5;exitDx=0;exitDy=0;exitPerimeter=0;startArrow=none;startFill=0;endArrow=open;endFill=0;dashed=1;entryX=0;entryY=0.5;entryDx=0;entryDy=0;" edge="1" parent="ZVou1dZ1Lyz8TQ9AEVJz-1" source="IiozGlmvBU9Abtx-Aspz-135" target="IiozGlmvBU9Abtx-Aspz-102">
          <mxGeometry relative="1" as="geometry">
            <mxPoint x="800" y="350" as="targetPoint" />
          </mxGeometry>
        </mxCell>
        <mxCell id="IiozGlmvBU9Abtx-Aspz-135" value="" style="shape=requiredInterface;html=1;verticalLabelPosition=bottom;rounded=0;rotation=-180;" vertex="1" parent="ZVou1dZ1Lyz8TQ9AEVJz-1">
          <mxGeometry x="460.00000000000006" y="332.5" width="10" height="20" as="geometry" />
        </mxCell>
        <mxCell id="IiozGlmvBU9Abtx-Aspz-136" value="«Package»&lt;br&gt;&lt;b&gt;rsa_scan&lt;/b&gt;" style="html=1;dropTarget=0;" vertex="1" treatAsSingle="0" parent="ZVou1dZ1Lyz8TQ9AEVJz-1">
          <mxGeometry x="532" y="170" width="180" height="90" as="geometry" />
        </mxCell>
        <mxCell id="IiozGlmvBU9Abtx-Aspz-137" value="" style="shape=component;jettyWidth=8;jettyHeight=4;" vertex="1" parent="IiozGlmvBU9Abtx-Aspz-136">
          <mxGeometry x="1" width="20" height="20" relative="1" as="geometry">
            <mxPoint x="-27" y="7" as="offset" />
          </mxGeometry>
        </mxCell>
        <mxCell id="IiozGlmvBU9Abtx-Aspz-138" value="" style="edgeStyle=none;rounded=0;orthogonalLoop=1;jettySize=auto;html=1;startArrow=none;startFill=0;endArrow=none;endFill=0;entryX=1;entryY=0.5;entryDx=0;entryDy=0;" edge="1" parent="ZVou1dZ1Lyz8TQ9AEVJz-1" source="IiozGlmvBU9Abtx-Aspz-140" target="IiozGlmvBU9Abtx-Aspz-141">
          <mxGeometry relative="1" as="geometry">
            <mxPoint x="779" y="91.5" as="targetPoint" />
          </mxGeometry>
        </mxCell>
        <mxCell id="IiozGlmvBU9Abtx-Aspz-139" value="detectBarcode" style="text;html=1;align=center;verticalAlign=middle;resizable=0;points=[];labelBackgroundColor=#ffffff;" vertex="1" connectable="0" parent="IiozGlmvBU9Abtx-Aspz-138">
          <mxGeometry x="0.3763" relative="1" as="geometry">
            <mxPoint x="-11.88" y="-12.5" as="offset" />
          </mxGeometry>
        </mxCell>
        <mxCell id="IiozGlmvBU9Abtx-Aspz-140" value="" style="whiteSpace=wrap;html=1;aspect=fixed;" vertex="1" parent="ZVou1dZ1Lyz8TQ9AEVJz-1">
          <mxGeometry x="849" y="241.5" width="5" height="5" as="geometry" />
        </mxCell>
        <mxCell id="IiozGlmvBU9Abtx-Aspz-141" value="" style="ellipse;whiteSpace=wrap;html=1;aspect=fixed;rounded=0;" vertex="1" parent="ZVou1dZ1Lyz8TQ9AEVJz-1">
          <mxGeometry x="795" y="241.5" width="5" height="5" as="geometry" />
        </mxCell>
        <mxCell id="IiozGlmvBU9Abtx-Aspz-144" value="" style="whiteSpace=wrap;html=1;aspect=fixed;" vertex="1" parent="ZVou1dZ1Lyz8TQ9AEVJz-1">
          <mxGeometry x="710" y="241" width="5" height="5" as="geometry" />
        </mxCell>
        <mxCell id="IiozGlmvBU9Abtx-Aspz-147" value="" style="edgeStyle=none;rounded=0;orthogonalLoop=1;jettySize=auto;html=1;startArrow=none;startFill=0;endArrow=none;endFill=0;entryX=1;entryY=0.5;entryDx=0;entryDy=0;entryPerimeter=0;exitX=1;exitY=0.5;exitDx=0;exitDy=0;" edge="1" parent="ZVou1dZ1Lyz8TQ9AEVJz-1" source="IiozGlmvBU9Abtx-Aspz-144" target="IiozGlmvBU9Abtx-Aspz-149">
          <mxGeometry relative="1" as="geometry">
            <mxPoint x="422" y="-16" as="targetPoint" />
            <mxPoint x="329.99999999999994" y="46.5" as="sourcePoint" />
          </mxGeometry>
        </mxCell>
        <mxCell id="IiozGlmvBU9Abtx-Aspz-148" style="edgeStyle=orthogonalEdgeStyle;rounded=0;orthogonalLoop=1;jettySize=auto;html=1;exitX=0;exitY=0.5;exitDx=0;exitDy=0;exitPerimeter=0;entryX=0;entryY=0.5;entryDx=0;entryDy=0;startArrow=none;startFill=0;endArrow=open;endFill=0;dashed=1;" edge="1" parent="ZVou1dZ1Lyz8TQ9AEVJz-1" source="IiozGlmvBU9Abtx-Aspz-149" target="IiozGlmvBU9Abtx-Aspz-141">
          <mxGeometry relative="1" as="geometry">
            <mxPoint x="810" y="278.5" as="sourcePoint" />
          </mxGeometry>
        </mxCell>
        <mxCell id="IiozGlmvBU9Abtx-Aspz-149" value="" style="shape=requiredInterface;html=1;verticalLabelPosition=bottom;rounded=0;rotation=-180;" vertex="1" parent="ZVou1dZ1Lyz8TQ9AEVJz-1">
          <mxGeometry x="730" y="233.5" width="10" height="20" as="geometry" />
        </mxCell>
        <mxCell id="IiozGlmvBU9Abtx-Aspz-150" value="" style="edgeStyle=none;rounded=0;orthogonalLoop=1;jettySize=auto;html=1;startArrow=none;startFill=0;endArrow=none;endFill=0;entryX=1;entryY=0.5;entryDx=0;entryDy=0;" edge="1" parent="ZVou1dZ1Lyz8TQ9AEVJz-1" source="IiozGlmvBU9Abtx-Aspz-152" target="IiozGlmvBU9Abtx-Aspz-153">
          <mxGeometry relative="1" as="geometry">
            <mxPoint x="789" y="-92.5" as="targetPoint" />
          </mxGeometry>
        </mxCell>
        <mxCell id="IiozGlmvBU9Abtx-Aspz-151" value="decodeBarcode" style="text;html=1;align=center;verticalAlign=middle;resizable=0;points=[];labelBackgroundColor=#ffffff;" vertex="1" connectable="0" parent="IiozGlmvBU9Abtx-Aspz-150">
          <mxGeometry x="0.3763" relative="1" as="geometry">
            <mxPoint x="-9" y="-12.5" as="offset" />
          </mxGeometry>
        </mxCell>
        <mxCell id="IiozGlmvBU9Abtx-Aspz-152" value="" style="whiteSpace=wrap;html=1;aspect=fixed;" vertex="1" parent="ZVou1dZ1Lyz8TQ9AEVJz-1">
          <mxGeometry x="849" y="187.5" width="5" height="5" as="geometry" />
        </mxCell>
        <mxCell id="IiozGlmvBU9Abtx-Aspz-153" value="" style="ellipse;whiteSpace=wrap;html=1;aspect=fixed;rounded=0;" vertex="1" parent="ZVou1dZ1Lyz8TQ9AEVJz-1">
          <mxGeometry x="790" y="187.5" width="5" height="5" as="geometry" />
        </mxCell>
        <mxCell id="IiozGlmvBU9Abtx-Aspz-154" value="" style="whiteSpace=wrap;html=1;aspect=fixed;" vertex="1" parent="ZVou1dZ1Lyz8TQ9AEVJz-1">
          <mxGeometry x="710" y="187.5" width="5" height="5" as="geometry" />
        </mxCell>
        <mxCell id="IiozGlmvBU9Abtx-Aspz-155" value="" style="edgeStyle=none;rounded=0;orthogonalLoop=1;jettySize=auto;html=1;startArrow=none;startFill=0;endArrow=none;endFill=0;entryX=1;entryY=0.5;entryDx=0;entryDy=0;entryPerimeter=0;exitX=1;exitY=0.5;exitDx=0;exitDy=0;" edge="1" parent="ZVou1dZ1Lyz8TQ9AEVJz-1" source="IiozGlmvBU9Abtx-Aspz-154" target="IiozGlmvBU9Abtx-Aspz-157">
          <mxGeometry relative="1" as="geometry">
            <mxPoint x="432" y="-97.5" as="targetPoint" />
            <mxPoint x="339.99999999999994" y="-35" as="sourcePoint" />
          </mxGeometry>
        </mxCell>
        <mxCell id="IiozGlmvBU9Abtx-Aspz-156" style="edgeStyle=elbowEdgeStyle;rounded=0;orthogonalLoop=1;jettySize=auto;html=1;exitX=0;exitY=0.5;exitDx=0;exitDy=0;exitPerimeter=0;entryX=0;entryY=0.5;entryDx=0;entryDy=0;startArrow=none;startFill=0;endArrow=open;endFill=0;dashed=1;" edge="1" parent="ZVou1dZ1Lyz8TQ9AEVJz-1" source="IiozGlmvBU9Abtx-Aspz-157" target="IiozGlmvBU9Abtx-Aspz-153">
          <mxGeometry relative="1" as="geometry">
            <mxPoint x="810" y="225" as="sourcePoint" />
          </mxGeometry>
        </mxCell>
        <mxCell id="IiozGlmvBU9Abtx-Aspz-157" value="" style="shape=requiredInterface;html=1;verticalLabelPosition=bottom;rounded=0;rotation=-180;" vertex="1" parent="ZVou1dZ1Lyz8TQ9AEVJz-1">
          <mxGeometry x="730" y="180" width="10" height="20" as="geometry" />
        </mxCell>
        <mxCell id="IiozGlmvBU9Abtx-Aspz-158" value="" style="edgeStyle=none;rounded=0;orthogonalLoop=1;jettySize=auto;html=1;startArrow=none;startFill=0;endArrow=none;endFill=0;entryX=1;entryY=0.5;entryDx=0;entryDy=0;" edge="1" parent="ZVou1dZ1Lyz8TQ9AEVJz-1" source="IiozGlmvBU9Abtx-Aspz-160" target="IiozGlmvBU9Abtx-Aspz-161">
          <mxGeometry relative="1" as="geometry">
            <mxPoint x="814" y="65.5" as="targetPoint" />
          </mxGeometry>
        </mxCell>
        <mxCell id="IiozGlmvBU9Abtx-Aspz-159" value="scan" style="text;html=1;align=center;verticalAlign=middle;resizable=0;points=[];labelBackgroundColor=#ffffff;" vertex="1" connectable="0" parent="IiozGlmvBU9Abtx-Aspz-158">
          <mxGeometry x="0.3763" relative="1" as="geometry">
            <mxPoint x="-5.000000000000001" y="-12.5" as="offset" />
          </mxGeometry>
        </mxCell>
        <mxCell id="IiozGlmvBU9Abtx-Aspz-160" value="" style="whiteSpace=wrap;html=1;aspect=fixed;" vertex="1" parent="ZVou1dZ1Lyz8TQ9AEVJz-1">
          <mxGeometry x="530" y="180" width="5" height="5" as="geometry" />
        </mxCell>
        <mxCell id="IiozGlmvBU9Abtx-Aspz-161" value="" style="ellipse;whiteSpace=wrap;html=1;aspect=fixed;rounded=0;" vertex="1" parent="ZVou1dZ1Lyz8TQ9AEVJz-1">
          <mxGeometry x="510" y="180" width="5" height="5" as="geometry" />
        </mxCell>
        <mxCell id="IiozGlmvBU9Abtx-Aspz-162" value="" style="edgeStyle=none;rounded=0;orthogonalLoop=1;jettySize=auto;html=1;startArrow=none;startFill=0;endArrow=none;endFill=0;entryX=1;entryY=0.5;entryDx=0;entryDy=0;entryPerimeter=0;" edge="1" parent="ZVou1dZ1Lyz8TQ9AEVJz-1" source="IiozGlmvBU9Abtx-Aspz-163" target="IiozGlmvBU9Abtx-Aspz-166">
          <mxGeometry relative="1" as="geometry">
            <mxPoint x="490.00000000000006" y="265" as="targetPoint" />
          </mxGeometry>
        </mxCell>
        <mxCell id="IiozGlmvBU9Abtx-Aspz-163" value="" style="whiteSpace=wrap;html=1;aspect=fixed;" vertex="1" parent="ZVou1dZ1Lyz8TQ9AEVJz-1">
          <mxGeometry x="373.00000000000006" y="365" width="5" height="5" as="geometry" />
        </mxCell>
        <mxCell id="IiozGlmvBU9Abtx-Aspz-164" value="" style="whiteSpace=wrap;html=1;aspect=fixed;" vertex="1" parent="ZVou1dZ1Lyz8TQ9AEVJz-1">
          <mxGeometry x="438.00000000000006" y="365" width="5" height="5" as="geometry" />
        </mxCell>
        <mxCell id="IiozGlmvBU9Abtx-Aspz-165" style="edgeStyle=none;rounded=0;orthogonalLoop=1;jettySize=auto;html=1;exitX=0;exitY=0.5;exitDx=0;exitDy=0;exitPerimeter=0;entryX=0;entryY=0.5;entryDx=0;entryDy=0;startArrow=none;startFill=0;endArrow=none;endFill=0;" edge="1" parent="ZVou1dZ1Lyz8TQ9AEVJz-1" source="IiozGlmvBU9Abtx-Aspz-166" target="IiozGlmvBU9Abtx-Aspz-164">
          <mxGeometry relative="1" as="geometry" />
        </mxCell>
        <mxCell id="IiozGlmvBU9Abtx-Aspz-166" value="" style="shape=requiredInterface;html=1;verticalLabelPosition=bottom;rounded=0;rotation=-180;" vertex="1" parent="ZVou1dZ1Lyz8TQ9AEVJz-1">
          <mxGeometry x="390.00000000000006" y="357.5" width="10" height="20" as="geometry" />
        </mxCell>
        <mxCell id="IiozGlmvBU9Abtx-Aspz-167" value="" style="edgeStyle=none;rounded=0;orthogonalLoop=1;jettySize=auto;html=1;startArrow=none;startFill=0;endArrow=none;endFill=0;entryX=1;entryY=0.5;entryDx=0;entryDy=0;entryPerimeter=0;exitX=1;exitY=0.5;exitDx=0;exitDy=0;" edge="1" parent="ZVou1dZ1Lyz8TQ9AEVJz-1" source="IiozGlmvBU9Abtx-Aspz-164" target="IiozGlmvBU9Abtx-Aspz-169">
          <mxGeometry relative="1" as="geometry">
            <mxPoint x="500.00000000000006" y="275" as="targetPoint" />
            <mxPoint x="408" y="337.5" as="sourcePoint" />
          </mxGeometry>
        </mxCell>
        <mxCell id="IiozGlmvBU9Abtx-Aspz-168" style="edgeStyle=orthogonalEdgeStyle;rounded=0;orthogonalLoop=1;jettySize=auto;html=1;exitX=0;exitY=0.5;exitDx=0;exitDy=0;exitPerimeter=0;entryX=0;entryY=0.5;entryDx=0;entryDy=0;startArrow=none;startFill=0;endArrow=open;endFill=0;dashed=1;elbow=vertical;" edge="1" parent="ZVou1dZ1Lyz8TQ9AEVJz-1" source="IiozGlmvBU9Abtx-Aspz-169" target="IiozGlmvBU9Abtx-Aspz-127">
          <mxGeometry relative="1" as="geometry" />
        </mxCell>
        <mxCell id="IiozGlmvBU9Abtx-Aspz-169" value="" style="shape=requiredInterface;html=1;verticalLabelPosition=bottom;rounded=0;rotation=-180;" vertex="1" parent="ZVou1dZ1Lyz8TQ9AEVJz-1">
          <mxGeometry x="460.00000000000006" y="357.5" width="10" height="20" as="geometry" />
        </mxCell>
        <mxCell id="IiozGlmvBU9Abtx-Aspz-184" value="" style="edgeStyle=none;rounded=0;orthogonalLoop=1;jettySize=auto;html=1;startArrow=none;startFill=0;endArrow=none;endFill=0;entryX=1;entryY=0.5;entryDx=0;entryDy=0;entryPerimeter=0;" edge="1" parent="ZVou1dZ1Lyz8TQ9AEVJz-1" source="IiozGlmvBU9Abtx-Aspz-185" target="IiozGlmvBU9Abtx-Aspz-188">
          <mxGeometry relative="1" as="geometry">
            <mxPoint x="500" y="-12.5" as="targetPoint" />
          </mxGeometry>
        </mxCell>
        <mxCell id="IiozGlmvBU9Abtx-Aspz-185" value="" style="whiteSpace=wrap;html=1;aspect=fixed;" vertex="1" parent="ZVou1dZ1Lyz8TQ9AEVJz-1">
          <mxGeometry x="373" y="180" width="5" height="5" as="geometry" />
        </mxCell>
        <mxCell id="IiozGlmvBU9Abtx-Aspz-186" value="" style="whiteSpace=wrap;html=1;aspect=fixed;" vertex="1" parent="ZVou1dZ1Lyz8TQ9AEVJz-1">
          <mxGeometry x="438" y="180" width="5" height="5" as="geometry" />
        </mxCell>
        <mxCell id="IiozGlmvBU9Abtx-Aspz-187" style="edgeStyle=none;rounded=0;orthogonalLoop=1;jettySize=auto;html=1;exitX=0;exitY=0.5;exitDx=0;exitDy=0;exitPerimeter=0;entryX=0;entryY=0.5;entryDx=0;entryDy=0;startArrow=none;startFill=0;endArrow=none;endFill=0;" edge="1" parent="ZVou1dZ1Lyz8TQ9AEVJz-1" source="IiozGlmvBU9Abtx-Aspz-188" target="IiozGlmvBU9Abtx-Aspz-186">
          <mxGeometry relative="1" as="geometry" />
        </mxCell>
        <mxCell id="IiozGlmvBU9Abtx-Aspz-188" value="" style="shape=requiredInterface;html=1;verticalLabelPosition=bottom;rounded=0;rotation=-180;" vertex="1" parent="ZVou1dZ1Lyz8TQ9AEVJz-1">
          <mxGeometry x="390" y="172.5" width="10" height="20" as="geometry" />
        </mxCell>
        <mxCell id="IiozGlmvBU9Abtx-Aspz-189" value="" style="edgeStyle=none;rounded=0;orthogonalLoop=1;jettySize=auto;html=1;startArrow=none;startFill=0;endArrow=none;endFill=0;entryX=1;entryY=0.5;entryDx=0;entryDy=0;entryPerimeter=0;exitX=1;exitY=0.5;exitDx=0;exitDy=0;" edge="1" parent="ZVou1dZ1Lyz8TQ9AEVJz-1" source="IiozGlmvBU9Abtx-Aspz-186" target="IiozGlmvBU9Abtx-Aspz-191">
          <mxGeometry relative="1" as="geometry">
            <mxPoint x="510" y="-2.5" as="targetPoint" />
            <mxPoint x="417.99999999999994" y="60" as="sourcePoint" />
          </mxGeometry>
        </mxCell>
        <mxCell id="IiozGlmvBU9Abtx-Aspz-190" style="edgeStyle=orthogonalEdgeStyle;rounded=0;orthogonalLoop=1;jettySize=auto;html=1;exitX=0;exitY=0.5;exitDx=0;exitDy=0;exitPerimeter=0;entryX=0;entryY=0.5;entryDx=0;entryDy=0;startArrow=none;startFill=0;endArrow=open;endFill=0;dashed=1;elbow=vertical;" edge="1" parent="ZVou1dZ1Lyz8TQ9AEVJz-1" source="IiozGlmvBU9Abtx-Aspz-191" target="IiozGlmvBU9Abtx-Aspz-161">
          <mxGeometry relative="1" as="geometry">
            <mxPoint x="540" y="182.5" as="targetPoint" />
          </mxGeometry>
        </mxCell>
        <mxCell id="IiozGlmvBU9Abtx-Aspz-191" value="" style="shape=requiredInterface;html=1;verticalLabelPosition=bottom;rounded=0;rotation=-180;" vertex="1" parent="ZVou1dZ1Lyz8TQ9AEVJz-1">
          <mxGeometry x="460" y="172.5" width="10" height="20" as="geometry" />
        </mxCell>
        <mxCell id="IiozGlmvBU9Abtx-Aspz-206" value="" style="edgeStyle=none;rounded=0;orthogonalLoop=1;jettySize=auto;html=1;startArrow=none;startFill=0;endArrow=none;endFill=0;entryX=1;entryY=0.5;entryDx=0;entryDy=0;entryPerimeter=0;" edge="1" parent="ZVou1dZ1Lyz8TQ9AEVJz-1" source="IiozGlmvBU9Abtx-Aspz-207" target="IiozGlmvBU9Abtx-Aspz-210">
          <mxGeometry relative="1" as="geometry">
            <mxPoint x="510" y="140" as="targetPoint" />
          </mxGeometry>
        </mxCell>
        <mxCell id="IiozGlmvBU9Abtx-Aspz-207" value="" style="whiteSpace=wrap;html=1;aspect=fixed;" vertex="1" parent="ZVou1dZ1Lyz8TQ9AEVJz-1">
          <mxGeometry x="373" y="482.5" width="5" height="5" as="geometry" />
        </mxCell>
        <mxCell id="IiozGlmvBU9Abtx-Aspz-208" value="" style="whiteSpace=wrap;html=1;aspect=fixed;" vertex="1" parent="ZVou1dZ1Lyz8TQ9AEVJz-1">
          <mxGeometry x="438" y="482.5" width="5" height="5" as="geometry" />
        </mxCell>
        <mxCell id="IiozGlmvBU9Abtx-Aspz-209" style="edgeStyle=none;rounded=0;orthogonalLoop=1;jettySize=auto;html=1;exitX=0;exitY=0.5;exitDx=0;exitDy=0;exitPerimeter=0;entryX=0;entryY=0.5;entryDx=0;entryDy=0;startArrow=none;startFill=0;endArrow=none;endFill=0;" edge="1" parent="ZVou1dZ1Lyz8TQ9AEVJz-1" source="IiozGlmvBU9Abtx-Aspz-210" target="IiozGlmvBU9Abtx-Aspz-208">
          <mxGeometry relative="1" as="geometry" />
        </mxCell>
        <mxCell id="IiozGlmvBU9Abtx-Aspz-210" value="" style="shape=requiredInterface;html=1;verticalLabelPosition=bottom;rounded=0;rotation=-180;" vertex="1" parent="ZVou1dZ1Lyz8TQ9AEVJz-1">
          <mxGeometry x="390" y="475" width="10" height="20" as="geometry" />
        </mxCell>
        <mxCell id="IiozGlmvBU9Abtx-Aspz-211" value="" style="edgeStyle=none;rounded=0;orthogonalLoop=1;jettySize=auto;html=1;startArrow=none;startFill=0;endArrow=none;endFill=0;entryX=1;entryY=0.5;entryDx=0;entryDy=0;entryPerimeter=0;exitX=1;exitY=0.5;exitDx=0;exitDy=0;" edge="1" parent="ZVou1dZ1Lyz8TQ9AEVJz-1" source="IiozGlmvBU9Abtx-Aspz-208" target="IiozGlmvBU9Abtx-Aspz-212">
          <mxGeometry relative="1" as="geometry">
            <mxPoint x="520" y="150" as="targetPoint" />
            <mxPoint x="427.99999999999994" y="212.5" as="sourcePoint" />
          </mxGeometry>
        </mxCell>
        <mxCell id="IiozGlmvBU9Abtx-Aspz-388" style="edgeStyle=orthogonalEdgeStyle;rounded=0;orthogonalLoop=1;jettySize=auto;html=1;entryX=0;entryY=0.5;entryDx=0;entryDy=0;startArrow=none;startFill=0;endArrow=open;endFill=0;dashed=1;" edge="1" parent="ZVou1dZ1Lyz8TQ9AEVJz-1" source="IiozGlmvBU9Abtx-Aspz-212" target="IiozGlmvBU9Abtx-Aspz-382">
          <mxGeometry relative="1" as="geometry" />
        </mxCell>
        <mxCell id="IiozGlmvBU9Abtx-Aspz-212" value="" style="shape=requiredInterface;html=1;verticalLabelPosition=bottom;rounded=0;rotation=-180;" vertex="1" parent="ZVou1dZ1Lyz8TQ9AEVJz-1">
          <mxGeometry x="460" y="475" width="10" height="20" as="geometry" />
        </mxCell>
        <mxCell id="IiozGlmvBU9Abtx-Aspz-214" value="" style="rounded=0;orthogonalLoop=1;jettySize=auto;html=1;startArrow=none;startFill=0;endArrow=none;endFill=0;entryX=1;entryY=0.5;entryDx=0;entryDy=0;exitX=0;exitY=0.5;exitDx=0;exitDy=0;" edge="1" parent="ZVou1dZ1Lyz8TQ9AEVJz-1" source="IiozGlmvBU9Abtx-Aspz-253" target="IiozGlmvBU9Abtx-Aspz-217">
          <mxGeometry relative="1" as="geometry">
            <mxPoint x="541" y="31.060000000000002" as="targetPoint" />
            <mxPoint x="591" y="421.05999999999995" as="sourcePoint" />
          </mxGeometry>
        </mxCell>
        <mxCell id="IiozGlmvBU9Abtx-Aspz-215" value="users" style="text;html=1;align=center;verticalAlign=middle;resizable=0;points=[];labelBackgroundColor=#ffffff;" vertex="1" connectable="0" parent="IiozGlmvBU9Abtx-Aspz-214">
          <mxGeometry x="0.3763" relative="1" as="geometry">
            <mxPoint x="-14.499999999999998" y="-16.06" as="offset" />
          </mxGeometry>
        </mxCell>
        <mxCell id="IiozGlmvBU9Abtx-Aspz-217" value="" style="ellipse;whiteSpace=wrap;html=1;aspect=fixed;rounded=0;" vertex="1" parent="ZVou1dZ1Lyz8TQ9AEVJz-1">
          <mxGeometry x="532" y="443.55999999999995" width="5" height="5" as="geometry" />
        </mxCell>
        <mxCell id="IiozGlmvBU9Abtx-Aspz-242" value="" style="edgeStyle=none;rounded=0;orthogonalLoop=1;jettySize=auto;html=1;startArrow=none;startFill=0;endArrow=none;endFill=0;entryX=1;entryY=0.5;entryDx=0;entryDy=0;entryPerimeter=0;" edge="1" parent="ZVou1dZ1Lyz8TQ9AEVJz-1" source="IiozGlmvBU9Abtx-Aspz-243" target="IiozGlmvBU9Abtx-Aspz-246">
          <mxGeometry relative="1" as="geometry">
            <mxPoint x="510" y="270" as="targetPoint" />
          </mxGeometry>
        </mxCell>
        <mxCell id="IiozGlmvBU9Abtx-Aspz-243" value="" style="whiteSpace=wrap;html=1;aspect=fixed;" vertex="1" parent="ZVou1dZ1Lyz8TQ9AEVJz-1">
          <mxGeometry x="373" y="612.5" width="5" height="5" as="geometry" />
        </mxCell>
        <mxCell id="IiozGlmvBU9Abtx-Aspz-244" value="" style="whiteSpace=wrap;html=1;aspect=fixed;" vertex="1" parent="ZVou1dZ1Lyz8TQ9AEVJz-1">
          <mxGeometry x="438" y="612.5" width="5" height="5" as="geometry" />
        </mxCell>
        <mxCell id="IiozGlmvBU9Abtx-Aspz-245" style="edgeStyle=none;rounded=0;orthogonalLoop=1;jettySize=auto;html=1;exitX=0;exitY=0.5;exitDx=0;exitDy=0;exitPerimeter=0;entryX=0;entryY=0.5;entryDx=0;entryDy=0;startArrow=none;startFill=0;endArrow=none;endFill=0;" edge="1" parent="ZVou1dZ1Lyz8TQ9AEVJz-1" source="IiozGlmvBU9Abtx-Aspz-246" target="IiozGlmvBU9Abtx-Aspz-244">
          <mxGeometry relative="1" as="geometry" />
        </mxCell>
        <mxCell id="IiozGlmvBU9Abtx-Aspz-246" value="" style="shape=requiredInterface;html=1;verticalLabelPosition=bottom;rounded=0;rotation=-180;" vertex="1" parent="ZVou1dZ1Lyz8TQ9AEVJz-1">
          <mxGeometry x="390" y="605" width="10" height="20" as="geometry" />
        </mxCell>
        <mxCell id="IiozGlmvBU9Abtx-Aspz-247" value="" style="edgeStyle=none;rounded=0;orthogonalLoop=1;jettySize=auto;html=1;startArrow=none;startFill=0;endArrow=none;endFill=0;entryX=1;entryY=0.5;entryDx=0;entryDy=0;entryPerimeter=0;exitX=1;exitY=0.5;exitDx=0;exitDy=0;" edge="1" parent="ZVou1dZ1Lyz8TQ9AEVJz-1" source="IiozGlmvBU9Abtx-Aspz-244" target="IiozGlmvBU9Abtx-Aspz-248">
          <mxGeometry relative="1" as="geometry">
            <mxPoint x="520" y="280" as="targetPoint" />
            <mxPoint x="427.99999999999994" y="342.5" as="sourcePoint" />
          </mxGeometry>
        </mxCell>
        <mxCell id="IiozGlmvBU9Abtx-Aspz-389" style="edgeStyle=orthogonalEdgeStyle;rounded=0;orthogonalLoop=1;jettySize=auto;html=1;entryX=0;entryY=0.5;entryDx=0;entryDy=0;dashed=1;startArrow=none;startFill=0;endArrow=open;endFill=0;" edge="1" parent="ZVou1dZ1Lyz8TQ9AEVJz-1" source="IiozGlmvBU9Abtx-Aspz-248" target="IiozGlmvBU9Abtx-Aspz-386">
          <mxGeometry relative="1" as="geometry" />
        </mxCell>
        <mxCell id="IiozGlmvBU9Abtx-Aspz-248" value="" style="shape=requiredInterface;html=1;verticalLabelPosition=bottom;rounded=0;rotation=-180;" vertex="1" parent="ZVou1dZ1Lyz8TQ9AEVJz-1">
          <mxGeometry x="460" y="605" width="10" height="20" as="geometry" />
        </mxCell>
        <mxCell id="IiozGlmvBU9Abtx-Aspz-253" value="" style="whiteSpace=wrap;html=1;aspect=fixed;" vertex="1" parent="ZVou1dZ1Lyz8TQ9AEVJz-1">
          <mxGeometry x="591" y="443.55999999999995" width="5" height="5" as="geometry" />
        </mxCell>
        <mxCell id="IiozGlmvBU9Abtx-Aspz-282" value="" style="edgeStyle=none;rounded=0;orthogonalLoop=1;jettySize=auto;html=1;startArrow=none;startFill=0;endArrow=none;endFill=0;entryX=1;entryY=0.5;entryDx=0;entryDy=0;" edge="1" parent="ZVou1dZ1Lyz8TQ9AEVJz-1" source="IiozGlmvBU9Abtx-Aspz-284" target="IiozGlmvBU9Abtx-Aspz-285">
          <mxGeometry relative="1" as="geometry">
            <mxPoint x="448.00000000000006" y="200.5" as="targetPoint" />
          </mxGeometry>
        </mxCell>
        <mxCell id="IiozGlmvBU9Abtx-Aspz-284" value="" style="whiteSpace=wrap;html=1;aspect=fixed;" vertex="1" parent="ZVou1dZ1Lyz8TQ9AEVJz-1">
          <mxGeometry x="191.99999999999997" y="315" width="5" height="5" as="geometry" />
        </mxCell>
        <mxCell id="IiozGlmvBU9Abtx-Aspz-289" style="edgeStyle=orthogonalEdgeStyle;rounded=0;orthogonalLoop=1;jettySize=auto;html=1;entryX=1;entryY=0.5;entryDx=0;entryDy=0;startArrow=none;startFill=0;endArrow=none;endFill=0;" edge="1" parent="ZVou1dZ1Lyz8TQ9AEVJz-1" source="IiozGlmvBU9Abtx-Aspz-285" target="IiozGlmvBU9Abtx-Aspz-287">
          <mxGeometry relative="1" as="geometry" />
        </mxCell>
        <mxCell id="IiozGlmvBU9Abtx-Aspz-285" value="" style="ellipse;whiteSpace=wrap;html=1;aspect=fixed;rounded=0;" vertex="1" parent="ZVou1dZ1Lyz8TQ9AEVJz-1">
          <mxGeometry x="168.99999999999997" y="315" width="5" height="5" as="geometry" />
        </mxCell>
        <mxCell id="IiozGlmvBU9Abtx-Aspz-286" value="" style="edgeStyle=none;rounded=0;orthogonalLoop=1;jettySize=auto;html=1;startArrow=none;startFill=0;endArrow=none;endFill=0;entryX=1;entryY=0.5;entryDx=0;entryDy=0;" edge="1" parent="ZVou1dZ1Lyz8TQ9AEVJz-1" source="IiozGlmvBU9Abtx-Aspz-287" target="IiozGlmvBU9Abtx-Aspz-288">
          <mxGeometry relative="1" as="geometry">
            <mxPoint x="383.00000000000006" y="200.5" as="targetPoint" />
          </mxGeometry>
        </mxCell>
        <mxCell id="IiozGlmvBU9Abtx-Aspz-290" value="User Authentication" style="text;html=1;align=center;verticalAlign=middle;resizable=0;points=[];labelBackgroundColor=#ffffff;" vertex="1" connectable="0" parent="IiozGlmvBU9Abtx-Aspz-286">
          <mxGeometry x="0.3581" relative="1" as="geometry">
            <mxPoint x="-28.8" y="-17.5" as="offset" />
          </mxGeometry>
        </mxCell>
        <mxCell id="IiozGlmvBU9Abtx-Aspz-287" value="" style="whiteSpace=wrap;html=1;aspect=fixed;" vertex="1" parent="ZVou1dZ1Lyz8TQ9AEVJz-1">
          <mxGeometry x="127" y="315" width="5" height="5" as="geometry" />
        </mxCell>
        <mxCell id="IiozGlmvBU9Abtx-Aspz-288" value="" style="ellipse;whiteSpace=wrap;html=1;aspect=fixed;rounded=0;" vertex="1" parent="ZVou1dZ1Lyz8TQ9AEVJz-1">
          <mxGeometry x="79" y="315" width="5" height="5" as="geometry" />
        </mxCell>
        <mxCell id="IiozGlmvBU9Abtx-Aspz-291" value="" style="edgeStyle=none;rounded=0;orthogonalLoop=1;jettySize=auto;html=1;startArrow=none;startFill=0;endArrow=none;endFill=0;entryX=1;entryY=0.5;entryDx=0;entryDy=0;" edge="1" parent="ZVou1dZ1Lyz8TQ9AEVJz-1" source="IiozGlmvBU9Abtx-Aspz-292" target="IiozGlmvBU9Abtx-Aspz-294">
          <mxGeometry relative="1" as="geometry">
            <mxPoint x="448.00000000000006" y="238" as="targetPoint" />
          </mxGeometry>
        </mxCell>
        <mxCell id="IiozGlmvBU9Abtx-Aspz-292" value="" style="whiteSpace=wrap;html=1;aspect=fixed;" vertex="1" parent="ZVou1dZ1Lyz8TQ9AEVJz-1">
          <mxGeometry x="191.99999999999997" y="352.5" width="5" height="5" as="geometry" />
        </mxCell>
        <mxCell id="IiozGlmvBU9Abtx-Aspz-293" style="edgeStyle=orthogonalEdgeStyle;rounded=0;orthogonalLoop=1;jettySize=auto;html=1;entryX=1;entryY=0.5;entryDx=0;entryDy=0;startArrow=none;startFill=0;endArrow=none;endFill=0;" edge="1" parent="ZVou1dZ1Lyz8TQ9AEVJz-1" source="IiozGlmvBU9Abtx-Aspz-294" target="IiozGlmvBU9Abtx-Aspz-297">
          <mxGeometry relative="1" as="geometry" />
        </mxCell>
        <mxCell id="IiozGlmvBU9Abtx-Aspz-294" value="" style="ellipse;whiteSpace=wrap;html=1;aspect=fixed;rounded=0;" vertex="1" parent="ZVou1dZ1Lyz8TQ9AEVJz-1">
          <mxGeometry x="168.99999999999997" y="352.5" width="5" height="5" as="geometry" />
        </mxCell>
        <mxCell id="IiozGlmvBU9Abtx-Aspz-295" value="" style="edgeStyle=none;rounded=0;orthogonalLoop=1;jettySize=auto;html=1;startArrow=none;startFill=0;endArrow=none;endFill=0;entryX=1;entryY=0.5;entryDx=0;entryDy=0;" edge="1" parent="ZVou1dZ1Lyz8TQ9AEVJz-1" source="IiozGlmvBU9Abtx-Aspz-297" target="IiozGlmvBU9Abtx-Aspz-298">
          <mxGeometry relative="1" as="geometry">
            <mxPoint x="383.00000000000006" y="238" as="targetPoint" />
          </mxGeometry>
        </mxCell>
        <mxCell id="IiozGlmvBU9Abtx-Aspz-296" value="Link ID Document" style="text;html=1;align=center;verticalAlign=middle;resizable=0;points=[];labelBackgroundColor=#ffffff;" vertex="1" connectable="0" parent="IiozGlmvBU9Abtx-Aspz-295">
          <mxGeometry x="0.3581" relative="1" as="geometry">
            <mxPoint x="-28.8" y="-17.5" as="offset" />
          </mxGeometry>
        </mxCell>
        <mxCell id="IiozGlmvBU9Abtx-Aspz-297" value="" style="whiteSpace=wrap;html=1;aspect=fixed;" vertex="1" parent="ZVou1dZ1Lyz8TQ9AEVJz-1">
          <mxGeometry x="127" y="352.5" width="5" height="5" as="geometry" />
        </mxCell>
        <mxCell id="IiozGlmvBU9Abtx-Aspz-298" value="" style="ellipse;whiteSpace=wrap;html=1;aspect=fixed;rounded=0;" vertex="1" parent="ZVou1dZ1Lyz8TQ9AEVJz-1">
          <mxGeometry x="79" y="352.5" width="5" height="5" as="geometry" />
        </mxCell>
        <mxCell id="IiozGlmvBU9Abtx-Aspz-307" value="" style="edgeStyle=none;rounded=0;orthogonalLoop=1;jettySize=auto;html=1;startArrow=none;startFill=0;endArrow=none;endFill=0;entryX=1;entryY=0.5;entryDx=0;entryDy=0;" edge="1" parent="ZVou1dZ1Lyz8TQ9AEVJz-1" source="IiozGlmvBU9Abtx-Aspz-308" target="IiozGlmvBU9Abtx-Aspz-310">
          <mxGeometry relative="1" as="geometry">
            <mxPoint x="448.00000000000006" y="273" as="targetPoint" />
          </mxGeometry>
        </mxCell>
        <mxCell id="IiozGlmvBU9Abtx-Aspz-308" value="" style="whiteSpace=wrap;html=1;aspect=fixed;" vertex="1" parent="ZVou1dZ1Lyz8TQ9AEVJz-1">
          <mxGeometry x="191.99999999999997" y="387.5" width="5" height="5" as="geometry" />
        </mxCell>
        <mxCell id="IiozGlmvBU9Abtx-Aspz-309" style="edgeStyle=orthogonalEdgeStyle;rounded=0;orthogonalLoop=1;jettySize=auto;html=1;entryX=1;entryY=0.5;entryDx=0;entryDy=0;startArrow=none;startFill=0;endArrow=none;endFill=0;" edge="1" parent="ZVou1dZ1Lyz8TQ9AEVJz-1" source="IiozGlmvBU9Abtx-Aspz-310" target="IiozGlmvBU9Abtx-Aspz-313">
          <mxGeometry relative="1" as="geometry" />
        </mxCell>
        <mxCell id="IiozGlmvBU9Abtx-Aspz-310" value="" style="ellipse;whiteSpace=wrap;html=1;aspect=fixed;rounded=0;" vertex="1" parent="ZVou1dZ1Lyz8TQ9AEVJz-1">
          <mxGeometry x="168.99999999999997" y="387.5" width="5" height="5" as="geometry" />
        </mxCell>
        <mxCell id="IiozGlmvBU9Abtx-Aspz-311" value="" style="edgeStyle=none;rounded=0;orthogonalLoop=1;jettySize=auto;html=1;startArrow=none;startFill=0;endArrow=none;endFill=0;entryX=1;entryY=0.5;entryDx=0;entryDy=0;" edge="1" parent="ZVou1dZ1Lyz8TQ9AEVJz-1" source="IiozGlmvBU9Abtx-Aspz-313" target="IiozGlmvBU9Abtx-Aspz-314">
          <mxGeometry relative="1" as="geometry">
            <mxPoint x="383.00000000000006" y="273" as="targetPoint" />
          </mxGeometry>
        </mxCell>
        <mxCell id="IiozGlmvBU9Abtx-Aspz-312" value="Delete User Data" style="text;html=1;align=center;verticalAlign=middle;resizable=0;points=[];labelBackgroundColor=#ffffff;" vertex="1" connectable="0" parent="IiozGlmvBU9Abtx-Aspz-311">
          <mxGeometry x="0.3581" relative="1" as="geometry">
            <mxPoint x="-28.8" y="-17.5" as="offset" />
          </mxGeometry>
        </mxCell>
        <mxCell id="IiozGlmvBU9Abtx-Aspz-313" value="" style="whiteSpace=wrap;html=1;aspect=fixed;" vertex="1" parent="ZVou1dZ1Lyz8TQ9AEVJz-1">
          <mxGeometry x="127" y="387.5" width="5" height="5" as="geometry" />
        </mxCell>
        <mxCell id="IiozGlmvBU9Abtx-Aspz-314" value="" style="ellipse;whiteSpace=wrap;html=1;aspect=fixed;rounded=0;" vertex="1" parent="ZVou1dZ1Lyz8TQ9AEVJz-1">
          <mxGeometry x="79" y="387.5" width="5" height="5" as="geometry" />
        </mxCell>
        <mxCell id="IiozGlmvBU9Abtx-Aspz-315" value="" style="edgeStyle=none;rounded=0;orthogonalLoop=1;jettySize=auto;html=1;startArrow=none;startFill=0;endArrow=none;endFill=0;entryX=1;entryY=0.5;entryDx=0;entryDy=0;" edge="1" parent="ZVou1dZ1Lyz8TQ9AEVJz-1" source="IiozGlmvBU9Abtx-Aspz-316" target="IiozGlmvBU9Abtx-Aspz-318">
          <mxGeometry relative="1" as="geometry">
            <mxPoint x="448" y="78" as="targetPoint" />
          </mxGeometry>
        </mxCell>
        <mxCell id="IiozGlmvBU9Abtx-Aspz-316" value="" style="whiteSpace=wrap;html=1;aspect=fixed;" vertex="1" parent="ZVou1dZ1Lyz8TQ9AEVJz-1">
          <mxGeometry x="192" y="192.5" width="5" height="5" as="geometry" />
        </mxCell>
        <mxCell id="IiozGlmvBU9Abtx-Aspz-317" style="edgeStyle=orthogonalEdgeStyle;rounded=0;orthogonalLoop=1;jettySize=auto;html=1;entryX=1;entryY=0.5;entryDx=0;entryDy=0;startArrow=none;startFill=0;endArrow=none;endFill=0;" edge="1" parent="ZVou1dZ1Lyz8TQ9AEVJz-1" source="IiozGlmvBU9Abtx-Aspz-318" target="IiozGlmvBU9Abtx-Aspz-321">
          <mxGeometry relative="1" as="geometry" />
        </mxCell>
        <mxCell id="IiozGlmvBU9Abtx-Aspz-318" value="" style="ellipse;whiteSpace=wrap;html=1;aspect=fixed;rounded=0;" vertex="1" parent="ZVou1dZ1Lyz8TQ9AEVJz-1">
          <mxGeometry x="169" y="192.5" width="5" height="5" as="geometry" />
        </mxCell>
        <mxCell id="IiozGlmvBU9Abtx-Aspz-319" value="" style="edgeStyle=none;rounded=0;orthogonalLoop=1;jettySize=auto;html=1;startArrow=none;startFill=0;endArrow=none;endFill=0;entryX=1;entryY=0.5;entryDx=0;entryDy=0;" edge="1" parent="ZVou1dZ1Lyz8TQ9AEVJz-1" source="IiozGlmvBU9Abtx-Aspz-321" target="IiozGlmvBU9Abtx-Aspz-322">
          <mxGeometry relative="1" as="geometry">
            <mxPoint x="383" y="78" as="targetPoint" />
          </mxGeometry>
        </mxCell>
        <mxCell id="IiozGlmvBU9Abtx-Aspz-320" value="View Access Metrics" style="text;html=1;align=center;verticalAlign=middle;resizable=0;points=[];labelBackgroundColor=#ffffff;" vertex="1" connectable="0" parent="IiozGlmvBU9Abtx-Aspz-319">
          <mxGeometry x="0.3581" relative="1" as="geometry">
            <mxPoint x="-28.8" y="-17.5" as="offset" />
          </mxGeometry>
        </mxCell>
        <mxCell id="IiozGlmvBU9Abtx-Aspz-321" value="" style="whiteSpace=wrap;html=1;aspect=fixed;" vertex="1" parent="ZVou1dZ1Lyz8TQ9AEVJz-1">
          <mxGeometry x="127" y="192.5" width="5" height="5" as="geometry" />
        </mxCell>
        <mxCell id="IiozGlmvBU9Abtx-Aspz-322" value="" style="ellipse;whiteSpace=wrap;html=1;aspect=fixed;rounded=0;" vertex="1" parent="ZVou1dZ1Lyz8TQ9AEVJz-1">
          <mxGeometry x="79" y="192.5" width="5" height="5" as="geometry" />
        </mxCell>
        <mxCell id="IiozGlmvBU9Abtx-Aspz-331" value="" style="edgeStyle=none;rounded=0;orthogonalLoop=1;jettySize=auto;html=1;startArrow=none;startFill=0;endArrow=none;endFill=0;entryX=1;entryY=0.5;entryDx=0;entryDy=0;" edge="1" parent="ZVou1dZ1Lyz8TQ9AEVJz-1" source="IiozGlmvBU9Abtx-Aspz-332" target="IiozGlmvBU9Abtx-Aspz-334">
          <mxGeometry relative="1" as="geometry">
            <mxPoint x="448" y="125.5" as="targetPoint" />
          </mxGeometry>
        </mxCell>
        <mxCell id="IiozGlmvBU9Abtx-Aspz-332" value="" style="whiteSpace=wrap;html=1;aspect=fixed;" vertex="1" parent="ZVou1dZ1Lyz8TQ9AEVJz-1">
          <mxGeometry x="192" y="240" width="5" height="5" as="geometry" />
        </mxCell>
        <mxCell id="IiozGlmvBU9Abtx-Aspz-333" style="edgeStyle=orthogonalEdgeStyle;rounded=0;orthogonalLoop=1;jettySize=auto;html=1;entryX=1;entryY=0.5;entryDx=0;entryDy=0;startArrow=none;startFill=0;endArrow=none;endFill=0;" edge="1" parent="ZVou1dZ1Lyz8TQ9AEVJz-1" source="IiozGlmvBU9Abtx-Aspz-334" target="IiozGlmvBU9Abtx-Aspz-337">
          <mxGeometry relative="1" as="geometry" />
        </mxCell>
        <mxCell id="IiozGlmvBU9Abtx-Aspz-334" value="" style="ellipse;whiteSpace=wrap;html=1;aspect=fixed;rounded=0;" vertex="1" parent="ZVou1dZ1Lyz8TQ9AEVJz-1">
          <mxGeometry x="169" y="240" width="5" height="5" as="geometry" />
        </mxCell>
        <mxCell id="IiozGlmvBU9Abtx-Aspz-335" value="" style="edgeStyle=none;rounded=0;orthogonalLoop=1;jettySize=auto;html=1;startArrow=none;startFill=0;endArrow=none;endFill=0;entryX=1;entryY=0.5;entryDx=0;entryDy=0;" edge="1" parent="ZVou1dZ1Lyz8TQ9AEVJz-1" source="IiozGlmvBU9Abtx-Aspz-337" target="IiozGlmvBU9Abtx-Aspz-338">
          <mxGeometry relative="1" as="geometry">
            <mxPoint x="383" y="125.5" as="targetPoint" />
          </mxGeometry>
        </mxCell>
        <mxCell id="IiozGlmvBU9Abtx-Aspz-336" value="Allow/Deny Access" style="text;html=1;align=center;verticalAlign=middle;resizable=0;points=[];labelBackgroundColor=#ffffff;" vertex="1" connectable="0" parent="IiozGlmvBU9Abtx-Aspz-335">
          <mxGeometry x="0.3581" relative="1" as="geometry">
            <mxPoint x="-28.8" y="-17.5" as="offset" />
          </mxGeometry>
        </mxCell>
        <mxCell id="IiozGlmvBU9Abtx-Aspz-337" value="" style="whiteSpace=wrap;html=1;aspect=fixed;" vertex="1" parent="ZVou1dZ1Lyz8TQ9AEVJz-1">
          <mxGeometry x="127" y="240" width="5" height="5" as="geometry" />
        </mxCell>
        <mxCell id="IiozGlmvBU9Abtx-Aspz-338" value="" style="ellipse;whiteSpace=wrap;html=1;aspect=fixed;rounded=0;" vertex="1" parent="ZVou1dZ1Lyz8TQ9AEVJz-1">
          <mxGeometry x="79" y="240" width="5" height="5" as="geometry" />
        </mxCell>
        <mxCell id="IiozGlmvBU9Abtx-Aspz-339" value="" style="edgeStyle=none;rounded=0;orthogonalLoop=1;jettySize=auto;html=1;startArrow=none;startFill=0;endArrow=none;endFill=0;entryX=1;entryY=0.5;entryDx=0;entryDy=0;" edge="1" parent="ZVou1dZ1Lyz8TQ9AEVJz-1" source="IiozGlmvBU9Abtx-Aspz-340" target="IiozGlmvBU9Abtx-Aspz-342">
          <mxGeometry relative="1" as="geometry">
            <mxPoint x="448" y="348" as="targetPoint" />
          </mxGeometry>
        </mxCell>
        <mxCell id="IiozGlmvBU9Abtx-Aspz-340" value="" style="whiteSpace=wrap;html=1;aspect=fixed;" vertex="1" parent="ZVou1dZ1Lyz8TQ9AEVJz-1">
          <mxGeometry x="192" y="462.5" width="5" height="5" as="geometry" />
        </mxCell>
        <mxCell id="IiozGlmvBU9Abtx-Aspz-341" style="edgeStyle=orthogonalEdgeStyle;rounded=0;orthogonalLoop=1;jettySize=auto;html=1;entryX=1;entryY=0.5;entryDx=0;entryDy=0;startArrow=none;startFill=0;endArrow=none;endFill=0;" edge="1" parent="ZVou1dZ1Lyz8TQ9AEVJz-1" source="IiozGlmvBU9Abtx-Aspz-342" target="IiozGlmvBU9Abtx-Aspz-345">
          <mxGeometry relative="1" as="geometry" />
        </mxCell>
        <mxCell id="IiozGlmvBU9Abtx-Aspz-342" value="" style="ellipse;whiteSpace=wrap;html=1;aspect=fixed;rounded=0;" vertex="1" parent="ZVou1dZ1Lyz8TQ9AEVJz-1">
          <mxGeometry x="169" y="462.5" width="5" height="5" as="geometry" />
        </mxCell>
        <mxCell id="IiozGlmvBU9Abtx-Aspz-343" value="" style="edgeStyle=none;rounded=0;orthogonalLoop=1;jettySize=auto;html=1;startArrow=none;startFill=0;endArrow=none;endFill=0;entryX=1;entryY=0.5;entryDx=0;entryDy=0;" edge="1" parent="ZVou1dZ1Lyz8TQ9AEVJz-1" source="IiozGlmvBU9Abtx-Aspz-345" target="IiozGlmvBU9Abtx-Aspz-346">
          <mxGeometry relative="1" as="geometry">
            <mxPoint x="383" y="348" as="targetPoint" />
          </mxGeometry>
        </mxCell>
        <mxCell id="IiozGlmvBU9Abtx-Aspz-344" value="Create/Edit Space" style="text;html=1;align=center;verticalAlign=middle;resizable=0;points=[];labelBackgroundColor=#ffffff;" vertex="1" connectable="0" parent="IiozGlmvBU9Abtx-Aspz-343">
          <mxGeometry x="0.3581" relative="1" as="geometry">
            <mxPoint x="-28.8" y="-17.5" as="offset" />
          </mxGeometry>
        </mxCell>
        <mxCell id="IiozGlmvBU9Abtx-Aspz-345" value="" style="whiteSpace=wrap;html=1;aspect=fixed;" vertex="1" parent="ZVou1dZ1Lyz8TQ9AEVJz-1">
          <mxGeometry x="127" y="462.5" width="5" height="5" as="geometry" />
        </mxCell>
        <mxCell id="IiozGlmvBU9Abtx-Aspz-346" value="" style="ellipse;whiteSpace=wrap;html=1;aspect=fixed;rounded=0;" vertex="1" parent="ZVou1dZ1Lyz8TQ9AEVJz-1">
          <mxGeometry x="79" y="462.5" width="5" height="5" as="geometry" />
        </mxCell>
        <mxCell id="IiozGlmvBU9Abtx-Aspz-347" value="" style="edgeStyle=none;rounded=0;orthogonalLoop=1;jettySize=auto;html=1;startArrow=none;startFill=0;endArrow=none;endFill=0;entryX=1;entryY=0.5;entryDx=0;entryDy=0;" edge="1" parent="ZVou1dZ1Lyz8TQ9AEVJz-1" source="IiozGlmvBU9Abtx-Aspz-348" target="IiozGlmvBU9Abtx-Aspz-350">
          <mxGeometry relative="1" as="geometry">
            <mxPoint x="448" y="393" as="targetPoint" />
          </mxGeometry>
        </mxCell>
        <mxCell id="IiozGlmvBU9Abtx-Aspz-348" value="" style="whiteSpace=wrap;html=1;aspect=fixed;" vertex="1" parent="ZVou1dZ1Lyz8TQ9AEVJz-1">
          <mxGeometry x="192" y="507.5" width="5" height="5" as="geometry" />
        </mxCell>
        <mxCell id="IiozGlmvBU9Abtx-Aspz-349" style="edgeStyle=orthogonalEdgeStyle;rounded=0;orthogonalLoop=1;jettySize=auto;html=1;entryX=1;entryY=0.5;entryDx=0;entryDy=0;startArrow=none;startFill=0;endArrow=none;endFill=0;" edge="1" parent="ZVou1dZ1Lyz8TQ9AEVJz-1" source="IiozGlmvBU9Abtx-Aspz-350" target="IiozGlmvBU9Abtx-Aspz-353">
          <mxGeometry relative="1" as="geometry" />
        </mxCell>
        <mxCell id="IiozGlmvBU9Abtx-Aspz-350" value="" style="ellipse;whiteSpace=wrap;html=1;aspect=fixed;rounded=0;" vertex="1" parent="ZVou1dZ1Lyz8TQ9AEVJz-1">
          <mxGeometry x="169" y="507.5" width="5" height="5" as="geometry" />
        </mxCell>
        <mxCell id="IiozGlmvBU9Abtx-Aspz-351" value="" style="edgeStyle=none;rounded=0;orthogonalLoop=1;jettySize=auto;html=1;startArrow=none;startFill=0;endArrow=none;endFill=0;entryX=1;entryY=0.5;entryDx=0;entryDy=0;" edge="1" parent="ZVou1dZ1Lyz8TQ9AEVJz-1" source="IiozGlmvBU9Abtx-Aspz-353" target="IiozGlmvBU9Abtx-Aspz-354">
          <mxGeometry relative="1" as="geometry">
            <mxPoint x="383" y="393" as="targetPoint" />
          </mxGeometry>
        </mxCell>
        <mxCell id="IiozGlmvBU9Abtx-Aspz-352" value="Delete Space" style="text;html=1;align=center;verticalAlign=middle;resizable=0;points=[];labelBackgroundColor=#ffffff;" vertex="1" connectable="0" parent="IiozGlmvBU9Abtx-Aspz-351">
          <mxGeometry x="0.3581" relative="1" as="geometry">
            <mxPoint x="-28.8" y="-17.5" as="offset" />
          </mxGeometry>
        </mxCell>
        <mxCell id="IiozGlmvBU9Abtx-Aspz-353" value="" style="whiteSpace=wrap;html=1;aspect=fixed;" vertex="1" parent="ZVou1dZ1Lyz8TQ9AEVJz-1">
          <mxGeometry x="127" y="507.5" width="5" height="5" as="geometry" />
        </mxCell>
        <mxCell id="IiozGlmvBU9Abtx-Aspz-354" value="" style="ellipse;whiteSpace=wrap;html=1;aspect=fixed;rounded=0;" vertex="1" parent="ZVou1dZ1Lyz8TQ9AEVJz-1">
          <mxGeometry x="79" y="507.5" width="5" height="5" as="geometry" />
        </mxCell>
        <mxCell id="IiozGlmvBU9Abtx-Aspz-363" value="" style="edgeStyle=none;rounded=0;orthogonalLoop=1;jettySize=auto;html=1;startArrow=none;startFill=0;endArrow=none;endFill=0;entryX=1;entryY=0.5;entryDx=0;entryDy=0;" edge="1" parent="ZVou1dZ1Lyz8TQ9AEVJz-1" source="IiozGlmvBU9Abtx-Aspz-364" target="IiozGlmvBU9Abtx-Aspz-366">
          <mxGeometry relative="1" as="geometry">
            <mxPoint x="448" y="474.06" as="targetPoint" />
          </mxGeometry>
        </mxCell>
        <mxCell id="IiozGlmvBU9Abtx-Aspz-364" value="" style="whiteSpace=wrap;html=1;aspect=fixed;" vertex="1" parent="ZVou1dZ1Lyz8TQ9AEVJz-1">
          <mxGeometry x="192" y="588.56" width="5" height="5" as="geometry" />
        </mxCell>
        <mxCell id="IiozGlmvBU9Abtx-Aspz-365" style="edgeStyle=orthogonalEdgeStyle;rounded=0;orthogonalLoop=1;jettySize=auto;html=1;entryX=1;entryY=0.5;entryDx=0;entryDy=0;startArrow=none;startFill=0;endArrow=none;endFill=0;" edge="1" parent="ZVou1dZ1Lyz8TQ9AEVJz-1" source="IiozGlmvBU9Abtx-Aspz-366" target="IiozGlmvBU9Abtx-Aspz-369">
          <mxGeometry relative="1" as="geometry" />
        </mxCell>
        <mxCell id="IiozGlmvBU9Abtx-Aspz-366" value="" style="ellipse;whiteSpace=wrap;html=1;aspect=fixed;rounded=0;" vertex="1" parent="ZVou1dZ1Lyz8TQ9AEVJz-1">
          <mxGeometry x="169" y="588.56" width="5" height="5" as="geometry" />
        </mxCell>
        <mxCell id="IiozGlmvBU9Abtx-Aspz-367" value="" style="edgeStyle=none;rounded=0;orthogonalLoop=1;jettySize=auto;html=1;startArrow=none;startFill=0;endArrow=none;endFill=0;entryX=1;entryY=0.5;entryDx=0;entryDy=0;" edge="1" parent="ZVou1dZ1Lyz8TQ9AEVJz-1" source="IiozGlmvBU9Abtx-Aspz-369" target="IiozGlmvBU9Abtx-Aspz-370">
          <mxGeometry relative="1" as="geometry">
            <mxPoint x="383" y="474.06" as="targetPoint" />
          </mxGeometry>
        </mxCell>
        <mxCell id="IiozGlmvBU9Abtx-Aspz-368" value="Create Invite Code" style="text;html=1;align=center;verticalAlign=middle;resizable=0;points=[];labelBackgroundColor=#ffffff;" vertex="1" connectable="0" parent="IiozGlmvBU9Abtx-Aspz-367">
          <mxGeometry x="0.3581" relative="1" as="geometry">
            <mxPoint x="-28.8" y="-17.5" as="offset" />
          </mxGeometry>
        </mxCell>
        <mxCell id="IiozGlmvBU9Abtx-Aspz-369" value="" style="whiteSpace=wrap;html=1;aspect=fixed;" vertex="1" parent="ZVou1dZ1Lyz8TQ9AEVJz-1">
          <mxGeometry x="127" y="588.56" width="5" height="5" as="geometry" />
        </mxCell>
        <mxCell id="IiozGlmvBU9Abtx-Aspz-370" value="" style="ellipse;whiteSpace=wrap;html=1;aspect=fixed;rounded=0;" vertex="1" parent="ZVou1dZ1Lyz8TQ9AEVJz-1">
          <mxGeometry x="79" y="588.56" width="5" height="5" as="geometry" />
        </mxCell>
        <mxCell id="IiozGlmvBU9Abtx-Aspz-371" value="" style="edgeStyle=none;rounded=0;orthogonalLoop=1;jettySize=auto;html=1;startArrow=none;startFill=0;endArrow=none;endFill=0;entryX=1;entryY=0.5;entryDx=0;entryDy=0;" edge="1" parent="ZVou1dZ1Lyz8TQ9AEVJz-1" source="IiozGlmvBU9Abtx-Aspz-372" target="IiozGlmvBU9Abtx-Aspz-374">
          <mxGeometry relative="1" as="geometry">
            <mxPoint x="448" y="523" as="targetPoint" />
          </mxGeometry>
        </mxCell>
        <mxCell id="IiozGlmvBU9Abtx-Aspz-372" value="" style="whiteSpace=wrap;html=1;aspect=fixed;" vertex="1" parent="ZVou1dZ1Lyz8TQ9AEVJz-1">
          <mxGeometry x="192" y="637.5" width="5" height="5" as="geometry" />
        </mxCell>
        <mxCell id="IiozGlmvBU9Abtx-Aspz-373" style="edgeStyle=orthogonalEdgeStyle;rounded=0;orthogonalLoop=1;jettySize=auto;html=1;entryX=1;entryY=0.5;entryDx=0;entryDy=0;startArrow=none;startFill=0;endArrow=none;endFill=0;" edge="1" parent="ZVou1dZ1Lyz8TQ9AEVJz-1" source="IiozGlmvBU9Abtx-Aspz-374" target="IiozGlmvBU9Abtx-Aspz-377">
          <mxGeometry relative="1" as="geometry" />
        </mxCell>
        <mxCell id="IiozGlmvBU9Abtx-Aspz-374" value="" style="ellipse;whiteSpace=wrap;html=1;aspect=fixed;rounded=0;" vertex="1" parent="ZVou1dZ1Lyz8TQ9AEVJz-1">
          <mxGeometry x="169" y="637.5" width="5" height="5" as="geometry" />
        </mxCell>
        <mxCell id="IiozGlmvBU9Abtx-Aspz-375" value="" style="edgeStyle=none;rounded=0;orthogonalLoop=1;jettySize=auto;html=1;startArrow=none;startFill=0;endArrow=none;endFill=0;entryX=1;entryY=0.5;entryDx=0;entryDy=0;" edge="1" parent="ZVou1dZ1Lyz8TQ9AEVJz-1" source="IiozGlmvBU9Abtx-Aspz-377" target="IiozGlmvBU9Abtx-Aspz-378">
          <mxGeometry relative="1" as="geometry">
            <mxPoint x="383" y="523" as="targetPoint" />
          </mxGeometry>
        </mxCell>
        <mxCell id="IiozGlmvBU9Abtx-Aspz-376" value="Submit Invite Code" style="text;html=1;align=center;verticalAlign=middle;resizable=0;points=[];labelBackgroundColor=#ffffff;" vertex="1" connectable="0" parent="IiozGlmvBU9Abtx-Aspz-375">
          <mxGeometry x="0.3581" relative="1" as="geometry">
            <mxPoint x="-28.8" y="-17.5" as="offset" />
          </mxGeometry>
        </mxCell>
        <mxCell id="IiozGlmvBU9Abtx-Aspz-377" value="" style="whiteSpace=wrap;html=1;aspect=fixed;" vertex="1" parent="ZVou1dZ1Lyz8TQ9AEVJz-1">
          <mxGeometry x="127" y="637.5" width="5" height="5" as="geometry" />
        </mxCell>
        <mxCell id="IiozGlmvBU9Abtx-Aspz-378" value="" style="ellipse;whiteSpace=wrap;html=1;aspect=fixed;rounded=0;" vertex="1" parent="ZVou1dZ1Lyz8TQ9AEVJz-1">
          <mxGeometry x="79" y="637.5" width="5" height="5" as="geometry" />
        </mxCell>
        <mxCell id="IiozGlmvBU9Abtx-Aspz-380" value="" style="rounded=0;orthogonalLoop=1;jettySize=auto;html=1;startArrow=none;startFill=0;endArrow=none;endFill=0;entryX=1;entryY=0.5;entryDx=0;entryDy=0;exitX=0;exitY=0.5;exitDx=0;exitDy=0;" edge="1" parent="ZVou1dZ1Lyz8TQ9AEVJz-1" source="IiozGlmvBU9Abtx-Aspz-383" target="IiozGlmvBU9Abtx-Aspz-382">
          <mxGeometry relative="1" as="geometry">
            <mxPoint x="541" y="70" as="targetPoint" />
            <mxPoint x="591" y="460" as="sourcePoint" />
          </mxGeometry>
        </mxCell>
        <mxCell id="IiozGlmvBU9Abtx-Aspz-381" value="spaces" style="text;html=1;align=center;verticalAlign=middle;resizable=0;points=[];labelBackgroundColor=#ffffff;" vertex="1" connectable="0" parent="IiozGlmvBU9Abtx-Aspz-380">
          <mxGeometry x="0.3763" relative="1" as="geometry">
            <mxPoint x="-14.499999999999998" y="-16.06" as="offset" />
          </mxGeometry>
        </mxCell>
        <mxCell id="IiozGlmvBU9Abtx-Aspz-382" value="" style="ellipse;whiteSpace=wrap;html=1;aspect=fixed;rounded=0;" vertex="1" parent="ZVou1dZ1Lyz8TQ9AEVJz-1">
          <mxGeometry x="532" y="482.5" width="5" height="5" as="geometry" />
        </mxCell>
        <mxCell id="IiozGlmvBU9Abtx-Aspz-383" value="" style="whiteSpace=wrap;html=1;aspect=fixed;" vertex="1" parent="ZVou1dZ1Lyz8TQ9AEVJz-1">
          <mxGeometry x="591" y="482.5" width="5" height="5" as="geometry" />
        </mxCell>
        <mxCell id="IiozGlmvBU9Abtx-Aspz-384" value="" style="rounded=0;orthogonalLoop=1;jettySize=auto;html=1;startArrow=none;startFill=0;endArrow=none;endFill=0;entryX=1;entryY=0.5;entryDx=0;entryDy=0;exitX=0;exitY=0.5;exitDx=0;exitDy=0;" edge="1" parent="ZVou1dZ1Lyz8TQ9AEVJz-1" source="IiozGlmvBU9Abtx-Aspz-387" target="IiozGlmvBU9Abtx-Aspz-386">
          <mxGeometry relative="1" as="geometry">
            <mxPoint x="541" y="102.5" as="targetPoint" />
            <mxPoint x="591" y="492.5" as="sourcePoint" />
          </mxGeometry>
        </mxCell>
        <mxCell id="IiozGlmvBU9Abtx-Aspz-385" value="codes" style="text;html=1;align=center;verticalAlign=middle;resizable=0;points=[];labelBackgroundColor=#ffffff;" vertex="1" connectable="0" parent="IiozGlmvBU9Abtx-Aspz-384">
          <mxGeometry x="0.3763" relative="1" as="geometry">
            <mxPoint x="-14.499999999999998" y="-16.06" as="offset" />
          </mxGeometry>
        </mxCell>
        <mxCell id="IiozGlmvBU9Abtx-Aspz-386" value="" style="ellipse;whiteSpace=wrap;html=1;aspect=fixed;rounded=0;" vertex="1" parent="ZVou1dZ1Lyz8TQ9AEVJz-1">
          <mxGeometry x="532" y="515" width="5" height="5" as="geometry" />
        </mxCell>
        <mxCell id="IiozGlmvBU9Abtx-Aspz-387" value="" style="whiteSpace=wrap;html=1;aspect=fixed;" vertex="1" parent="ZVou1dZ1Lyz8TQ9AEVJz-1">
          <mxGeometry x="591" y="515" width="5" height="5" as="geometry" />
        </mxCell>
        <mxCell id="IiozGlmvBU9Abtx-Aspz-397" value="" style="edgeStyle=none;rounded=0;orthogonalLoop=1;jettySize=auto;html=1;startArrow=none;startFill=0;endArrow=none;endFill=0;entryX=1;entryY=0.5;entryDx=0;entryDy=0;entryPerimeter=0;" edge="1" parent="ZVou1dZ1Lyz8TQ9AEVJz-1" source="IiozGlmvBU9Abtx-Aspz-398" target="IiozGlmvBU9Abtx-Aspz-401">
          <mxGeometry relative="1" as="geometry">
            <mxPoint x="490.00000000000006" y="289.5" as="targetPoint" />
          </mxGeometry>
        </mxCell>
        <mxCell id="IiozGlmvBU9Abtx-Aspz-398" value="" style="whiteSpace=wrap;html=1;aspect=fixed;" vertex="1" parent="ZVou1dZ1Lyz8TQ9AEVJz-1">
          <mxGeometry x="373.00000000000006" y="389.5" width="5" height="5" as="geometry" />
        </mxCell>
        <mxCell id="IiozGlmvBU9Abtx-Aspz-399" value="" style="whiteSpace=wrap;html=1;aspect=fixed;" vertex="1" parent="ZVou1dZ1Lyz8TQ9AEVJz-1">
          <mxGeometry x="438.00000000000006" y="389.5" width="5" height="5" as="geometry" />
        </mxCell>
        <mxCell id="IiozGlmvBU9Abtx-Aspz-400" style="edgeStyle=none;rounded=0;orthogonalLoop=1;jettySize=auto;html=1;exitX=0;exitY=0.5;exitDx=0;exitDy=0;exitPerimeter=0;entryX=0;entryY=0.5;entryDx=0;entryDy=0;startArrow=none;startFill=0;endArrow=none;endFill=0;" edge="1" parent="ZVou1dZ1Lyz8TQ9AEVJz-1" source="IiozGlmvBU9Abtx-Aspz-401" target="IiozGlmvBU9Abtx-Aspz-399">
          <mxGeometry relative="1" as="geometry" />
        </mxCell>
        <mxCell id="IiozGlmvBU9Abtx-Aspz-401" value="" style="shape=requiredInterface;html=1;verticalLabelPosition=bottom;rounded=0;rotation=-180;" vertex="1" parent="ZVou1dZ1Lyz8TQ9AEVJz-1">
          <mxGeometry x="390.00000000000006" y="382" width="10" height="20" as="geometry" />
        </mxCell>
        <mxCell id="IiozGlmvBU9Abtx-Aspz-402" value="" style="edgeStyle=none;rounded=0;orthogonalLoop=1;jettySize=auto;html=1;startArrow=none;startFill=0;endArrow=none;endFill=0;entryX=1;entryY=0.5;entryDx=0;entryDy=0;entryPerimeter=0;exitX=1;exitY=0.5;exitDx=0;exitDy=0;" edge="1" parent="ZVou1dZ1Lyz8TQ9AEVJz-1" source="IiozGlmvBU9Abtx-Aspz-399" target="IiozGlmvBU9Abtx-Aspz-403">
          <mxGeometry relative="1" as="geometry">
            <mxPoint x="500.00000000000006" y="299.5" as="targetPoint" />
            <mxPoint x="408" y="362" as="sourcePoint" />
          </mxGeometry>
        </mxCell>
        <mxCell id="IiozGlmvBU9Abtx-Aspz-404" style="edgeStyle=orthogonalEdgeStyle;rounded=0;orthogonalLoop=1;jettySize=auto;html=1;entryX=0;entryY=0.5;entryDx=0;entryDy=0;dashed=1;startArrow=none;startFill=0;endArrow=open;endFill=0;" edge="1" parent="ZVou1dZ1Lyz8TQ9AEVJz-1" source="IiozGlmvBU9Abtx-Aspz-403" target="IiozGlmvBU9Abtx-Aspz-217">
          <mxGeometry relative="1" as="geometry" />
        </mxCell>
        <mxCell id="IiozGlmvBU9Abtx-Aspz-403" value="" style="shape=requiredInterface;html=1;verticalLabelPosition=bottom;rounded=0;rotation=-180;" vertex="1" parent="ZVou1dZ1Lyz8TQ9AEVJz-1">
          <mxGeometry x="460.00000000000006" y="382" width="10" height="20" as="geometry" />
        </mxCell>
        <mxCell id="IiozGlmvBU9Abtx-Aspz-407" value="«Application»&lt;br&gt;&lt;b&gt;Firebase&lt;/b&gt;" style="html=1;dropTarget=0;rounded=0;" vertex="1" parent="ZVou1dZ1Lyz8TQ9AEVJz-1">
          <mxGeometry x="852" y="370" width="180" height="90" as="geometry" />
        </mxCell>
        <mxCell id="IiozGlmvBU9Abtx-Aspz-408" value="" style="shape=component;jettyWidth=8;jettyHeight=4;" vertex="1" parent="IiozGlmvBU9Abtx-Aspz-407">
          <mxGeometry x="1" width="20" height="20" relative="1" as="geometry">
            <mxPoint x="-27" y="7" as="offset" />
          </mxGeometry>
        </mxCell>
        <mxCell id="IiozGlmvBU9Abtx-Aspz-409" value="" style="edgeStyle=none;rounded=0;orthogonalLoop=1;jettySize=auto;html=1;startArrow=none;startFill=0;endArrow=none;endFill=0;entryX=1;entryY=0.5;entryDx=0;entryDy=0;" edge="1" parent="ZVou1dZ1Lyz8TQ9AEVJz-1" source="IiozGlmvBU9Abtx-Aspz-411" target="IiozGlmvBU9Abtx-Aspz-412">
          <mxGeometry relative="1" as="geometry">
            <mxPoint x="789" y="101.5" as="targetPoint" />
          </mxGeometry>
        </mxCell>
        <mxCell id="IiozGlmvBU9Abtx-Aspz-410" value="auth" style="text;html=1;align=center;verticalAlign=middle;resizable=0;points=[];labelBackgroundColor=#ffffff;" vertex="1" connectable="0" parent="IiozGlmvBU9Abtx-Aspz-409">
          <mxGeometry x="0.3763" relative="1" as="geometry">
            <mxPoint x="-11.88" y="-12.5" as="offset" />
          </mxGeometry>
        </mxCell>
        <mxCell id="IiozGlmvBU9Abtx-Aspz-411" value="" style="whiteSpace=wrap;html=1;aspect=fixed;" vertex="1" parent="ZVou1dZ1Lyz8TQ9AEVJz-1">
          <mxGeometry x="849" y="384.5" width="5" height="5" as="geometry" />
        </mxCell>
        <mxCell id="IiozGlmvBU9Abtx-Aspz-412" value="" style="ellipse;whiteSpace=wrap;html=1;aspect=fixed;rounded=0;" vertex="1" parent="ZVou1dZ1Lyz8TQ9AEVJz-1">
          <mxGeometry x="827" y="384.5" width="5" height="5" as="geometry" />
        </mxCell>
        <mxCell id="IiozGlmvBU9Abtx-Aspz-413" value="" style="whiteSpace=wrap;html=1;aspect=fixed;" vertex="1" parent="ZVou1dZ1Lyz8TQ9AEVJz-1">
          <mxGeometry x="772" y="384.5" width="5" height="5" as="geometry" />
        </mxCell>
        <mxCell id="IiozGlmvBU9Abtx-Aspz-414" value="" style="edgeStyle=none;rounded=0;orthogonalLoop=1;jettySize=auto;html=1;startArrow=none;startFill=0;endArrow=none;endFill=0;entryX=1;entryY=0.5;entryDx=0;entryDy=0;entryPerimeter=0;exitX=1;exitY=0.5;exitDx=0;exitDy=0;" edge="1" parent="ZVou1dZ1Lyz8TQ9AEVJz-1" source="IiozGlmvBU9Abtx-Aspz-413" target="IiozGlmvBU9Abtx-Aspz-416">
          <mxGeometry relative="1" as="geometry">
            <mxPoint x="432" y="-6" as="targetPoint" />
            <mxPoint x="339.99999999999994" y="56.5" as="sourcePoint" />
          </mxGeometry>
        </mxCell>
        <mxCell id="IiozGlmvBU9Abtx-Aspz-415" style="edgeStyle=orthogonalEdgeStyle;rounded=0;orthogonalLoop=1;jettySize=auto;html=1;exitX=0;exitY=0.5;exitDx=0;exitDy=0;exitPerimeter=0;entryX=0;entryY=0.5;entryDx=0;entryDy=0;startArrow=none;startFill=0;endArrow=open;endFill=0;dashed=1;" edge="1" parent="ZVou1dZ1Lyz8TQ9AEVJz-1" source="IiozGlmvBU9Abtx-Aspz-416" target="IiozGlmvBU9Abtx-Aspz-412">
          <mxGeometry relative="1" as="geometry">
            <mxPoint x="820" y="288.5" as="sourcePoint" />
          </mxGeometry>
        </mxCell>
        <mxCell id="IiozGlmvBU9Abtx-Aspz-416" value="" style="shape=requiredInterface;html=1;verticalLabelPosition=bottom;rounded=0;rotation=-180;" vertex="1" parent="ZVou1dZ1Lyz8TQ9AEVJz-1">
          <mxGeometry x="785" y="377" width="10" height="20" as="geometry" />
        </mxCell>
        <mxCell id="IiozGlmvBU9Abtx-Aspz-417" value="" style="edgeStyle=none;rounded=0;orthogonalLoop=1;jettySize=auto;html=1;startArrow=none;startFill=0;endArrow=none;endFill=0;entryX=1;entryY=0.5;entryDx=0;entryDy=0;" edge="1" parent="ZVou1dZ1Lyz8TQ9AEVJz-1" source="IiozGlmvBU9Abtx-Aspz-419" target="IiozGlmvBU9Abtx-Aspz-420">
          <mxGeometry relative="1" as="geometry">
            <mxPoint x="789" y="164.5" as="targetPoint" />
          </mxGeometry>
        </mxCell>
        <mxCell id="IiozGlmvBU9Abtx-Aspz-418" value="firestore" style="text;html=1;align=center;verticalAlign=middle;resizable=0;points=[];labelBackgroundColor=#ffffff;" vertex="1" connectable="0" parent="IiozGlmvBU9Abtx-Aspz-417">
          <mxGeometry x="0.3763" relative="1" as="geometry">
            <mxPoint x="-11.88" y="-12.5" as="offset" />
          </mxGeometry>
        </mxCell>
        <mxCell id="IiozGlmvBU9Abtx-Aspz-419" value="" style="whiteSpace=wrap;html=1;aspect=fixed;" vertex="1" parent="ZVou1dZ1Lyz8TQ9AEVJz-1">
          <mxGeometry x="849" y="447.5" width="5" height="5" as="geometry" />
        </mxCell>
        <mxCell id="IiozGlmvBU9Abtx-Aspz-420" value="" style="ellipse;whiteSpace=wrap;html=1;aspect=fixed;rounded=0;" vertex="1" parent="ZVou1dZ1Lyz8TQ9AEVJz-1">
          <mxGeometry x="827" y="447.5" width="5" height="5" as="geometry" />
        </mxCell>
        <mxCell id="IiozGlmvBU9Abtx-Aspz-421" value="" style="whiteSpace=wrap;html=1;aspect=fixed;" vertex="1" parent="ZVou1dZ1Lyz8TQ9AEVJz-1">
          <mxGeometry x="772" y="447.5" width="5" height="5" as="geometry" />
        </mxCell>
        <mxCell id="IiozGlmvBU9Abtx-Aspz-422" value="" style="edgeStyle=none;rounded=0;orthogonalLoop=1;jettySize=auto;html=1;startArrow=none;startFill=0;endArrow=none;endFill=0;entryX=1;entryY=0.5;entryDx=0;entryDy=0;entryPerimeter=0;exitX=1;exitY=0.5;exitDx=0;exitDy=0;" edge="1" parent="ZVou1dZ1Lyz8TQ9AEVJz-1" source="IiozGlmvBU9Abtx-Aspz-421" target="IiozGlmvBU9Abtx-Aspz-424">
          <mxGeometry relative="1" as="geometry">
            <mxPoint x="432" y="57" as="targetPoint" />
            <mxPoint x="339.99999999999994" y="119.5" as="sourcePoint" />
          </mxGeometry>
        </mxCell>
        <mxCell id="IiozGlmvBU9Abtx-Aspz-423" style="edgeStyle=orthogonalEdgeStyle;rounded=0;orthogonalLoop=1;jettySize=auto;html=1;exitX=0;exitY=0.5;exitDx=0;exitDy=0;exitPerimeter=0;entryX=0;entryY=0.5;entryDx=0;entryDy=0;startArrow=none;startFill=0;endArrow=open;endFill=0;dashed=1;" edge="1" parent="ZVou1dZ1Lyz8TQ9AEVJz-1" source="IiozGlmvBU9Abtx-Aspz-424" target="IiozGlmvBU9Abtx-Aspz-420">
          <mxGeometry relative="1" as="geometry">
            <mxPoint x="820" y="351.5" as="sourcePoint" />
          </mxGeometry>
        </mxCell>
        <mxCell id="IiozGlmvBU9Abtx-Aspz-424" value="" style="shape=requiredInterface;html=1;verticalLabelPosition=bottom;rounded=0;rotation=-180;" vertex="1" parent="ZVou1dZ1Lyz8TQ9AEVJz-1">
          <mxGeometry x="785" y="440" width="10" height="20" as="geometry" />
        </mxCell>
      </root>
    </mxGraphModel>
  </diagram>
  <diagram id="8KKf1sZ_fD88Wu7WL638" name="library_architecture">
    <mxGraphModel dx="946" dy="614" grid="1" gridSize="10" guides="1" tooltips="1" connect="1" arrows="1" fold="1" page="1" pageScale="1" pageWidth="827" pageHeight="1169" math="0" shadow="0">
      <root>
        <mxCell id="qSmuFA6CaGLh3IJ0O-CP-0" />
        <mxCell id="qSmuFA6CaGLh3IJ0O-CP-1" parent="qSmuFA6CaGLh3IJ0O-CP-0" />
        <mxCell id="qSmuFA6CaGLh3IJ0O-CP-2" value="Widgets" style="rounded=1;whiteSpace=wrap;html=1;" vertex="1" parent="qSmuFA6CaGLh3IJ0O-CP-1">
          <mxGeometry x="20" y="270" width="120" height="60" as="geometry" />
        </mxCell>
        <mxCell id="qSmuFA6CaGLh3IJ0O-CP-3" value="BLOCs" style="rounded=1;whiteSpace=wrap;html=1;" vertex="1" parent="qSmuFA6CaGLh3IJ0O-CP-1">
          <mxGeometry x="230" y="270" width="120" height="60" as="geometry" />
        </mxCell>
        <mxCell id="qSmuFA6CaGLh3IJ0O-CP-4" value="Services" style="rounded=1;whiteSpace=wrap;html=1;" vertex="1" parent="qSmuFA6CaGLh3IJ0O-CP-1">
          <mxGeometry x="440" y="270" width="120" height="60" as="geometry" />
        </mxCell>
        <mxCell id="qSmuFA6CaGLh3IJ0O-CP-5" value="Dart Packages" style="rounded=1;whiteSpace=wrap;html=1;" vertex="1" parent="qSmuFA6CaGLh3IJ0O-CP-1">
          <mxGeometry x="650" y="270" width="120" height="60" as="geometry" />
        </mxCell>
        <mxCell id="qSmuFA6CaGLh3IJ0O-CP-6" value="Remote Database&lt;br&gt;Web Services" style="shape=cylinder;html=1;boundedLbl=1;backgroundOutline=1;rounded=0;labelPosition=center;verticalLabelPosition=bottom;align=center;verticalAlign=top;" vertex="1" parent="qSmuFA6CaGLh3IJ0O-CP-1">
          <mxGeometry x="820" y="170" width="50" height="70" as="geometry" />
        </mxCell>
        <mxCell id="qSmuFA6CaGLh3IJ0O-CP-8" value="" style="html=1;verticalLabelPosition=bottom;align=center;labelBackgroundColor=#ffffff;verticalAlign=top;strokeWidth=2;strokeColor=#0080F0;shadow=0;dashed=0;shape=mxgraph.ios7.icons.cloud;rounded=0;" vertex="1" parent="qSmuFA6CaGLh3IJ0O-CP-1">
          <mxGeometry x="840" y="210" width="40" height="30" as="geometry" />
        </mxCell>
        <mxCell id="qSmuFA6CaGLh3IJ0O-CP-12" value="Device Sensors" style="pointerEvents=1;shadow=0;dashed=0;html=1;strokeColor=none;fillColor=#505050;labelPosition=center;verticalLabelPosition=bottom;verticalAlign=top;outlineConnect=0;align=center;shape=mxgraph.office.devices.cell_phone_android_standalone;rounded=0;" vertex="1" parent="qSmuFA6CaGLh3IJ0O-CP-1">
          <mxGeometry x="817.72" y="320" width="54.55" height="100" as="geometry" />
        </mxCell>
        <mxCell id="qSmuFA6CaGLh3IJ0O-CP-13" value="Models" style="rounded=0;whiteSpace=wrap;html=1;" vertex="1" parent="qSmuFA6CaGLh3IJ0O-CP-1">
          <mxGeometry x="455" y="330" width="90" height="40" as="geometry" />
        </mxCell>
        <mxCell id="qSmuFA6CaGLh3IJ0O-CP-15" value="" style="endArrow=none;dashed=1;html=1;" edge="1" parent="qSmuFA6CaGLh3IJ0O-CP-1">
          <mxGeometry width="50" height="50" relative="1" as="geometry">
            <mxPoint x="190" y="480" as="sourcePoint" />
            <mxPoint x="190" y="140" as="targetPoint" />
          </mxGeometry>
        </mxCell>
        <mxCell id="qSmuFA6CaGLh3IJ0O-CP-16" value="" style="endArrow=none;dashed=1;html=1;" edge="1" parent="qSmuFA6CaGLh3IJ0O-CP-1">
          <mxGeometry width="50" height="50" relative="1" as="geometry">
            <mxPoint x="395" y="480" as="sourcePoint" />
            <mxPoint x="395" y="140" as="targetPoint" />
          </mxGeometry>
        </mxCell>
        <mxCell id="qSmuFA6CaGLh3IJ0O-CP-17" value="" style="endArrow=none;dashed=1;html=1;" edge="1" parent="qSmuFA6CaGLh3IJ0O-CP-1">
          <mxGeometry width="50" height="50" relative="1" as="geometry">
            <mxPoint x="600" y="480" as="sourcePoint" />
            <mxPoint x="600" y="140" as="targetPoint" />
          </mxGeometry>
        </mxCell>
        <mxCell id="qSmuFA6CaGLh3IJ0O-CP-18" value="" style="endArrow=classic;startArrow=classic;html=1;" edge="1" parent="qSmuFA6CaGLh3IJ0O-CP-1" source="qSmuFA6CaGLh3IJ0O-CP-2" target="qSmuFA6CaGLh3IJ0O-CP-3">
          <mxGeometry width="50" height="50" relative="1" as="geometry">
            <mxPoint x="440" y="360" as="sourcePoint" />
            <mxPoint x="490" y="310" as="targetPoint" />
          </mxGeometry>
        </mxCell>
        <mxCell id="qSmuFA6CaGLh3IJ0O-CP-19" value="" style="endArrow=classic;startArrow=classic;html=1;" edge="1" parent="qSmuFA6CaGLh3IJ0O-CP-1" source="qSmuFA6CaGLh3IJ0O-CP-3" target="qSmuFA6CaGLh3IJ0O-CP-4">
          <mxGeometry width="50" height="50" relative="1" as="geometry">
            <mxPoint x="440" y="360" as="sourcePoint" />
            <mxPoint x="490" y="310" as="targetPoint" />
          </mxGeometry>
        </mxCell>
        <mxCell id="qSmuFA6CaGLh3IJ0O-CP-20" value="" style="endArrow=classic;startArrow=classic;html=1;" edge="1" parent="qSmuFA6CaGLh3IJ0O-CP-1" source="qSmuFA6CaGLh3IJ0O-CP-4" target="qSmuFA6CaGLh3IJ0O-CP-5">
          <mxGeometry width="50" height="50" relative="1" as="geometry">
            <mxPoint x="440" y="360" as="sourcePoint" />
            <mxPoint x="490" y="310" as="targetPoint" />
          </mxGeometry>
        </mxCell>
        <mxCell id="qSmuFA6CaGLh3IJ0O-CP-21" value="" style="endArrow=classic;startArrow=classic;html=1;edgeStyle=orthogonalEdgeStyle;" edge="1" parent="qSmuFA6CaGLh3IJ0O-CP-1" source="qSmuFA6CaGLh3IJ0O-CP-5" target="qSmuFA6CaGLh3IJ0O-CP-6">
          <mxGeometry width="50" height="50" relative="1" as="geometry">
            <mxPoint x="440" y="360" as="sourcePoint" />
            <mxPoint x="490" y="310" as="targetPoint" />
            <Array as="points">
              <mxPoint x="790" y="290" />
              <mxPoint x="790" y="205" />
            </Array>
          </mxGeometry>
        </mxCell>
        <mxCell id="qSmuFA6CaGLh3IJ0O-CP-22" value="" style="endArrow=classic;startArrow=classic;html=1;edgeStyle=orthogonalEdgeStyle;" edge="1" parent="qSmuFA6CaGLh3IJ0O-CP-1" source="qSmuFA6CaGLh3IJ0O-CP-5" target="qSmuFA6CaGLh3IJ0O-CP-12">
          <mxGeometry width="50" height="50" relative="1" as="geometry">
            <mxPoint x="440" y="360" as="sourcePoint" />
            <mxPoint x="490" y="310" as="targetPoint" />
            <Array as="points">
              <mxPoint x="790" y="310" />
              <mxPoint x="790" y="370" />
            </Array>
          </mxGeometry>
        </mxCell>
        <mxCell id="qSmuFA6CaGLh3IJ0O-CP-24" value="" style="endArrow=classic;html=1;fillColor=#d5e8d4;strokeColor=#82b366;" edge="1" parent="qSmuFA6CaGLh3IJ0O-CP-1">
          <mxGeometry width="50" height="50" relative="1" as="geometry">
            <mxPoint x="120" y="390" as="sourcePoint" />
            <mxPoint x="670" y="390" as="targetPoint" />
          </mxGeometry>
        </mxCell>
        <mxCell id="qSmuFA6CaGLh3IJ0O-CP-25" value="Call Flow" style="text;html=1;align=center;verticalAlign=middle;resizable=0;points=[];labelBackgroundColor=#ffffff;" vertex="1" connectable="0" parent="qSmuFA6CaGLh3IJ0O-CP-24">
          <mxGeometry x="-0.1236" relative="1" as="geometry">
            <mxPoint x="39" as="offset" />
          </mxGeometry>
        </mxCell>
        <mxCell id="qSmuFA6CaGLh3IJ0O-CP-26" value="" style="endArrow=classic;html=1;fillColor=#d5e8d4;strokeColor=#82b366;" edge="1" parent="qSmuFA6CaGLh3IJ0O-CP-1">
          <mxGeometry width="50" height="50" relative="1" as="geometry">
            <mxPoint x="670" y="420" as="sourcePoint" />
            <mxPoint x="120" y="420" as="targetPoint" />
          </mxGeometry>
        </mxCell>
        <mxCell id="qSmuFA6CaGLh3IJ0O-CP-27" value="Data Flow" style="text;html=1;align=center;verticalAlign=middle;resizable=0;points=[];labelBackgroundColor=#ffffff;" vertex="1" connectable="0" parent="qSmuFA6CaGLh3IJ0O-CP-26">
          <mxGeometry x="-0.1236" relative="1" as="geometry">
            <mxPoint x="-29" as="offset" />
          </mxGeometry>
        </mxCell>
        <mxCell id="qSmuFA6CaGLh3IJ0O-CP-28" value="&lt;h2&gt;UI Layer&lt;/h2&gt;" style="text;html=1;strokeColor=none;fillColor=none;align=center;verticalAlign=middle;whiteSpace=wrap;rounded=0;" vertex="1" parent="qSmuFA6CaGLh3IJ0O-CP-1">
          <mxGeometry x="20" y="170" width="130" height="25" as="geometry" />
        </mxCell>
        <mxCell id="qSmuFA6CaGLh3IJ0O-CP-30" value="&lt;h2&gt;Presentation &amp;amp; Logic Layer&lt;/h2&gt;" style="text;html=1;strokeColor=none;fillColor=none;align=center;verticalAlign=middle;whiteSpace=wrap;rounded=0;" vertex="1" parent="qSmuFA6CaGLh3IJ0O-CP-1">
          <mxGeometry x="225" y="180" width="130" height="25" as="geometry" />
        </mxCell>
        <mxCell id="qSmuFA6CaGLh3IJ0O-CP-31" value="&lt;h2&gt;Domain Layer&lt;/h2&gt;" style="text;html=1;strokeColor=none;fillColor=none;align=center;verticalAlign=middle;whiteSpace=wrap;rounded=0;" vertex="1" parent="qSmuFA6CaGLh3IJ0O-CP-1">
          <mxGeometry x="435" y="170" width="130" height="25" as="geometry" />
        </mxCell>
        <mxCell id="qSmuFA6CaGLh3IJ0O-CP-32" value="&lt;h2&gt;Outside World&lt;/h2&gt;" style="text;html=1;strokeColor=none;fillColor=none;align=center;verticalAlign=middle;whiteSpace=wrap;rounded=0;" vertex="1" parent="qSmuFA6CaGLh3IJ0O-CP-1">
          <mxGeometry x="645" y="170" width="130" height="25" as="geometry" />
        </mxCell>
      </root>
    </mxGraphModel>
  </diagram>
  <diagram id="MvmpDImwuyyxXSh6CYki" name="deployment_model">
    <mxGraphModel dx="1577" dy="1023" grid="1" gridSize="10" guides="1" tooltips="1" connect="1" arrows="1" fold="1" page="1" pageScale="1" pageWidth="827" pageHeight="1169" math="0" shadow="0">
      <root>
        <mxCell id="_R1r07gPOs6G0c6QI8Zw-0" />
        <mxCell id="_R1r07gPOs6G0c6QI8Zw-1" parent="_R1r07gPOs6G0c6QI8Zw-0" />
        <mxCell id="_R1r07gPOs6G0c6QI8Zw-2" value="Invite Only Deployment" style="shape=umlFrame;whiteSpace=wrap;html=1;rounded=0;width=170;height=30;" vertex="1" parent="_R1r07gPOs6G0c6QI8Zw-1">
          <mxGeometry x="20" y="30" width="790" height="670" as="geometry" />
        </mxCell>
        <mxCell id="_R1r07gPOs6G0c6QI8Zw-10" style="rounded=0;orthogonalLoop=1;jettySize=auto;html=1;startArrow=none;startFill=0;endArrow=open;endFill=0;dashed=1;entryX=0;entryY=0;entryDx=37.5;entryDy=160;entryPerimeter=0;exitX=1;exitY=0.129;exitDx=0;exitDy=0;exitPerimeter=0;" edge="1" parent="_R1r07gPOs6G0c6QI8Zw-1" source="_R1r07gPOs6G0c6QI8Zw-3" target="_R1r07gPOs6G0c6QI8Zw-8">
          <mxGeometry relative="1" as="geometry" />
        </mxCell>
        <mxCell id="_R1r07gPOs6G0c6QI8Zw-11" value="&amp;lt;&amp;lt;deploy&amp;gt;&amp;gt;" style="text;html=1;align=center;verticalAlign=middle;resizable=0;points=[];labelBackgroundColor=#ffffff;" vertex="1" connectable="0" parent="_R1r07gPOs6G0c6QI8Zw-10">
          <mxGeometry x="-0.1333" y="1" relative="1" as="geometry">
            <mxPoint as="offset" />
          </mxGeometry>
        </mxCell>
        <mxCell id="_R1r07gPOs6G0c6QI8Zw-3" value="&lt;p style=&quot;margin: 0px ; margin-top: 4px ; text-align: center&quot;&gt;&lt;i&gt;&amp;lt;&amp;lt;android application&amp;gt;&amp;gt;&lt;/i&gt;&lt;br&gt;&lt;b&gt;invite_only.apk&lt;/b&gt;&lt;/p&gt;&lt;hr size=&quot;1&quot;&gt;&lt;p style=&quot;margin: 0px ; margin-left: 4px&quot;&gt;&lt;/p&gt;&lt;p style=&quot;margin: 0px ; margin-left: 4px&quot;&gt;&lt;br&gt;&lt;/p&gt;" style="verticalAlign=top;align=left;overflow=fill;fontSize=12;fontFamily=Helvetica;html=1;rounded=0;" vertex="1" parent="_R1r07gPOs6G0c6QI8Zw-1">
          <mxGeometry x="40" y="80" width="240" height="290" as="geometry" />
        </mxCell>
        <mxCell id="_R1r07gPOs6G0c6QI8Zw-4" value="«compiled classes»&lt;br&gt;&lt;b&gt;classes.dex&lt;/b&gt;" style="html=1;rounded=0;" vertex="1" parent="_R1r07gPOs6G0c6QI8Zw-1">
          <mxGeometry x="85" y="132.5" width="150" height="50" as="geometry" />
        </mxCell>
        <mxCell id="_R1r07gPOs6G0c6QI8Zw-5" value="«compiled resources»&lt;br&gt;&lt;b&gt;resources.arsc&lt;/b&gt;" style="html=1;rounded=0;" vertex="1" parent="_R1r07gPOs6G0c6QI8Zw-1">
          <mxGeometry x="85" y="190" width="150" height="50" as="geometry" />
        </mxCell>
        <mxCell id="_R1r07gPOs6G0c6QI8Zw-6" value="«uncompiled resources»&lt;br&gt;&lt;b&gt;res&lt;/b&gt;" style="html=1;rounded=0;" vertex="1" parent="_R1r07gPOs6G0c6QI8Zw-1">
          <mxGeometry x="85" y="250" width="150" height="50" as="geometry" />
        </mxCell>
        <mxCell id="_R1r07gPOs6G0c6QI8Zw-7" value="«deployment spec»&lt;br&gt;&lt;b&gt;AndroidManifest.xml&lt;/b&gt;" style="html=1;rounded=0;" vertex="1" parent="_R1r07gPOs6G0c6QI8Zw-1">
          <mxGeometry x="85" y="310" width="150" height="50" as="geometry" />
        </mxCell>
        <mxCell id="_R1r07gPOs6G0c6QI8Zw-12" style="edgeStyle=orthogonalEdgeStyle;rounded=0;orthogonalLoop=1;jettySize=auto;html=1;startArrow=none;startFill=0;endArrow=diamondThin;endFill=1;" edge="1" parent="_R1r07gPOs6G0c6QI8Zw-1" source="_R1r07gPOs6G0c6QI8Zw-8" target="_R1r07gPOs6G0c6QI8Zw-9">
          <mxGeometry relative="1" as="geometry" />
        </mxCell>
        <mxCell id="_R1r07gPOs6G0c6QI8Zw-24" style="edgeStyle=orthogonalEdgeStyle;rounded=0;orthogonalLoop=1;jettySize=auto;html=1;startArrow=none;startFill=0;endArrow=diamondThin;endFill=1;" edge="1" parent="_R1r07gPOs6G0c6QI8Zw-1" source="_R1r07gPOs6G0c6QI8Zw-8" target="_R1r07gPOs6G0c6QI8Zw-23">
          <mxGeometry relative="1" as="geometry" />
        </mxCell>
        <mxCell id="_R1r07gPOs6G0c6QI8Zw-8" value="«execution environment»&lt;br&gt;&lt;b&gt;Android&lt;/b&gt;" style="verticalAlign=middle;align=center;spacingTop=8;spacingLeft=2;spacingRight=12;shape=cube;size=10;direction=south;fontStyle=0;html=1;rounded=0;" vertex="1" parent="_R1r07gPOs6G0c6QI8Zw-1">
          <mxGeometry x="520" y="80" width="160" height="65" as="geometry" />
        </mxCell>
        <mxCell id="_R1r07gPOs6G0c6QI8Zw-33" style="edgeStyle=orthogonalEdgeStyle;rounded=0;orthogonalLoop=1;jettySize=auto;html=1;startArrow=none;startFill=0;endArrow=none;endFill=0;" edge="1" parent="_R1r07gPOs6G0c6QI8Zw-1" source="_R1r07gPOs6G0c6QI8Zw-9" target="_R1r07gPOs6G0c6QI8Zw-29">
          <mxGeometry relative="1" as="geometry">
            <Array as="points">
              <mxPoint x="540.59" y="290" />
              <mxPoint x="540.59" y="290" />
            </Array>
          </mxGeometry>
        </mxCell>
        <mxCell id="_R1r07gPOs6G0c6QI8Zw-34" value="&amp;lt;&amp;lt;protocol&amp;gt;&amp;gt;&lt;br&gt;https" style="text;html=1;align=center;verticalAlign=middle;resizable=0;points=[];labelBackgroundColor=#ffffff;" vertex="1" connectable="0" parent="_R1r07gPOs6G0c6QI8Zw-33">
          <mxGeometry x="0.36" y="-14" relative="1" as="geometry">
            <mxPoint x="13" y="-13" as="offset" />
          </mxGeometry>
        </mxCell>
        <mxCell id="_R1r07gPOs6G0c6QI8Zw-9" value="«device»&lt;br&gt;&lt;b&gt;Smartphone&lt;/b&gt;" style="verticalAlign=middle;align=center;spacingTop=8;spacingLeft=2;spacingRight=12;shape=cube;size=10;direction=south;fontStyle=0;html=1;rounded=0;" vertex="1" parent="_R1r07gPOs6G0c6QI8Zw-1">
          <mxGeometry x="420" y="185" width="160" height="65" as="geometry" />
        </mxCell>
        <mxCell id="_R1r07gPOs6G0c6QI8Zw-13" style="rounded=0;orthogonalLoop=1;jettySize=auto;html=1;startArrow=none;startFill=0;endArrow=open;endFill=0;dashed=1;exitX=1;exitY=0.75;exitDx=0;exitDy=0;edgeStyle=orthogonalEdgeStyle;" edge="1" parent="_R1r07gPOs6G0c6QI8Zw-1" source="_R1r07gPOs6G0c6QI8Zw-15" target="_R1r07gPOs6G0c6QI8Zw-21">
          <mxGeometry relative="1" as="geometry">
            <Array as="points">
              <mxPoint x="280" y="660" />
            </Array>
          </mxGeometry>
        </mxCell>
        <mxCell id="_R1r07gPOs6G0c6QI8Zw-14" value="&amp;lt;&amp;lt;deploy&amp;gt;&amp;gt;" style="text;html=1;align=center;verticalAlign=middle;resizable=0;points=[];labelBackgroundColor=#ffffff;" vertex="1" connectable="0" parent="_R1r07gPOs6G0c6QI8Zw-13">
          <mxGeometry x="-0.1333" y="1" relative="1" as="geometry">
            <mxPoint x="30.83" y="-1.5" as="offset" />
          </mxGeometry>
        </mxCell>
        <mxCell id="_R1r07gPOs6G0c6QI8Zw-15" value="&lt;p style=&quot;margin: 0px ; margin-top: 4px ; text-align: center&quot;&gt;&lt;i&gt;&amp;lt;&amp;lt;iOS application&amp;gt;&amp;gt;&lt;/i&gt;&lt;br&gt;&lt;b&gt;invite_only.ipa&lt;/b&gt;&lt;/p&gt;&lt;hr size=&quot;1&quot;&gt;&lt;p style=&quot;margin: 0px ; margin-left: 4px&quot;&gt;&lt;/p&gt;&lt;p style=&quot;margin: 0px ; margin-left: 4px&quot;&gt;&lt;br&gt;&lt;/p&gt;" style="verticalAlign=top;align=left;overflow=fill;fontSize=12;fontFamily=Helvetica;html=1;rounded=0;" vertex="1" parent="_R1r07gPOs6G0c6QI8Zw-1">
          <mxGeometry x="40" y="400" width="240" height="290" as="geometry" />
        </mxCell>
        <mxCell id="_R1r07gPOs6G0c6QI8Zw-16" value="«compiled classes»&lt;br&gt;&lt;b&gt;Runner&lt;/b&gt;" style="html=1;rounded=0;" vertex="1" parent="_R1r07gPOs6G0c6QI8Zw-1">
          <mxGeometry x="85" y="450" width="150" height="50" as="geometry" />
        </mxCell>
        <mxCell id="_R1r07gPOs6G0c6QI8Zw-17" value="«compiled resources»&lt;br&gt;&lt;b&gt;Assets.car&lt;/b&gt;" style="html=1;rounded=0;" vertex="1" parent="_R1r07gPOs6G0c6QI8Zw-1">
          <mxGeometry x="85" y="510" width="150" height="50" as="geometry" />
        </mxCell>
        <mxCell id="_R1r07gPOs6G0c6QI8Zw-18" value="«uncompiled resources»&lt;br&gt;&lt;b&gt;*.png&lt;/b&gt;" style="html=1;rounded=0;" vertex="1" parent="_R1r07gPOs6G0c6QI8Zw-1">
          <mxGeometry x="85" y="570" width="150" height="50" as="geometry" />
        </mxCell>
        <mxCell id="_R1r07gPOs6G0c6QI8Zw-19" value="«deployment spec»&lt;br&gt;&lt;b&gt;Info.plist&lt;/b&gt;" style="html=1;rounded=0;" vertex="1" parent="_R1r07gPOs6G0c6QI8Zw-1">
          <mxGeometry x="85" y="630" width="150" height="50" as="geometry" />
        </mxCell>
        <mxCell id="_R1r07gPOs6G0c6QI8Zw-20" style="edgeStyle=orthogonalEdgeStyle;rounded=0;orthogonalLoop=1;jettySize=auto;html=1;startArrow=none;startFill=0;endArrow=diamondThin;endFill=1;" edge="1" parent="_R1r07gPOs6G0c6QI8Zw-1" source="_R1r07gPOs6G0c6QI8Zw-21" target="_R1r07gPOs6G0c6QI8Zw-22">
          <mxGeometry relative="1" as="geometry" />
        </mxCell>
        <mxCell id="_R1r07gPOs6G0c6QI8Zw-26" style="edgeStyle=orthogonalEdgeStyle;rounded=0;orthogonalLoop=1;jettySize=auto;html=1;startArrow=none;startFill=0;endArrow=diamondThin;endFill=1;" edge="1" parent="_R1r07gPOs6G0c6QI8Zw-1" source="_R1r07gPOs6G0c6QI8Zw-21" target="_R1r07gPOs6G0c6QI8Zw-25">
          <mxGeometry relative="1" as="geometry" />
        </mxCell>
        <mxCell id="_R1r07gPOs6G0c6QI8Zw-21" value="«execution environment»&lt;br&gt;&lt;b&gt;iOS&lt;/b&gt;" style="verticalAlign=middle;align=center;spacingTop=8;spacingLeft=2;spacingRight=12;shape=cube;size=10;direction=south;fontStyle=0;html=1;rounded=0;" vertex="1" parent="_R1r07gPOs6G0c6QI8Zw-1">
          <mxGeometry x="520" y="625" width="160" height="65" as="geometry" />
        </mxCell>
        <mxCell id="_R1r07gPOs6G0c6QI8Zw-22" value="«device»&lt;br&gt;&lt;b&gt;iPhone&lt;/b&gt;" style="verticalAlign=middle;align=center;spacingTop=8;spacingLeft=2;spacingRight=12;shape=cube;size=10;direction=south;fontStyle=0;html=1;rounded=0;" vertex="1" parent="_R1r07gPOs6G0c6QI8Zw-1">
          <mxGeometry x="425" y="520" width="160" height="65" as="geometry" />
        </mxCell>
        <mxCell id="_R1r07gPOs6G0c6QI8Zw-23" value="«device»&lt;br&gt;&lt;b&gt;Tablet&lt;/b&gt;" style="verticalAlign=middle;align=center;spacingTop=8;spacingLeft=2;spacingRight=12;shape=cube;size=10;direction=south;fontStyle=0;html=1;rounded=0;" vertex="1" parent="_R1r07gPOs6G0c6QI8Zw-1">
          <mxGeometry x="615.59" y="182.5" width="160" height="65" as="geometry" />
        </mxCell>
        <mxCell id="_R1r07gPOs6G0c6QI8Zw-25" value="«device»&lt;br&gt;&lt;b&gt;iPad&lt;/b&gt;" style="verticalAlign=middle;align=center;spacingTop=8;spacingLeft=2;spacingRight=12;shape=cube;size=10;direction=south;fontStyle=0;html=1;rounded=0;" vertex="1" parent="_R1r07gPOs6G0c6QI8Zw-1">
          <mxGeometry x="615.59" y="520" width="160" height="65" as="geometry" />
        </mxCell>
        <mxCell id="_R1r07gPOs6G0c6QI8Zw-29" value="«device»&lt;br&gt;&lt;b&gt;Firebase Server&lt;/b&gt;" style="verticalAlign=top;align=center;spacingTop=8;spacingLeft=2;spacingRight=12;shape=cube;size=10;direction=south;fontStyle=0;html=1;rounded=0;" vertex="1" parent="_R1r07gPOs6G0c6QI8Zw-1">
          <mxGeometry x="420" y="310" width="370.59" height="150" as="geometry" />
        </mxCell>
        <mxCell id="_R1r07gPOs6G0c6QI8Zw-30" value="«device»&lt;br&gt;&lt;b&gt;Firebase Auth&lt;/b&gt;" style="verticalAlign=middle;align=center;spacingTop=8;spacingLeft=2;spacingRight=12;shape=cube;size=10;direction=south;fontStyle=0;html=1;rounded=0;" vertex="1" parent="_R1r07gPOs6G0c6QI8Zw-1">
          <mxGeometry x="440.00000000000006" y="370" width="130" height="65" as="geometry" />
        </mxCell>
        <mxCell id="_R1r07gPOs6G0c6QI8Zw-32" value="«device»&lt;br&gt;&lt;b&gt;Firestore&lt;/b&gt;" style="verticalAlign=middle;align=center;spacingTop=8;spacingLeft=2;spacingRight=12;shape=cube;size=10;direction=south;fontStyle=0;html=1;rounded=0;" vertex="1" parent="_R1r07gPOs6G0c6QI8Zw-1">
          <mxGeometry x="630.59" y="370" width="130" height="65" as="geometry" />
        </mxCell>
        <mxCell id="_R1r07gPOs6G0c6QI8Zw-35" style="edgeStyle=orthogonalEdgeStyle;rounded=0;orthogonalLoop=1;jettySize=auto;html=1;startArrow=none;startFill=0;endArrow=none;endFill=0;" edge="1" parent="_R1r07gPOs6G0c6QI8Zw-1" source="_R1r07gPOs6G0c6QI8Zw-23" target="_R1r07gPOs6G0c6QI8Zw-29">
          <mxGeometry relative="1" as="geometry">
            <mxPoint x="550.59" y="257.5" as="sourcePoint" />
            <mxPoint x="550.59" y="320" as="targetPoint" />
            <Array as="points">
              <mxPoint x="700.59" y="260" />
              <mxPoint x="700.59" y="260" />
            </Array>
          </mxGeometry>
        </mxCell>
        <mxCell id="_R1r07gPOs6G0c6QI8Zw-36" value="&amp;lt;&amp;lt;protocol&amp;gt;&amp;gt;&lt;br&gt;https" style="text;html=1;align=center;verticalAlign=middle;resizable=0;points=[];labelBackgroundColor=#ffffff;" vertex="1" connectable="0" parent="_R1r07gPOs6G0c6QI8Zw-35">
          <mxGeometry x="0.36" y="-14" relative="1" as="geometry">
            <mxPoint x="13" y="-13" as="offset" />
          </mxGeometry>
        </mxCell>
        <mxCell id="_R1r07gPOs6G0c6QI8Zw-37" style="edgeStyle=orthogonalEdgeStyle;rounded=0;orthogonalLoop=1;jettySize=auto;html=1;startArrow=none;startFill=0;endArrow=none;endFill=0;" edge="1" parent="_R1r07gPOs6G0c6QI8Zw-1" source="_R1r07gPOs6G0c6QI8Zw-29" target="_R1r07gPOs6G0c6QI8Zw-22">
          <mxGeometry relative="1" as="geometry">
            <mxPoint x="560.59" y="267.5" as="sourcePoint" />
            <mxPoint x="560.59" y="330" as="targetPoint" />
            <Array as="points">
              <mxPoint x="540.59" y="480" />
              <mxPoint x="540.59" y="480" />
            </Array>
          </mxGeometry>
        </mxCell>
        <mxCell id="_R1r07gPOs6G0c6QI8Zw-38" value="&amp;lt;&amp;lt;protocol&amp;gt;&amp;gt;&lt;br&gt;https" style="text;html=1;align=center;verticalAlign=middle;resizable=0;points=[];labelBackgroundColor=#ffffff;" vertex="1" connectable="0" parent="_R1r07gPOs6G0c6QI8Zw-37">
          <mxGeometry x="0.36" y="-14" relative="1" as="geometry">
            <mxPoint x="13" y="-13" as="offset" />
          </mxGeometry>
        </mxCell>
        <mxCell id="_R1r07gPOs6G0c6QI8Zw-39" style="edgeStyle=orthogonalEdgeStyle;rounded=0;orthogonalLoop=1;jettySize=auto;html=1;startArrow=none;startFill=0;endArrow=none;endFill=0;" edge="1" parent="_R1r07gPOs6G0c6QI8Zw-1" source="_R1r07gPOs6G0c6QI8Zw-29" target="_R1r07gPOs6G0c6QI8Zw-25">
          <mxGeometry relative="1" as="geometry">
            <mxPoint x="670.59" y="480" as="sourcePoint" />
            <mxPoint x="670.59" y="540" as="targetPoint" />
            <Array as="points">
              <mxPoint x="710.59" y="480" />
              <mxPoint x="710.59" y="480" />
            </Array>
          </mxGeometry>
        </mxCell>
        <mxCell id="_R1r07gPOs6G0c6QI8Zw-40" value="&amp;lt;&amp;lt;protocol&amp;gt;&amp;gt;&lt;br&gt;https" style="text;html=1;align=center;verticalAlign=middle;resizable=0;points=[];labelBackgroundColor=#ffffff;" vertex="1" connectable="0" parent="_R1r07gPOs6G0c6QI8Zw-39">
          <mxGeometry x="0.36" y="-14" relative="1" as="geometry">
            <mxPoint x="13" y="-13" as="offset" />
          </mxGeometry>
        </mxCell>
      </root>
    </mxGraphModel>
  </diagram>
</mxfile>
